<svg width="478" height="19" viewBox="0 0 478 19" fill="none" xmlns="http://www.w3.org/2000/svg">
<path d="M4.36842 2.69876L3.24842 4.97876L2.02842 7.43876C1.93509 7.61209 1.79509 7.73209 1.60842 7.79876C1.42175 7.85209 1.24175 7.83209 1.06842 7.73876C0.90842 7.64543 0.795087 7.50543 0.72842 7.31876C0.675087 7.13209 0.695087 6.95876 0.78842 6.79876C1.09509 6.22543 1.50175 5.40543 2.00842 4.33876C2.51509 3.27209 2.88842 2.51209 3.12842 2.05876C3.20842 1.88543 3.34175 1.77209 3.52842 1.71876C3.71509 1.65209 3.89509 1.66543 4.06842 1.75876C4.24175 1.83876 4.35509 1.97209 4.40842 2.15876C4.47509 2.34543 4.46175 2.52543 4.36842 2.69876ZM8.26842 2.87876C7.38842 4.13209 6.53509 5.64543 5.70842 7.41876C5.62842 7.59209 5.49509 7.71209 5.30842 7.77876C5.12175 7.84543 4.94175 7.83876 4.76842 7.75876C4.59509 7.67876 4.47509 7.54543 4.40842 7.35876C4.34175 7.17209 4.34842 6.99209 4.42842 6.81876C5.29509 4.97876 6.18842 3.39876 7.10842 2.07876C7.22842 1.91876 7.38175 1.82543 7.56842 1.79876C7.75509 1.75876 7.92842 1.79876 8.08842 1.91876C8.24842 2.02543 8.34175 2.17209 8.36842 2.35876C8.40842 2.54543 8.37509 2.71876 8.26842 2.87876ZM19.5687 3.81876C19.4354 3.81876 19.1821 3.81209 18.8087 3.79876C18.4354 3.78543 17.9554 3.76543 17.3687 3.73876C16.7954 3.71209 16.3087 3.69209 15.9087 3.67876C15.0154 3.65209 14.3221 3.63876 13.8287 3.63876C13.5354 3.63876 13.3087 3.64543 13.1487 3.65876C13.1354 3.65876 13.1221 3.66543 13.1087 3.67876C13.0821 3.74543 13.0621 3.83209 13.0487 3.93876C13.0087 4.11209 13.0287 4.42543 13.1087 4.87876C13.1221 4.94543 13.1421 5.05209 13.1687 5.19876C13.2087 5.34543 13.2287 5.44543 13.2287 5.49876C13.2821 5.75209 13.3154 5.95876 13.3287 6.11876C13.3821 6.74543 13.4154 7.43876 13.4287 8.19876C13.7354 8.22543 14.0887 8.25876 14.4887 8.29876C15.4621 8.41876 16.0154 8.47876 16.1487 8.47876C17.3887 8.59876 18.3621 8.54543 19.0687 8.31876C19.2554 8.25209 19.4354 8.26543 19.6087 8.35876C19.7821 8.45209 19.8954 8.59209 19.9487 8.77876C20.0154 8.95209 20.0021 9.12543 19.9087 9.29876C19.8154 9.47209 19.6821 9.58543 19.5087 9.63876C18.6021 9.93209 17.4354 10.0121 16.0087 9.87876C15.8754 9.86543 15.3221 9.80543 14.3487 9.69876C13.9621 9.65876 13.6554 9.63209 13.4287 9.61876C13.4154 9.77876 13.4021 10.2521 13.3887 11.0388C13.3754 11.8254 13.3687 12.4254 13.3687 12.8388C13.3687 12.9721 13.3487 13.2388 13.3087 13.6388C13.2687 13.9854 13.2487 14.2588 13.2487 14.4588C13.2354 14.7788 13.2621 14.9854 13.3287 15.0788C13.3554 15.0921 13.3954 15.0988 13.4487 15.0988C13.6087 15.1121 13.8221 15.1188 14.0887 15.1188C14.5554 15.1321 15.2021 15.1454 16.0287 15.1588C16.4021 15.1588 16.8487 15.1654 17.3687 15.1788C17.9021 15.1788 18.3354 15.1854 18.6687 15.1988C19.0154 15.1988 19.2487 15.1988 19.3687 15.1988C19.5554 15.1988 19.7154 15.2721 19.8487 15.4188C19.9821 15.5521 20.0487 15.7188 20.0487 15.9188C20.0487 16.1054 19.9754 16.2654 19.8287 16.3988C19.6954 16.5321 19.5287 16.5988 19.3287 16.5988C19.2087 16.5988 18.9821 16.5988 18.6487 16.5988C18.3154 16.5854 17.8887 16.5788 17.3687 16.5788C16.8487 16.5654 16.3954 16.5588 16.0087 16.5588C15.1687 16.5454 14.5154 16.5321 14.0487 16.5188C13.7554 16.5188 13.5287 16.5121 13.3687 16.4988C13.2621 16.4854 13.1754 16.4788 13.1087 16.4788C13.0021 16.4654 12.9087 16.4454 12.8287 16.4188C12.1621 16.1521 11.8354 15.4921 11.8487 14.4388C11.8487 14.1988 11.8687 13.8788 11.9087 13.4788C11.9487 13.1321 11.9687 12.9188 11.9687 12.8388C11.9687 12.4121 11.9754 11.8054 11.9887 11.0188C12.0021 10.2188 12.0154 9.71209 12.0287 9.49876C12.0421 8.19209 12.0087 7.10543 11.9287 6.23876C11.9154 6.11876 11.8887 5.95209 11.8487 5.73876C11.8487 5.69876 11.8354 5.60543 11.8087 5.45876C11.7821 5.31209 11.7554 5.19876 11.7287 5.11876C11.6221 4.50543 11.5954 4.03209 11.6487 3.69876C11.7554 3.11209 11.9821 2.69876 12.3287 2.45876C12.4354 2.39209 12.5687 2.34543 12.7287 2.31876C12.8087 2.29209 12.9087 2.27876 13.0287 2.27876C13.2287 2.25209 13.4954 2.23876 13.8287 2.23876C14.3354 2.23876 15.0421 2.25209 15.9487 2.27876C16.3621 2.29209 16.8487 2.31209 17.4087 2.33876C17.9821 2.36543 18.4487 2.38543 18.8087 2.39876C19.1821 2.41209 19.4354 2.41876 19.5687 2.41876C19.7554 2.41876 19.9154 2.49209 20.0487 2.63876C20.1954 2.77209 20.2687 2.93209 20.2687 3.11876C20.2687 3.30543 20.1954 3.47209 20.0487 3.61876C19.9154 3.75209 19.7554 3.81876 19.5687 3.81876ZM24.7637 5.01876C24.8571 5.75209 24.8837 6.67209 24.8437 7.77876C25.6437 7.79209 26.2637 7.81209 26.7037 7.83876C26.8904 7.85209 27.0504 7.93209 27.1837 8.07876C27.3171 8.22543 27.3771 8.39209 27.3637 8.57876C27.3504 8.76543 27.2704 8.92543 27.1237 9.05876C26.9771 9.19209 26.8104 9.25209 26.6237 9.23876C26.1837 9.21209 25.5704 9.18543 24.7837 9.15876C24.7704 9.39876 24.7637 9.60543 24.7637 9.77876C24.7504 10.5254 24.7637 11.5854 24.8037 12.9588C24.8571 14.3188 24.8837 15.2788 24.8837 15.8388C24.8837 16.0254 24.8104 16.1921 24.6637 16.3388C24.5304 16.4721 24.3704 16.5388 24.1837 16.5388C23.9971 16.5388 23.8304 16.4721 23.6837 16.3388C23.5504 16.1921 23.4837 16.0254 23.4837 15.8388C23.4837 15.2788 23.4571 14.3121 23.4037 12.9388C23.3637 11.5521 23.3504 10.4854 23.3637 9.73876C23.3637 9.55209 23.3704 9.34543 23.3837 9.11876C23.1704 9.11876 22.9704 9.11209 22.7837 9.09876C22.5971 9.08543 22.4371 9.01209 22.3037 8.87876C22.1704 8.73209 22.1104 8.56543 22.1237 8.37876C22.1371 8.17876 22.2104 8.01209 22.3437 7.87876C22.4904 7.74543 22.6637 7.68543 22.8637 7.69876C23.0637 7.71209 23.2571 7.71876 23.4437 7.71876C23.4837 6.70543 23.4571 5.85876 23.3637 5.17876C23.3371 4.99209 23.3837 4.82543 23.5037 4.67876C23.6237 4.51876 23.7771 4.42543 23.9637 4.39876C24.1637 4.37209 24.3371 4.41876 24.4837 4.53876C24.6437 4.65876 24.7371 4.81876 24.7637 5.01876ZM32.2731 8.21876C32.1398 8.41876 32.0531 8.59876 32.0131 8.75876C31.9731 8.91876 31.9464 9.15876 31.9331 9.47876C31.9198 9.79876 31.8931 10.0988 31.8531 10.3788C31.6264 11.8454 31.5198 12.8921 31.5331 13.5188C31.5598 14.6921 31.8464 15.5054 32.3931 15.9588C32.7264 16.2388 33.1598 16.4054 33.6931 16.4588C34.5998 16.5654 35.3598 16.1921 35.9731 15.3388C36.5598 14.5254 36.8931 13.5654 36.9731 12.4588C37.0664 11.0454 37.0131 9.94543 36.8131 9.15876C36.7598 8.97209 36.7798 8.79876 36.8731 8.63876C36.9798 8.46543 37.1264 8.35209 37.3131 8.29876C37.4998 8.24543 37.6731 8.27209 37.8331 8.37876C38.0064 8.47209 38.1198 8.61209 38.1731 8.79876C38.4131 9.74543 38.4798 10.9921 38.3731 12.5388C38.2798 13.9388 37.8598 15.1521 37.1131 16.1788C36.1664 17.4588 34.9731 18.0188 33.5331 17.8588C32.7331 17.7654 32.0598 17.4921 31.5131 17.0388C30.6331 16.3188 30.1731 15.1588 30.1331 13.5588C30.1198 12.8388 30.2264 11.7121 30.4531 10.1788C30.4664 10.0988 30.4864 9.85876 30.5131 9.45876C30.5398 9.04543 30.5931 8.68543 30.6731 8.37876C30.7531 8.07209 30.8864 7.76543 31.0731 7.45876C31.1798 7.29876 31.3264 7.19876 31.5131 7.15876C31.6998 7.11876 31.8731 7.15209 32.0331 7.25876C32.2064 7.35209 32.3131 7.49209 32.3531 7.67876C32.3931 7.86543 32.3664 8.04543 32.2731 8.21876ZM48.3283 10.8788L48.2883 10.8388L47.7683 10.2388C47.6616 10.1188 47.5216 9.99209 47.3483 9.85876C47.1883 9.72543 47.0149 9.62543 46.8283 9.55876C46.4149 9.42543 45.9683 9.37209 45.4883 9.39876C45.0216 9.41209 44.6016 9.50543 44.2283 9.67876C43.5883 9.95876 43.1216 10.3654 42.8283 10.8988C42.5349 11.4321 42.4083 11.9921 42.4483 12.5788C42.5016 13.1654 42.6949 13.7321 43.0283 14.2788C43.5349 15.1188 44.1749 15.6188 44.9483 15.7788C45.8416 15.9521 46.7349 15.6188 47.6283 14.7788C47.8816 14.5254 48.1149 14.2588 48.3283 13.9788C48.3149 12.6454 48.3149 11.6121 48.3283 10.8788ZM49.5483 1.33876C49.6683 1.89876 49.7549 2.53876 49.8083 3.25876C49.8616 3.96543 49.8816 4.55876 49.8683 5.03876C49.8683 5.51876 49.8483 6.17876 49.8083 7.01876C49.7683 7.85876 49.7483 8.43209 49.7483 8.73876C49.7216 9.80543 49.7149 11.1321 49.7283 12.7188L49.8083 12.7588C49.9816 12.8388 50.0949 12.9721 50.1483 13.1588C50.2149 13.3454 50.2016 13.5254 50.1083 13.6988C49.9883 13.9521 49.8616 14.1854 49.7283 14.3988V16.2788C49.7283 16.4654 49.6549 16.6321 49.5083 16.7788C49.3749 16.9121 49.2149 16.9788 49.0283 16.9788C48.8416 16.9788 48.6749 16.9121 48.5283 16.7788C48.3949 16.6321 48.3283 16.4654 48.3283 16.2788V16.0188C47.1549 17.0188 45.9349 17.3921 44.6683 17.1388C44.0816 17.0188 43.5416 16.7721 43.0483 16.3988C42.5549 16.0121 42.1483 15.5454 41.8283 14.9988C41.5083 14.4788 41.2883 13.9121 41.1683 13.2988C41.0483 12.6854 41.0349 12.0721 41.1283 11.4588C41.2349 10.8454 41.5016 10.2654 41.9283 9.71876C42.3549 9.17209 42.9216 8.73209 43.6283 8.39876C44.1749 8.15876 44.7749 8.02543 45.4283 7.99876C46.0949 7.97209 46.7083 8.05209 47.2683 8.23876C47.6416 8.35876 48.0016 8.55876 48.3483 8.83876V8.69876C48.3616 8.33876 48.3816 7.75209 48.4083 6.93876C48.4483 6.11209 48.4683 5.47876 48.4683 5.03876C48.4816 4.58543 48.4616 4.03876 48.4083 3.39876C48.3683 2.74543 48.2949 2.15209 48.1883 1.61876C48.1483 1.43209 48.1749 1.25876 48.2683 1.09876C48.3749 0.938759 48.5216 0.838759 48.7083 0.798759C48.9083 0.758759 49.0883 0.792092 49.2483 0.898759C49.4083 0.992092 49.5083 1.13876 49.5483 1.33876ZM54.6256 8.33876C54.6656 8.63209 54.6856 8.93876 54.6856 9.25876C54.6856 9.57876 54.6789 9.84543 54.6656 10.0588L54.5856 10.9188C54.5456 11.2654 54.5189 11.5188 54.5056 11.6788C54.4789 12.3854 54.4656 12.8854 54.4656 13.1788C54.4656 13.4588 54.4789 13.9654 54.5056 14.6988C54.5456 15.4188 54.5723 15.9388 54.5856 16.2588C54.5856 16.4588 54.5189 16.6321 54.3856 16.7788C54.2523 16.9121 54.0856 16.9788 53.8856 16.9788C53.6989 16.9788 53.5323 16.9121 53.3856 16.7788C53.2523 16.6454 53.1856 16.4854 53.1856 16.2988C53.1723 16.0321 53.1456 15.5254 53.1056 14.7788C53.0789 14.0321 53.0656 13.4988 53.0656 13.1788C53.0656 12.8588 53.0789 12.3188 53.1056 11.5588C53.1189 11.3454 53.1456 11.0721 53.1856 10.7388C53.2256 10.4054 53.2523 10.1454 53.2656 9.95876C53.2789 9.77209 53.2856 9.55209 53.2856 9.29876C53.2856 9.03209 53.2656 8.77876 53.2256 8.53876C53.1989 8.35209 53.2456 8.17876 53.3656 8.01876C53.4856 7.85876 53.6389 7.76543 53.8256 7.73876C54.0123 7.71209 54.1856 7.75876 54.3456 7.87876C54.5056 7.99876 54.5989 8.15209 54.6256 8.33876ZM53.5256 4.55876L53.4056 4.01876C53.3789 3.95209 53.3656 3.89876 53.3656 3.85876C53.3523 3.80543 53.3456 3.75876 53.3456 3.71876C53.3456 3.65209 53.3523 3.59209 53.3656 3.53876C53.4189 3.27209 53.5723 3.09876 53.8256 3.01876C54.0523 2.93876 54.2656 2.97209 54.4656 3.11876C54.5189 3.15876 54.5589 3.19876 54.5856 3.23876C54.6123 3.26543 54.6389 3.29876 54.6656 3.33876C54.6923 3.36543 54.7256 3.41876 54.7656 3.49876L55.0256 3.95876C55.1189 4.13209 55.1389 4.31209 55.0856 4.49876C55.0456 4.68543 54.9456 4.82543 54.7856 4.91876C54.7056 4.95876 54.6256 4.98543 54.5456 4.99876C54.4923 5.03876 54.4323 5.06543 54.3656 5.07876C54.1656 5.11876 53.9856 5.09209 53.8256 4.99876C53.6656 4.89209 53.5656 4.74543 53.5256 4.55876ZM64.587 11.4988C64.5737 11.4454 64.5603 11.3788 64.547 11.2988C64.4537 10.9388 64.2537 10.5721 63.947 10.1988C63.6003 9.77209 63.2137 9.46543 62.787 9.27876C62.3603 9.09209 61.9403 9.06543 61.527 9.19876C61.087 9.34543 60.7003 9.61876 60.367 10.0188C60.047 10.4054 59.8003 10.8721 59.627 11.4188C61.4537 11.2454 62.7337 11.1854 63.467 11.2388C63.5337 11.2521 63.8603 11.3321 64.447 11.4788C64.5003 11.4788 64.547 11.4854 64.587 11.4988ZM58.167 11.5388C58.3537 10.6854 58.687 9.92543 59.167 9.25876C59.6603 8.59209 60.3003 8.13209 61.087 7.87876C61.847 7.62543 62.5737 7.65209 63.267 7.95876C63.9603 8.26543 64.547 8.71209 65.027 9.29876C65.467 9.84543 65.7603 10.3988 65.907 10.9588C66.107 11.7454 65.9537 12.3188 65.447 12.6788C65.1003 12.9188 64.647 12.9721 64.087 12.8388C63.9803 12.7988 63.8737 12.7654 63.767 12.7388C63.6603 12.6988 63.5803 12.6721 63.527 12.6588C63.4737 12.6454 63.4137 12.6388 63.347 12.6388C63.147 12.5988 62.8203 12.5921 62.367 12.6188C61.9137 12.6321 61.5937 12.6454 61.407 12.6588C61.2203 12.6721 60.8937 12.7054 60.427 12.7588C59.9603 12.7988 59.6203 12.8321 59.407 12.8588V13.2588C59.4603 14.1921 59.7003 14.9254 60.127 15.4588C60.5537 15.9788 61.107 16.1988 61.787 16.1188C62.3603 16.0521 62.807 15.9121 63.127 15.6988C63.4203 15.4988 63.727 15.1454 64.047 14.6388C64.1537 14.4654 64.3003 14.3588 64.487 14.3188C64.6737 14.2788 64.847 14.3121 65.007 14.4188C65.1803 14.5121 65.287 14.6521 65.327 14.8388C65.367 15.0254 65.3403 15.1988 65.247 15.3588C64.8337 16.0521 64.3803 16.5654 63.887 16.8988C63.3937 17.2188 62.747 17.4254 61.947 17.5188C61.3203 17.5854 60.7537 17.5054 60.247 17.2788C59.7403 17.0654 59.3337 16.7454 59.027 16.3188C58.7203 15.8921 58.4803 15.4254 58.307 14.9188C58.147 14.4121 58.0537 13.8854 58.027 13.3388C58.0137 13.1654 58.007 12.9921 58.007 12.8188C57.7937 12.6854 57.6803 12.4921 57.667 12.2388C57.667 12.0788 57.7137 11.9388 57.807 11.8188C57.9003 11.6854 58.0203 11.5921 58.167 11.5388ZM73.7069 9.69876C73.0935 9.35209 72.5669 9.22543 72.1269 9.31876C71.7802 9.39876 71.4669 9.64543 71.1869 10.0588C70.9335 10.4188 70.7335 10.8788 70.5869 11.4388C70.5735 11.5188 70.5669 11.5921 70.5669 11.6588C70.5269 12.2721 70.4869 12.6588 70.4469 12.8188V13.7188V13.9788V14.5388C70.4469 14.7788 70.4535 14.9921 70.4669 15.1788V16.1188C70.4669 16.2521 70.4602 16.3588 70.4469 16.4388V16.5588V16.6388C70.4335 16.6788 70.4269 16.7121 70.4269 16.7388C70.4002 16.8721 70.3135 16.9921 70.1669 17.0988C69.9802 17.2454 69.7735 17.2921 69.5469 17.2388C69.3069 17.1988 69.1335 17.0654 69.0269 16.8388C68.9602 16.7188 68.9202 16.5588 68.9069 16.3588V16.0588V15.8988C68.8802 15.5654 68.8735 14.7654 68.8869 13.4988C68.9002 12.7121 69.0002 11.9521 69.1869 11.2188C69.2135 10.7121 69.2269 9.73209 69.2269 8.27876C69.2269 8.09209 69.2935 7.93209 69.4269 7.79876C69.5735 7.65209 69.7402 7.57876 69.9269 7.57876C70.1135 7.57876 70.2735 7.65209 70.4069 7.79876C70.5535 7.93209 70.6269 8.09209 70.6269 8.27876V8.57876C70.9869 8.27209 71.3869 8.06543 71.8269 7.95876C72.6135 7.78543 73.4669 7.96543 74.3869 8.49876C74.5602 8.59209 74.6735 8.73209 74.7269 8.91876C74.7802 9.10543 74.7535 9.28543 74.6469 9.45876C74.5535 9.61876 74.4135 9.72543 74.2269 9.77876C74.0402 9.83209 73.8669 9.80543 73.7069 9.69876ZM85.232 0.938759C85.2987 1.31209 85.3453 1.73209 85.372 2.19876C85.3987 2.66543 85.412 3.05876 85.412 3.37876C85.412 3.69876 85.3987 4.12543 85.372 4.65876C85.3587 5.17876 85.352 5.54543 85.352 5.75876C85.2987 10.6654 85.1653 14.3721 84.952 16.8788C84.9387 17.0654 84.8587 17.2188 84.712 17.3388C84.5653 17.4721 84.392 17.5321 84.192 17.5188C84.0053 17.5054 83.8453 17.4254 83.712 17.2788C83.592 17.1321 83.5387 16.9588 83.552 16.7588C83.7653 14.2788 83.8987 10.6121 83.952 5.75876C83.952 5.49209 83.9587 5.10543 83.972 4.59876C83.9987 4.07876 84.012 3.67209 84.012 3.37876C84.012 3.07209 83.9987 2.71209 83.972 2.29876C83.9587 1.88543 83.9253 1.51209 83.872 1.17876C83.832 0.992093 83.8653 0.818759 83.972 0.658759C84.092 0.498759 84.2453 0.405425 84.432 0.378759C84.6187 0.338759 84.792 0.378759 84.952 0.498759C85.112 0.605425 85.2053 0.752092 85.232 0.938759ZM95.5605 11.2188C95.4538 11.1654 95.3605 11.0988 95.2805 11.0188C94.7738 10.4188 94.2671 9.96543 93.7605 9.65876C93.0138 9.19209 92.3138 9.12543 91.6605 9.45876C91.0205 9.79209 90.5338 10.3921 90.2005 11.2588C90.0005 11.8454 89.9005 12.4121 89.9005 12.9588C89.9138 13.5054 90.0738 14.0121 90.3805 14.4788C90.7005 14.9321 91.1405 15.2588 91.7005 15.4588C92.3671 15.6988 93.0005 15.6788 93.6005 15.3988C94.0938 15.1721 94.7338 14.6721 95.5205 13.8988C95.5071 13.2588 95.5205 12.3654 95.5605 11.2188ZM97.0005 8.07876C97.0138 8.75876 97.0005 9.81876 96.9605 11.2588C96.9205 12.6454 96.9138 13.6788 96.9405 14.3588C96.9538 14.5854 96.9871 14.9454 97.0405 15.4388C97.0805 15.9588 97.1071 16.3588 97.1205 16.6388C97.1205 16.8388 97.0538 17.0054 96.9205 17.1388C96.7871 17.2854 96.6205 17.3588 96.4205 17.3588C96.2338 17.3588 96.0671 17.2921 95.9205 17.1588C95.7871 17.0254 95.7205 16.8654 95.7205 16.6788C95.7205 16.4254 95.6938 16.0988 95.6405 15.6988C95.1205 16.1521 94.6405 16.4788 94.2005 16.6788C93.2405 17.1188 92.2471 17.1521 91.2205 16.7788C90.5538 16.5388 90.0005 16.1854 89.5605 15.7188C89.1338 15.2388 88.8471 14.7188 88.7005 14.1588C88.5538 13.5988 88.4938 13.0254 88.5205 12.4388C88.5605 11.8521 88.6805 11.2921 88.8805 10.7588C89.3471 9.55876 90.0605 8.71209 91.0205 8.21876C92.1538 7.63209 93.3205 7.71209 94.5205 8.45876C94.8938 8.69876 95.2538 8.98543 95.6005 9.31876C95.6138 8.89209 95.6138 8.49209 95.6005 8.11876C95.6005 7.91876 95.6671 7.75209 95.8005 7.61876C95.9338 7.47209 96.0938 7.39876 96.2805 7.39876C96.4805 7.39876 96.6471 7.46543 96.7805 7.59876C96.9271 7.73209 97.0005 7.89209 97.0005 8.07876ZM112.855 10.1988C112.309 9.81209 111.702 9.58543 111.035 9.51876C109.849 9.38543 108.929 9.58543 108.275 10.1188C107.609 10.6521 107.235 11.5121 107.155 12.6988C107.142 12.9521 107.142 13.2388 107.155 13.5588C107.169 13.9054 107.202 14.1388 107.255 14.2588C107.455 14.7388 107.782 15.1588 108.235 15.5188C108.689 15.8788 109.195 16.1321 109.755 16.2788C110.275 16.4254 110.769 16.4321 111.235 16.2988C111.715 16.1521 112.095 15.8654 112.375 15.4388C112.469 15.2788 112.609 15.1788 112.795 15.1388C112.995 15.0988 113.175 15.1321 113.335 15.2388C113.495 15.3321 113.595 15.4788 113.635 15.6788C113.675 15.8654 113.642 16.0388 113.535 16.1988C113.082 16.9188 112.475 17.3854 111.715 17.5988C110.969 17.8254 110.195 17.8388 109.395 17.6388C108.649 17.4521 107.962 17.1054 107.335 16.5988C106.709 16.0921 106.255 15.4988 105.975 14.8188C105.855 14.5388 105.782 14.1454 105.755 13.6388C105.729 13.2788 105.729 12.9388 105.755 12.6188C105.862 11.0188 106.409 9.81876 107.395 9.01876C108.355 8.24543 109.622 7.94543 111.195 8.11876C112.075 8.22543 112.895 8.53209 113.655 9.03876C113.815 9.14543 113.909 9.29876 113.935 9.49876C113.975 9.68543 113.942 9.85876 113.835 10.0188C113.729 10.1788 113.575 10.2788 113.375 10.3188C113.189 10.3454 113.015 10.3054 112.855 10.1988ZM120.875 15.7588C120.955 15.7188 121.042 15.6988 121.135 15.6988C122.055 15.6854 122.795 15.3788 123.355 14.7788C123.915 14.1654 124.235 13.4321 124.315 12.5788C124.395 11.7654 124.242 11.0921 123.855 10.5588C123.442 9.99876 122.835 9.73209 122.035 9.75876C120.395 9.81209 119.315 10.0721 118.795 10.5388C118.222 11.0588 118.115 12.0254 118.475 13.4388C118.728 14.4521 119.108 15.1121 119.615 15.4188C119.922 15.6188 120.342 15.7321 120.875 15.7588ZM122.095 17.1388C120.682 17.2454 119.608 17.0721 118.875 16.6188C118.048 16.1121 117.462 15.1721 117.115 13.7988C116.608 11.8254 116.855 10.3921 117.855 9.49876C118.642 8.79209 120.022 8.41209 121.995 8.35876C123.288 8.31876 124.282 8.77209 124.975 9.71876C125.588 10.5454 125.835 11.5454 125.715 12.7188C125.622 13.6254 125.302 14.4654 124.755 15.2388C124.222 16.0121 123.502 16.5521 122.595 16.8588C122.462 17.0321 122.295 17.1254 122.095 17.1388ZM129.092 16.4188C128.999 15.6321 128.939 14.8388 128.912 14.0388C128.899 13.2388 128.899 12.2321 128.912 11.0188C128.939 9.80543 128.952 9.03876 128.952 8.71876C128.952 8.53209 129.019 8.37209 129.152 8.23876C129.299 8.09209 129.466 8.01876 129.652 8.01876C129.839 8.01876 129.999 8.07876 130.132 8.19876C130.266 8.31876 130.339 8.47209 130.352 8.65876C131.086 8.07209 131.932 7.82543 132.892 7.91876C133.906 8.02543 134.652 8.53209 135.132 9.43876C135.426 8.86543 135.799 8.41876 136.252 8.09876C136.706 7.76543 137.199 7.59209 137.732 7.57876C138.359 7.56543 138.946 7.76543 139.492 8.17876C140.026 8.59209 140.452 9.16543 140.772 9.89876C141.026 10.4721 141.179 11.4054 141.232 12.6988C141.259 13.2988 141.226 14.4521 141.132 16.1588C141.119 16.3454 141.039 16.5054 140.892 16.6388C140.759 16.7721 140.592 16.8321 140.392 16.8188C140.206 16.8054 140.046 16.7321 139.912 16.5988C139.779 16.4521 139.719 16.2788 139.732 16.0788C139.826 14.3988 139.859 13.2854 139.832 12.7388C139.792 11.6454 139.679 10.8854 139.492 10.4588C139.266 9.93876 138.992 9.56543 138.672 9.33876C138.352 9.09876 138.046 8.97876 137.752 8.97876C137.472 8.97876 137.186 9.10543 136.892 9.35876C136.599 9.61209 136.359 10.0121 136.172 10.5588C136.092 10.7854 136.026 11.0388 135.972 11.3188C135.919 11.5988 135.886 11.8321 135.872 12.0188C135.859 12.2054 135.839 12.4988 135.812 12.8988L135.732 13.7188V15.1188C135.719 15.4521 135.712 15.7121 135.712 15.8988C135.699 16.0054 135.692 16.0921 135.692 16.1588C135.679 16.2121 135.672 16.2588 135.672 16.2988C135.659 16.3521 135.639 16.3988 135.612 16.4388C135.586 16.5188 135.552 16.5854 135.512 16.6388C135.366 16.7988 135.186 16.8788 134.972 16.8788C134.732 16.8788 134.546 16.7854 134.412 16.5988C134.359 16.5321 134.326 16.4654 134.312 16.3988C134.286 16.3588 134.272 16.3121 134.272 16.2588C134.259 16.2188 134.252 16.1654 134.252 16.0988V15.7988C134.252 15.5988 134.259 15.3254 134.272 14.9788L134.332 13.6588V13.5388C134.332 12.1388 134.266 11.1854 134.132 10.6788C134.012 10.2521 133.846 9.93209 133.632 9.71876C133.419 9.49209 133.119 9.35876 132.732 9.31876C132.319 9.27876 131.959 9.33209 131.652 9.47876C131.359 9.62543 131.032 9.89209 130.672 10.2788C130.579 10.3854 130.466 10.4588 130.332 10.4988C130.292 13.1121 130.346 15.0321 130.492 16.2588C130.506 16.4454 130.452 16.6188 130.332 16.7788C130.226 16.9254 130.072 17.0054 129.872 17.0188C129.686 17.0454 129.512 17.0054 129.352 16.8988C129.206 16.7788 129.119 16.6188 129.092 16.4188ZM144.6 16.4188C144.507 15.6321 144.447 14.8388 144.42 14.0388C144.407 13.2388 144.407 12.2321 144.42 11.0188C144.447 9.80543 144.46 9.03876 144.46 8.71876C144.46 8.53209 144.527 8.37209 144.66 8.23876C144.807 8.09209 144.974 8.01876 145.16 8.01876C145.347 8.01876 145.507 8.07876 145.64 8.19876C145.774 8.31876 145.847 8.47209 145.86 8.65876C146.594 8.07209 147.44 7.82543 148.4 7.91876C149.414 8.02543 150.16 8.53209 150.64 9.43876C150.934 8.86543 151.307 8.41876 151.76 8.09876C152.214 7.76543 152.707 7.59209 153.24 7.57876C153.867 7.56543 154.454 7.76543 155 8.17876C155.534 8.59209 155.96 9.16543 156.28 9.89876C156.534 10.4721 156.687 11.4054 156.74 12.6988C156.767 13.2988 156.734 14.4521 156.64 16.1588C156.627 16.3454 156.547 16.5054 156.4 16.6388C156.267 16.7721 156.1 16.8321 155.9 16.8188C155.714 16.8054 155.554 16.7321 155.42 16.5988C155.287 16.4521 155.227 16.2788 155.24 16.0788C155.334 14.3988 155.367 13.2854 155.34 12.7388C155.3 11.6454 155.187 10.8854 155 10.4588C154.774 9.93876 154.5 9.56543 154.18 9.33876C153.86 9.09876 153.554 8.97876 153.26 8.97876C152.98 8.97876 152.694 9.10543 152.4 9.35876C152.107 9.61209 151.867 10.0121 151.68 10.5588C151.6 10.7854 151.534 11.0388 151.48 11.3188C151.427 11.5988 151.394 11.8321 151.38 12.0188C151.367 12.2054 151.347 12.4988 151.32 12.8988L151.24 13.7188V15.1188C151.227 15.4521 151.22 15.7121 151.22 15.8988C151.207 16.0054 151.2 16.0921 151.2 16.1588C151.187 16.2121 151.18 16.2588 151.18 16.2988C151.167 16.3521 151.147 16.3988 151.12 16.4388C151.094 16.5188 151.06 16.5854 151.02 16.6388C150.874 16.7988 150.694 16.8788 150.48 16.8788C150.24 16.8788 150.054 16.7854 149.92 16.5988C149.867 16.5321 149.834 16.4654 149.82 16.3988C149.794 16.3588 149.78 16.3121 149.78 16.2588C149.767 16.2188 149.76 16.1654 149.76 16.0988V15.7988C149.76 15.5988 149.767 15.3254 149.78 14.9788L149.84 13.6588V13.5388C149.84 12.1388 149.774 11.1854 149.64 10.6788C149.52 10.2521 149.354 9.93209 149.14 9.71876C148.927 9.49209 148.627 9.35876 148.24 9.31876C147.827 9.27876 147.467 9.33209 147.16 9.47876C146.867 9.62543 146.54 9.89209 146.18 10.2788C146.087 10.3854 145.974 10.4588 145.84 10.4988C145.8 13.1121 145.854 15.0321 146 16.2588C146.014 16.4454 145.96 16.6188 145.84 16.7788C145.734 16.9254 145.58 17.0054 145.38 17.0188C145.194 17.0454 145.02 17.0054 144.86 16.8988C144.714 16.7788 144.627 16.6188 144.6 16.4188ZM161.648 8.21876C161.515 8.41876 161.428 8.59876 161.388 8.75876C161.348 8.91876 161.321 9.15876 161.308 9.47876C161.295 9.79876 161.268 10.0988 161.228 10.3788C161.001 11.8454 160.895 12.8921 160.908 13.5188C160.935 14.6921 161.221 15.5054 161.768 15.9588C162.101 16.2388 162.535 16.4054 163.068 16.4588C163.975 16.5654 164.735 16.1921 165.348 15.3388C165.935 14.5254 166.268 13.5654 166.348 12.4588C166.441 11.0454 166.388 9.94543 166.188 9.15876C166.135 8.97209 166.155 8.79876 166.248 8.63876C166.355 8.46543 166.501 8.35209 166.688 8.29876C166.875 8.24543 167.048 8.27209 167.208 8.37876C167.381 8.47209 167.495 8.61209 167.548 8.79876C167.788 9.74543 167.855 10.9921 167.748 12.5388C167.655 13.9388 167.235 15.1521 166.488 16.1788C165.541 17.4588 164.348 18.0188 162.908 17.8588C162.108 17.7654 161.435 17.4921 160.888 17.0388C160.008 16.3188 159.548 15.1588 159.508 13.5588C159.495 12.8388 159.601 11.7121 159.828 10.1788C159.841 10.0988 159.861 9.85876 159.888 9.45876C159.915 9.04543 159.968 8.68543 160.048 8.37876C160.128 8.07209 160.261 7.76543 160.448 7.45876C160.555 7.29876 160.701 7.19876 160.888 7.15876C161.075 7.11876 161.248 7.15209 161.408 7.25876C161.581 7.35209 161.688 7.49209 161.728 7.67876C161.768 7.86543 161.741 8.04543 161.648 8.21876ZM171.003 16.7188C171.003 13.3854 171.097 10.6188 171.283 8.41876C171.297 8.23209 171.377 8.07876 171.523 7.95876C171.683 7.82543 171.857 7.76543 172.043 7.77876C172.23 7.79209 172.383 7.87876 172.503 8.03876C172.637 8.18543 172.697 8.35209 172.683 8.53876L172.643 9.09876C173.177 8.57876 173.75 8.21876 174.363 8.01876C174.803 7.88543 175.23 7.83209 175.643 7.85876C176.07 7.88543 176.483 8.03876 176.883 8.31876C177.283 8.58543 177.637 8.96543 177.943 9.45876C178.49 10.3521 178.79 11.5588 178.843 13.0788C178.857 13.4921 178.85 14.1054 178.823 14.9188C178.797 15.7988 178.783 16.3454 178.783 16.5588C178.783 16.7454 178.71 16.9054 178.563 17.0388C178.43 17.1854 178.27 17.2588 178.083 17.2588C177.897 17.2588 177.73 17.1854 177.583 17.0388C177.45 16.9054 177.383 16.7454 177.383 16.5588C177.383 16.3188 177.397 15.7521 177.423 14.8588C177.45 14.0588 177.457 13.4854 177.443 13.1388C177.39 11.8454 177.157 10.8588 176.743 10.1788C176.237 9.35209 175.59 9.07209 174.803 9.33876C174.43 9.45876 174.063 9.68543 173.703 10.0188C173.343 10.3521 173.05 10.7321 172.823 11.1588C172.743 11.2921 172.637 11.3921 172.503 11.4588C172.437 12.9121 172.403 14.6654 172.403 16.7188C172.403 16.9054 172.33 17.0654 172.183 17.1988C172.05 17.3454 171.89 17.4188 171.703 17.4188C171.517 17.4188 171.35 17.3454 171.203 17.1988C171.07 17.0654 171.003 16.9054 171.003 16.7188ZM183.278 8.33876C183.318 8.63209 183.338 8.93876 183.338 9.25876C183.338 9.57876 183.331 9.84543 183.318 10.0588L183.238 10.9188C183.198 11.2654 183.171 11.5188 183.158 11.6788C183.131 12.3854 183.118 12.8854 183.118 13.1788C183.118 13.4588 183.131 13.9654 183.158 14.6988C183.198 15.4188 183.225 15.9388 183.238 16.2588C183.238 16.4588 183.171 16.6321 183.038 16.7788C182.905 16.9121 182.738 16.9788 182.538 16.9788C182.351 16.9788 182.185 16.9121 182.038 16.7788C181.905 16.6454 181.838 16.4854 181.838 16.2988C181.825 16.0321 181.798 15.5254 181.758 14.7788C181.731 14.0321 181.718 13.4988 181.718 13.1788C181.718 12.8588 181.731 12.3188 181.758 11.5588C181.771 11.3454 181.798 11.0721 181.838 10.7388C181.878 10.4054 181.905 10.1454 181.918 9.95876C181.931 9.77209 181.938 9.55209 181.938 9.29876C181.938 9.03209 181.918 8.77876 181.878 8.53876C181.851 8.35209 181.898 8.17876 182.018 8.01876C182.138 7.85876 182.291 7.76543 182.478 7.73876C182.665 7.71209 182.838 7.75876 182.998 7.87876C183.158 7.99876 183.251 8.15209 183.278 8.33876ZM182.178 4.55876L182.058 4.01876C182.031 3.95209 182.018 3.89876 182.018 3.85876C182.005 3.80543 181.998 3.75876 181.998 3.71876C181.998 3.65209 182.005 3.59209 182.018 3.53876C182.071 3.27209 182.225 3.09876 182.478 3.01876C182.705 2.93876 182.918 2.97209 183.118 3.11876C183.171 3.15876 183.211 3.19876 183.238 3.23876C183.265 3.26543 183.291 3.29876 183.318 3.33876C183.345 3.36543 183.378 3.41876 183.418 3.49876L183.678 3.95876C183.771 4.13209 183.791 4.31209 183.738 4.49876C183.698 4.68543 183.598 4.82543 183.438 4.91876C183.358 4.95876 183.278 4.98543 183.198 4.99876C183.145 5.03876 183.085 5.06543 183.018 5.07876C182.818 5.11876 182.638 5.09209 182.478 4.99876C182.318 4.89209 182.218 4.74543 182.178 4.55876ZM193.519 10.1988C192.973 9.81209 192.366 9.58543 191.699 9.51876C190.513 9.38543 189.593 9.58543 188.939 10.1188C188.273 10.6521 187.899 11.5121 187.819 12.6988C187.806 12.9521 187.806 13.2388 187.819 13.5588C187.833 13.9054 187.866 14.1388 187.919 14.2588C188.119 14.7388 188.446 15.1588 188.899 15.5188C189.353 15.8788 189.859 16.1321 190.419 16.2788C190.939 16.4254 191.433 16.4321 191.899 16.2988C192.379 16.1521 192.759 15.8654 193.039 15.4388C193.133 15.2788 193.273 15.1788 193.459 15.1388C193.659 15.0988 193.839 15.1321 193.999 15.2388C194.159 15.3321 194.259 15.4788 194.299 15.6788C194.339 15.8654 194.306 16.0388 194.199 16.1988C193.746 16.9188 193.139 17.3854 192.379 17.5988C191.633 17.8254 190.859 17.8388 190.059 17.6388C189.313 17.4521 188.626 17.1054 187.999 16.5988C187.373 16.0921 186.919 15.4988 186.639 14.8188C186.519 14.5388 186.446 14.1454 186.419 13.6388C186.393 13.2788 186.393 12.9388 186.419 12.6188C186.526 11.0188 187.073 9.81876 188.059 9.01876C189.019 8.24543 190.286 7.94543 191.859 8.11876C192.739 8.22543 193.559 8.53209 194.319 9.03876C194.479 9.14543 194.573 9.29876 194.599 9.49876C194.639 9.68543 194.606 9.85876 194.499 10.0188C194.393 10.1788 194.239 10.2788 194.039 10.3188C193.853 10.3454 193.679 10.3054 193.519 10.1988ZM204.779 11.2188C204.673 11.1654 204.579 11.0988 204.499 11.0188C203.993 10.4188 203.486 9.96543 202.979 9.65876C202.233 9.19209 201.533 9.12543 200.879 9.45876C200.239 9.79209 199.753 10.3921 199.419 11.2588C199.219 11.8454 199.119 12.4121 199.119 12.9588C199.133 13.5054 199.293 14.0121 199.599 14.4788C199.919 14.9321 200.359 15.2588 200.919 15.4588C201.586 15.6988 202.219 15.6788 202.819 15.3988C203.313 15.1721 203.953 14.6721 204.739 13.8988C204.726 13.2588 204.739 12.3654 204.779 11.2188ZM206.219 8.07876C206.233 8.75876 206.219 9.81876 206.179 11.2588C206.139 12.6454 206.133 13.6788 206.159 14.3588C206.173 14.5854 206.206 14.9454 206.259 15.4388C206.299 15.9588 206.326 16.3588 206.339 16.6388C206.339 16.8388 206.273 17.0054 206.139 17.1388C206.006 17.2854 205.839 17.3588 205.639 17.3588C205.453 17.3588 205.286 17.2921 205.139 17.1588C205.006 17.0254 204.939 16.8654 204.939 16.6788C204.939 16.4254 204.913 16.0988 204.859 15.6988C204.339 16.1521 203.859 16.4788 203.419 16.6788C202.459 17.1188 201.466 17.1521 200.439 16.7788C199.773 16.5388 199.219 16.1854 198.779 15.7188C198.353 15.2388 198.066 14.7188 197.919 14.1588C197.773 13.5988 197.713 13.0254 197.739 12.4388C197.779 11.8521 197.899 11.2921 198.099 10.7588C198.566 9.55876 199.279 8.71209 200.239 8.21876C201.373 7.63209 202.539 7.71209 203.739 8.45876C204.113 8.69876 204.473 8.98543 204.819 9.31876C204.833 8.89209 204.833 8.49209 204.819 8.11876C204.819 7.91876 204.886 7.75209 205.019 7.61876C205.153 7.47209 205.313 7.39876 205.499 7.39876C205.699 7.39876 205.866 7.46543 205.999 7.59876C206.146 7.73209 206.219 7.89209 206.219 8.07876ZM210.838 5.01876C210.931 5.75209 210.958 6.67209 210.918 7.77876C211.718 7.79209 212.338 7.81209 212.778 7.83876C212.965 7.85209 213.125 7.93209 213.258 8.07876C213.391 8.22543 213.451 8.39209 213.438 8.57876C213.425 8.76543 213.345 8.92543 213.198 9.05876C213.051 9.19209 212.885 9.25209 212.698 9.23876C212.258 9.21209 211.645 9.18543 210.858 9.15876C210.845 9.39876 210.838 9.60543 210.838 9.77876C210.825 10.5254 210.838 11.5854 210.878 12.9588C210.931 14.3188 210.958 15.2788 210.958 15.8388C210.958 16.0254 210.885 16.1921 210.738 16.3388C210.605 16.4721 210.445 16.5388 210.258 16.5388C210.071 16.5388 209.905 16.4721 209.758 16.3388C209.625 16.1921 209.558 16.0254 209.558 15.8388C209.558 15.2788 209.531 14.3121 209.478 12.9388C209.438 11.5521 209.425 10.4854 209.438 9.73876C209.438 9.55209 209.445 9.34543 209.458 9.11876C209.245 9.11876 209.045 9.11209 208.858 9.09876C208.671 9.08543 208.511 9.01209 208.378 8.87876C208.245 8.73209 208.185 8.56543 208.198 8.37876C208.211 8.17876 208.285 8.01209 208.418 7.87876C208.565 7.74543 208.738 7.68543 208.938 7.69876C209.138 7.71209 209.331 7.71876 209.518 7.71876C209.558 6.70543 209.531 5.85876 209.438 5.17876C209.411 4.99209 209.458 4.82543 209.578 4.67876C209.698 4.51876 209.851 4.42543 210.038 4.39876C210.238 4.37209 210.411 4.41876 210.558 4.53876C210.718 4.65876 210.811 4.81876 210.838 5.01876ZM217.887 8.33876C217.927 8.63209 217.947 8.93876 217.947 9.25876C217.947 9.57876 217.941 9.84543 217.927 10.0588L217.847 10.9188C217.807 11.2654 217.781 11.5188 217.767 11.6788C217.741 12.3854 217.727 12.8854 217.727 13.1788C217.727 13.4588 217.741 13.9654 217.767 14.6988C217.807 15.4188 217.834 15.9388 217.847 16.2588C217.847 16.4588 217.781 16.6321 217.647 16.7788C217.514 16.9121 217.347 16.9788 217.147 16.9788C216.961 16.9788 216.794 16.9121 216.647 16.7788C216.514 16.6454 216.447 16.4854 216.447 16.2988C216.434 16.0321 216.407 15.5254 216.367 14.7788C216.341 14.0321 216.327 13.4988 216.327 13.1788C216.327 12.8588 216.341 12.3188 216.367 11.5588C216.381 11.3454 216.407 11.0721 216.447 10.7388C216.487 10.4054 216.514 10.1454 216.527 9.95876C216.541 9.77209 216.547 9.55209 216.547 9.29876C216.547 9.03209 216.527 8.77876 216.487 8.53876C216.461 8.35209 216.507 8.17876 216.627 8.01876C216.747 7.85876 216.901 7.76543 217.087 7.73876C217.274 7.71209 217.447 7.75876 217.607 7.87876C217.767 7.99876 217.861 8.15209 217.887 8.33876ZM216.787 4.55876L216.667 4.01876C216.641 3.95209 216.627 3.89876 216.627 3.85876C216.614 3.80543 216.607 3.75876 216.607 3.71876C216.607 3.65209 216.614 3.59209 216.627 3.53876C216.681 3.27209 216.834 3.09876 217.087 3.01876C217.314 2.93876 217.527 2.97209 217.727 3.11876C217.781 3.15876 217.821 3.19876 217.847 3.23876C217.874 3.26543 217.901 3.29876 217.927 3.33876C217.954 3.36543 217.987 3.41876 218.027 3.49876L218.287 3.95876C218.381 4.13209 218.401 4.31209 218.347 4.49876C218.307 4.68543 218.207 4.82543 218.047 4.91876C217.967 4.95876 217.887 4.98543 217.807 4.99876C217.754 5.03876 217.694 5.06543 217.627 5.07876C217.427 5.11876 217.247 5.09209 217.087 4.99876C216.927 4.89209 216.827 4.74543 216.787 4.55876ZM225.309 15.7588C225.389 15.7188 225.475 15.6988 225.569 15.6988C226.489 15.6854 227.229 15.3788 227.789 14.7788C228.349 14.1654 228.669 13.4321 228.749 12.5788C228.829 11.7654 228.675 11.0921 228.289 10.5588C227.875 9.99876 227.269 9.73209 226.469 9.75876C224.829 9.81209 223.749 10.0721 223.229 10.5388C222.655 11.0588 222.549 12.0254 222.909 13.4388C223.162 14.4521 223.542 15.1121 224.049 15.4188C224.355 15.6188 224.775 15.7321 225.309 15.7588ZM226.529 17.1388C225.115 17.2454 224.042 17.0721 223.309 16.6188C222.482 16.1121 221.895 15.1721 221.549 13.7988C221.042 11.8254 221.289 10.3921 222.289 9.49876C223.075 8.79209 224.455 8.41209 226.429 8.35876C227.722 8.31876 228.715 8.77209 229.409 9.71876C230.022 10.5454 230.269 11.5454 230.149 12.7188C230.055 13.6254 229.735 14.4654 229.189 15.2388C228.655 16.0121 227.935 16.5521 227.029 16.8588C226.895 17.0321 226.729 17.1254 226.529 17.1388ZM233.386 16.7188C233.386 13.3854 233.479 10.6188 233.666 8.41876C233.679 8.23209 233.759 8.07876 233.906 7.95876C234.066 7.82543 234.239 7.76543 234.426 7.77876C234.613 7.79209 234.766 7.87876 234.886 8.03876C235.019 8.18543 235.079 8.35209 235.066 8.53876L235.026 9.09876C235.559 8.57876 236.133 8.21876 236.746 8.01876C237.186 7.88543 237.613 7.83209 238.026 7.85876C238.453 7.88543 238.866 8.03876 239.266 8.31876C239.666 8.58543 240.019 8.96543 240.326 9.45876C240.873 10.3521 241.173 11.5588 241.226 13.0788C241.239 13.4921 241.233 14.1054 241.206 14.9188C241.179 15.7988 241.166 16.3454 241.166 16.5588C241.166 16.7454 241.093 16.9054 240.946 17.0388C240.813 17.1854 240.653 17.2588 240.466 17.2588C240.279 17.2588 240.113 17.1854 239.966 17.0388C239.833 16.9054 239.766 16.7454 239.766 16.5588C239.766 16.3188 239.779 15.7521 239.806 14.8588C239.833 14.0588 239.839 13.4854 239.826 13.1388C239.773 11.8454 239.539 10.8588 239.126 10.1788C238.619 9.35209 237.973 9.07209 237.186 9.33876C236.813 9.45876 236.446 9.68543 236.086 10.0188C235.726 10.3521 235.433 10.7321 235.206 11.1588C235.126 11.2921 235.019 11.3921 234.886 11.4588C234.819 12.9121 234.786 14.6654 234.786 16.7188C234.786 16.9054 234.713 17.0654 234.566 17.1988C234.433 17.3454 234.273 17.4188 234.086 17.4188C233.899 17.4188 233.733 17.3454 233.586 17.1988C233.453 17.0654 233.386 16.9054 233.386 16.7188ZM257.537 10.1988C256.87 9.79876 256.257 9.53209 255.697 9.39876C254.377 9.07876 253.437 9.04543 252.877 9.29876C252.264 9.56543 251.837 10.2854 251.597 11.4588C251.41 12.3921 251.37 13.1388 251.477 13.6988C251.61 14.5388 251.984 15.2054 252.597 15.6988C253.224 16.1921 253.917 16.4054 254.677 16.3388C255.45 16.2588 256.104 15.8988 256.637 15.2588L256.657 15.2388C256.67 15.2254 256.684 15.2054 256.697 15.1788L256.777 15.0588C256.804 15.0054 256.837 14.9521 256.877 14.8988C256.917 14.8321 256.957 14.7654 256.997 14.6988L257.357 14.0988C257.397 12.9921 257.45 11.8654 257.517 10.7188C257.53 10.5588 257.537 10.3854 257.537 10.1988ZM253.377 2.57876C253.537 2.80543 253.724 3.05209 253.937 3.31876C254.164 3.58543 254.364 3.80543 254.537 3.97876L255.217 4.69876L255.877 5.39876C256.01 5.54543 256.07 5.71876 256.057 5.91876C256.044 6.10543 255.964 6.26543 255.817 6.39876C255.684 6.53209 255.517 6.59209 255.317 6.57876C255.13 6.56543 254.97 6.49209 254.837 6.35876C254.717 6.21209 254.504 5.98543 254.197 5.67876C253.904 5.37209 253.67 5.12543 253.497 4.93876L252.857 4.21876C252.617 3.92543 252.404 3.64543 252.217 3.37876C252.11 3.21876 252.07 3.04543 252.097 2.85876C252.137 2.67209 252.237 2.52543 252.397 2.41876C252.557 2.29876 252.73 2.25876 252.917 2.29876C253.104 2.32543 253.257 2.41876 253.377 2.57876ZM258.977 8.35876C258.95 8.62543 258.937 8.97876 258.937 9.41876L259.097 9.53876C259.257 9.64543 259.357 9.79209 259.397 9.97876C259.437 10.1654 259.404 10.3388 259.297 10.4988C259.204 10.6454 259.077 10.7454 258.917 10.7988C258.784 12.9721 258.717 15.0721 258.717 17.0988C258.717 17.2854 258.644 17.4454 258.497 17.5788C258.364 17.7254 258.204 17.7988 258.017 17.7988C257.83 17.7988 257.664 17.7254 257.517 17.5788C257.384 17.4454 257.317 17.2854 257.317 17.0988V16.5788C256.69 17.1654 255.977 17.5254 255.177 17.6588C254.377 17.8054 253.63 17.7454 252.937 17.4788C252.244 17.2121 251.63 16.7654 251.097 16.1388C250.564 15.5121 250.224 14.7788 250.077 13.9388C249.957 13.2188 250.01 12.2988 250.237 11.1788C250.57 9.53876 251.257 8.48543 252.297 8.01876C253.164 7.64543 254.404 7.65209 256.017 8.03876C256.524 8.15876 257.037 8.34543 257.557 8.59876C257.557 8.46543 257.564 8.33209 257.577 8.19876C257.604 8.01209 257.69 7.85876 257.837 7.73876C257.984 7.61876 258.15 7.57209 258.337 7.59876C258.537 7.61209 258.697 7.69209 258.817 7.83876C258.937 7.98543 258.99 8.15876 258.977 8.35876ZM278.94 4.93876C278.3 4.16543 277.273 3.76543 275.86 3.73876C274.447 3.71209 273.207 4.13876 272.14 5.01876C271.1 5.89876 270.367 7.01876 269.94 8.37876C269.74 9.03209 269.64 9.67876 269.64 10.3188C269.64 10.9721 269.733 11.5921 269.92 12.1788C270.107 12.7654 270.413 13.3121 270.84 13.8188C271.267 14.3254 271.793 14.7388 272.42 15.0588C273.353 15.5388 274.453 15.7854 275.72 15.7988C275.88 15.7988 276.033 15.7921 276.18 15.7788C276.327 15.7521 276.453 15.7254 276.56 15.6988C276.667 15.6721 276.8 15.6254 276.96 15.5588C277.133 15.4788 277.26 15.4188 277.34 15.3788C277.42 15.3388 277.553 15.2588 277.74 15.1388C277.927 15.0188 278.047 14.9388 278.1 14.8988C278.167 14.8454 278.313 14.7388 278.54 14.5788C278.767 14.4188 278.913 14.3121 278.98 14.2588C279.14 14.1521 279.313 14.1188 279.5 14.1588C279.687 14.1854 279.833 14.2788 279.94 14.4388C280.06 14.5988 280.1 14.7721 280.06 14.9588C280.033 15.1454 279.94 15.2988 279.78 15.4188C279.727 15.4454 279.573 15.5521 279.32 15.7388L278.8 16.1188C278.707 16.1854 278.54 16.2921 278.3 16.4388C278.06 16.5854 277.86 16.6921 277.7 16.7588C277.54 16.8254 277.34 16.8988 277.1 16.9788C276.873 17.0721 276.647 17.1321 276.42 17.1588C276.193 17.1854 275.96 17.1988 275.72 17.1988C274.227 17.1854 272.913 16.8854 271.78 16.2988C270.98 15.8854 270.307 15.3588 269.76 14.7188C269.213 14.0654 268.82 13.3654 268.58 12.6188C268.353 11.8721 268.24 11.1054 268.24 10.3188C268.253 9.51876 268.373 8.73876 268.6 7.97876C268.84 7.20543 269.18 6.47876 269.62 5.79876C270.06 5.11876 270.58 4.51876 271.18 3.99876C271.793 3.46543 272.507 3.05209 273.32 2.75876C274.133 2.46543 274.993 2.32543 275.9 2.33876C277.727 2.37876 279.1 2.95209 280.02 4.05876C280.14 4.20543 280.193 4.37876 280.18 4.57876C280.167 4.76543 280.08 4.91876 279.92 5.03876C279.773 5.15876 279.6 5.21209 279.4 5.19876C279.213 5.18543 279.06 5.09876 278.94 4.93876ZM287.106 15.7588C287.186 15.7188 287.272 15.6988 287.366 15.6988C288.286 15.6854 289.026 15.3788 289.586 14.7788C290.146 14.1654 290.466 13.4321 290.546 12.5788C290.626 11.7654 290.472 11.0921 290.086 10.5588C289.672 9.99876 289.066 9.73209 288.266 9.75876C286.626 9.81209 285.546 10.0721 285.026 10.5388C284.452 11.0588 284.346 12.0254 284.706 13.4388C284.959 14.4521 285.339 15.1121 285.846 15.4188C286.152 15.6188 286.572 15.7321 287.106 15.7588ZM288.326 17.1388C286.912 17.2454 285.839 17.0721 285.106 16.6188C284.279 16.1121 283.692 15.1721 283.346 13.7988C282.839 11.8254 283.086 10.3921 284.086 9.49876C284.872 8.79209 286.252 8.41209 288.226 8.35876C289.519 8.31876 290.512 8.77209 291.206 9.71876C291.819 10.5454 292.066 11.5454 291.946 12.7188C291.852 13.6254 291.532 14.4654 290.986 15.2388C290.452 16.0121 289.732 16.5521 288.826 16.8588C288.692 17.0321 288.526 17.1254 288.326 17.1388ZM295.183 16.7188C295.183 13.3854 295.276 10.6188 295.463 8.41876C295.476 8.23209 295.556 8.07876 295.703 7.95876C295.863 7.82543 296.036 7.76543 296.223 7.77876C296.41 7.79209 296.563 7.87876 296.683 8.03876C296.816 8.18543 296.876 8.35209 296.863 8.53876L296.823 9.09876C297.356 8.57876 297.93 8.21876 298.543 8.01876C298.983 7.88543 299.41 7.83209 299.823 7.85876C300.25 7.88543 300.663 8.03876 301.063 8.31876C301.463 8.58543 301.816 8.96543 302.123 9.45876C302.67 10.3521 302.97 11.5588 303.023 13.0788C303.036 13.4921 303.03 14.1054 303.003 14.9188C302.976 15.7988 302.963 16.3454 302.963 16.5588C302.963 16.7454 302.89 16.9054 302.743 17.0388C302.61 17.1854 302.45 17.2588 302.263 17.2588C302.076 17.2588 301.91 17.1854 301.763 17.0388C301.63 16.9054 301.563 16.7454 301.563 16.5588C301.563 16.3188 301.576 15.7521 301.603 14.8588C301.63 14.0588 301.636 13.4854 301.623 13.1388C301.57 11.8454 301.336 10.8588 300.923 10.1788C300.416 9.35209 299.77 9.07209 298.983 9.33876C298.61 9.45876 298.243 9.68543 297.883 10.0188C297.523 10.3521 297.23 10.7321 297.003 11.1588C296.923 11.2921 296.816 11.3921 296.683 11.4588C296.616 12.9121 296.583 14.6654 296.583 16.7188C296.583 16.9054 296.51 17.0654 296.363 17.1988C296.23 17.3454 296.07 17.4188 295.883 17.4188C295.696 17.4188 295.53 17.3454 295.383 17.1988C295.25 17.0654 295.183 16.9054 295.183 16.7188ZM312.938 10.8788L312.898 10.8388L312.378 10.2388C312.271 10.1188 312.131 9.99209 311.958 9.85876C311.798 9.72543 311.624 9.62543 311.438 9.55876C311.024 9.42543 310.578 9.37209 310.098 9.39876C309.631 9.41209 309.211 9.50543 308.838 9.67876C308.198 9.95876 307.731 10.3654 307.438 10.8988C307.144 11.4321 307.018 11.9921 307.058 12.5788C307.111 13.1654 307.304 13.7321 307.638 14.2788C308.144 15.1188 308.784 15.6188 309.558 15.7788C310.451 15.9521 311.344 15.6188 312.238 14.7788C312.491 14.5254 312.724 14.2588 312.938 13.9788C312.924 12.6454 312.924 11.6121 312.938 10.8788ZM314.158 1.33876C314.278 1.89876 314.364 2.53876 314.418 3.25876C314.471 3.96543 314.491 4.55876 314.478 5.03876C314.478 5.51876 314.458 6.17876 314.418 7.01876C314.378 7.85876 314.358 8.43209 314.358 8.73876C314.331 9.80543 314.324 11.1321 314.338 12.7188L314.418 12.7588C314.591 12.8388 314.704 12.9721 314.758 13.1588C314.824 13.3454 314.811 13.5254 314.718 13.6988C314.598 13.9521 314.471 14.1854 314.338 14.3988V16.2788C314.338 16.4654 314.264 16.6321 314.118 16.7788C313.984 16.9121 313.824 16.9788 313.638 16.9788C313.451 16.9788 313.284 16.9121 313.138 16.7788C313.004 16.6321 312.938 16.4654 312.938 16.2788V16.0188C311.764 17.0188 310.544 17.3921 309.278 17.1388C308.691 17.0188 308.151 16.7721 307.658 16.3988C307.164 16.0121 306.758 15.5454 306.438 14.9988C306.118 14.4788 305.898 13.9121 305.778 13.2988C305.658 12.6854 305.644 12.0721 305.738 11.4588C305.844 10.8454 306.111 10.2654 306.538 9.71876C306.964 9.17209 307.531 8.73209 308.238 8.39876C308.784 8.15876 309.384 8.02543 310.038 7.99876C310.704 7.97209 311.318 8.05209 311.878 8.23876C312.251 8.35876 312.611 8.55876 312.958 8.83876V8.69876C312.971 8.33876 312.991 7.75209 313.018 6.93876C313.058 6.11209 313.078 5.47876 313.078 5.03876C313.091 4.58543 313.071 4.03876 313.018 3.39876C312.978 2.74543 312.904 2.15209 312.798 1.61876C312.758 1.43209 312.784 1.25876 312.878 1.09876C312.984 0.938759 313.131 0.838759 313.318 0.798759C313.518 0.758759 313.698 0.792092 313.858 0.898759C314.018 0.992092 314.118 1.13876 314.158 1.33876ZM321.715 15.7588C321.795 15.7188 321.882 15.6988 321.975 15.6988C322.895 15.6854 323.635 15.3788 324.195 14.7788C324.755 14.1654 325.075 13.4321 325.155 12.5788C325.235 11.7654 325.082 11.0921 324.695 10.5588C324.282 9.99876 323.675 9.73209 322.875 9.75876C321.235 9.81209 320.155 10.0721 319.635 10.5388C319.062 11.0588 318.955 12.0254 319.315 13.4388C319.568 14.4521 319.948 15.1121 320.455 15.4188C320.762 15.6188 321.182 15.7321 321.715 15.7588ZM322.935 17.1388C321.522 17.2454 320.448 17.0721 319.715 16.6188C318.888 16.1121 318.302 15.1721 317.955 13.7988C317.448 11.8254 317.695 10.3921 318.695 9.49876C319.482 8.79209 320.862 8.41209 322.835 8.35876C324.128 8.31876 325.122 8.77209 325.815 9.71876C326.428 10.5454 326.675 11.5454 326.555 12.7188C326.462 13.6254 326.142 14.4654 325.595 15.2388C325.062 16.0121 324.342 16.5521 323.435 16.8588C323.302 17.0321 323.135 17.1254 322.935 17.1388ZM334.312 9.69876C333.699 9.35209 333.172 9.22543 332.732 9.31876C332.386 9.39876 332.072 9.64543 331.792 10.0588C331.539 10.4188 331.339 10.8788 331.192 11.4388C331.179 11.5188 331.172 11.5921 331.172 11.6588C331.132 12.2721 331.092 12.6588 331.052 12.8188V13.7188V13.9788V14.5388C331.052 14.7788 331.059 14.9921 331.072 15.1788V16.1188C331.072 16.2521 331.066 16.3588 331.052 16.4388V16.5588V16.6388C331.039 16.6788 331.032 16.7121 331.032 16.7388C331.006 16.8721 330.919 16.9921 330.772 17.0988C330.586 17.2454 330.379 17.2921 330.152 17.2388C329.912 17.1988 329.739 17.0654 329.632 16.8388C329.566 16.7188 329.526 16.5588 329.512 16.3588V16.0588V15.8988C329.486 15.5654 329.479 14.7654 329.492 13.4988C329.506 12.7121 329.606 11.9521 329.792 11.2188C329.819 10.7121 329.832 9.73209 329.832 8.27876C329.832 8.09209 329.899 7.93209 330.032 7.79876C330.179 7.65209 330.346 7.57876 330.532 7.57876C330.719 7.57876 330.879 7.65209 331.012 7.79876C331.159 7.93209 331.232 8.09209 331.232 8.27876V8.57876C331.592 8.27209 331.992 8.06543 332.432 7.95876C333.219 7.78543 334.072 7.96543 334.992 8.49876C335.166 8.59209 335.279 8.73209 335.332 8.91876C335.386 9.10543 335.359 9.28543 335.252 9.45876C335.159 9.61876 335.019 9.72543 334.832 9.77876C334.646 9.83209 334.472 9.80543 334.312 9.69876ZM345.101 10.1988C344.555 9.81209 343.948 9.58543 343.281 9.51876C342.095 9.38543 341.175 9.58543 340.521 10.1188C339.855 10.6521 339.481 11.5121 339.401 12.6988C339.388 12.9521 339.388 13.2388 339.401 13.5588C339.415 13.9054 339.448 14.1388 339.501 14.2588C339.701 14.7388 340.028 15.1588 340.481 15.5188C340.935 15.8788 341.441 16.1321 342.001 16.2788C342.521 16.4254 343.015 16.4321 343.481 16.2988C343.961 16.1521 344.341 15.8654 344.621 15.4388C344.715 15.2788 344.855 15.1788 345.041 15.1388C345.241 15.0988 345.421 15.1321 345.581 15.2388C345.741 15.3321 345.841 15.4788 345.881 15.6788C345.921 15.8654 345.888 16.0388 345.781 16.1988C345.328 16.9188 344.721 17.3854 343.961 17.5988C343.215 17.8254 342.441 17.8388 341.641 17.6388C340.895 17.4521 340.208 17.1054 339.581 16.5988C338.955 16.0921 338.501 15.4988 338.221 14.8188C338.101 14.5388 338.028 14.1454 338.001 13.6388C337.975 13.2788 337.975 12.9388 338.001 12.6188C338.108 11.0188 338.655 9.81876 339.641 9.01876C340.601 8.24543 341.868 7.94543 343.441 8.11876C344.321 8.22543 345.141 8.53209 345.901 9.03876C346.061 9.14543 346.155 9.29876 346.181 9.49876C346.221 9.68543 346.188 9.85876 346.081 10.0188C345.975 10.1788 345.821 10.2788 345.621 10.3188C345.435 10.3454 345.261 10.3054 345.101 10.1988ZM355.661 11.4988C355.648 11.4454 355.635 11.3788 355.621 11.2988C355.528 10.9388 355.328 10.5721 355.021 10.1988C354.675 9.77209 354.288 9.46543 353.861 9.27876C353.435 9.09209 353.015 9.06543 352.601 9.19876C352.161 9.34543 351.775 9.61876 351.441 10.0188C351.121 10.4054 350.875 10.8721 350.701 11.4188C352.528 11.2454 353.808 11.1854 354.541 11.2388C354.608 11.2521 354.935 11.3321 355.521 11.4788C355.575 11.4788 355.621 11.4854 355.661 11.4988ZM349.241 11.5388C349.428 10.6854 349.761 9.92543 350.241 9.25876C350.735 8.59209 351.375 8.13209 352.161 7.87876C352.921 7.62543 353.648 7.65209 354.341 7.95876C355.035 8.26543 355.621 8.71209 356.101 9.29876C356.541 9.84543 356.835 10.3988 356.981 10.9588C357.181 11.7454 357.028 12.3188 356.521 12.6788C356.175 12.9188 355.721 12.9721 355.161 12.8388C355.055 12.7988 354.948 12.7654 354.841 12.7388C354.735 12.6988 354.655 12.6721 354.601 12.6588C354.548 12.6454 354.488 12.6388 354.421 12.6388C354.221 12.5988 353.895 12.5921 353.441 12.6188C352.988 12.6321 352.668 12.6454 352.481 12.6588C352.295 12.6721 351.968 12.7054 351.501 12.7588C351.035 12.7988 350.695 12.8321 350.481 12.8588V13.2588C350.535 14.1921 350.775 14.9254 351.201 15.4588C351.628 15.9788 352.181 16.1988 352.861 16.1188C353.435 16.0521 353.881 15.9121 354.201 15.6988C354.495 15.4988 354.801 15.1454 355.121 14.6388C355.228 14.4654 355.375 14.3588 355.561 14.3188C355.748 14.2788 355.921 14.3121 356.081 14.4188C356.255 14.5121 356.361 14.6521 356.401 14.8388C356.441 15.0254 356.415 15.1988 356.321 15.3588C355.908 16.0521 355.455 16.5654 354.961 16.8988C354.468 17.2188 353.821 17.4254 353.021 17.5188C352.395 17.5854 351.828 17.5054 351.321 17.2788C350.815 17.0654 350.408 16.7454 350.101 16.3188C349.795 15.8921 349.555 15.4254 349.381 14.9188C349.221 14.4121 349.128 13.8854 349.101 13.3388C349.088 13.1654 349.081 12.9921 349.081 12.8188C348.868 12.6854 348.755 12.4921 348.741 12.2388C348.741 12.0788 348.788 11.9388 348.881 11.8188C348.975 11.6854 349.095 11.5921 349.241 11.5388ZM361.541 5.01876C361.634 5.75209 361.661 6.67209 361.621 7.77876C362.421 7.79209 363.041 7.81209 363.481 7.83876C363.668 7.85209 363.828 7.93209 363.961 8.07876C364.094 8.22543 364.154 8.39209 364.141 8.57876C364.128 8.76543 364.048 8.92543 363.901 9.05876C363.754 9.19209 363.588 9.25209 363.401 9.23876C362.961 9.21209 362.348 9.18543 361.561 9.15876C361.548 9.39876 361.541 9.60543 361.541 9.77876C361.528 10.5254 361.541 11.5854 361.581 12.9588C361.634 14.3188 361.661 15.2788 361.661 15.8388C361.661 16.0254 361.588 16.1921 361.441 16.3388C361.308 16.4721 361.148 16.5388 360.961 16.5388C360.774 16.5388 360.608 16.4721 360.461 16.3388C360.328 16.1921 360.261 16.0254 360.261 15.8388C360.261 15.2788 360.234 14.3121 360.181 12.9388C360.141 11.5521 360.128 10.4854 360.141 9.73876C360.141 9.55209 360.148 9.34543 360.161 9.11876C359.948 9.11876 359.748 9.11209 359.561 9.09876C359.374 9.08543 359.214 9.01209 359.081 8.87876C358.948 8.73209 358.888 8.56543 358.901 8.37876C358.914 8.17876 358.988 8.01209 359.121 7.87876C359.268 7.74543 359.441 7.68543 359.641 7.69876C359.841 7.71209 360.034 7.71876 360.221 7.71876C360.261 6.70543 360.234 5.85876 360.141 5.17876C360.114 4.99209 360.161 4.82543 360.281 4.67876C360.401 4.51876 360.554 4.42543 360.741 4.39876C360.941 4.37209 361.114 4.41876 361.261 4.53876C361.421 4.65876 361.514 4.81876 361.541 5.01876ZM373.087 16.7588C373.18 16.2788 373.373 15.3921 373.667 14.0988C373.987 12.7254 374.233 11.5921 374.407 10.6988C374.593 9.79209 374.74 8.89876 374.847 8.01876C374.953 7.23209 375.147 6.21209 375.427 4.95876L375.707 3.77876L375.787 3.41876L375.827 3.31876V3.27876C375.84 3.26543 375.847 3.25209 375.847 3.23876L375.887 3.15876L375.967 3.03876C376.02 2.97209 376.073 2.91876 376.127 2.87876C376.313 2.77209 376.507 2.75209 376.707 2.81876C376.907 2.87209 377.06 2.99209 377.167 3.17876C377.193 3.24543 377.22 3.31876 377.247 3.39876C377.273 3.49209 377.3 3.61876 377.327 3.77876C377.34 3.93876 377.373 4.23876 377.427 4.67876C377.52 5.61209 377.607 6.20543 377.687 6.45876C377.873 7.09876 378.373 8.07876 379.187 9.39876C380.28 11.1721 380.913 12.2388 381.087 12.5988L381.287 13.0388C381.407 12.5854 381.48 12.3254 381.507 12.2588C381.693 11.6588 381.94 11.0588 382.247 10.4588C382.553 9.85876 382.947 9.16543 383.427 8.37876L384.387 6.81876C384.387 6.79209 384.587 6.39876 384.987 5.63876L385.347 4.91876C385.4 4.81209 385.447 4.73209 385.487 4.67876L385.547 4.55876L385.627 4.47876C385.653 4.43876 385.693 4.39876 385.747 4.35876C385.96 4.21209 386.187 4.19209 386.427 4.29876C386.507 4.33876 386.573 4.39209 386.627 4.45876C386.693 4.51209 386.74 4.55876 386.767 4.59876L386.787 4.65876C386.8 4.69876 386.813 4.73209 386.827 4.75876C386.827 4.78543 386.833 4.81209 386.847 4.83876V4.91876C386.847 4.94543 386.853 4.98543 386.867 5.03876V5.39876L386.927 6.55876C386.993 7.90543 387.047 8.72543 387.087 9.01876C387.167 9.80543 387.447 10.8921 387.927 12.2788C388.5 13.9188 388.84 15.0788 388.947 15.7588C388.987 15.9454 388.947 16.1188 388.827 16.2788C388.72 16.4388 388.573 16.5388 388.387 16.5788C388.2 16.6054 388.027 16.5654 387.867 16.4588C387.707 16.3388 387.613 16.1854 387.587 15.9988C387.467 15.3588 387.14 14.2721 386.607 12.7388C386.087 11.2588 385.78 10.0721 385.687 9.17876C385.66 8.84543 385.62 8.29876 385.567 7.53876C385.393 7.85876 385.073 8.39876 384.607 9.15876C384.14 9.91876 383.767 10.5654 383.487 11.0988C383.22 11.6188 383 12.1521 382.827 12.6988C382.813 12.7654 382.7 13.1988 382.487 13.9988L382.267 14.7988L382.187 15.0588L382.167 15.1388V15.1788C382.153 15.1921 382.147 15.2054 382.147 15.2188C382.133 15.2321 382.127 15.2521 382.127 15.2788L382.087 15.3588C382.06 15.3854 382.033 15.4188 382.007 15.4588C381.913 15.5521 381.807 15.6188 381.687 15.6588C381.46 15.7121 381.253 15.6721 381.067 15.5388C381.013 15.4988 380.967 15.4588 380.927 15.4188C380.9 15.3788 380.867 15.3321 380.827 15.2788C380.787 15.2121 380.74 15.1254 380.687 15.0188C380.593 14.8588 380.48 14.6254 380.347 14.3188L379.807 13.1988C379.607 12.7854 379.007 11.7654 378.007 10.1388C377.18 8.79209 376.647 7.77876 376.407 7.09876C376.353 7.40543 376.3 7.76543 376.247 8.17876C376.127 9.07209 375.98 9.97209 375.807 10.8788C375.633 11.7854 375.387 12.9521 375.067 14.3788L374.447 17.0388C374.407 17.2388 374.307 17.3854 374.147 17.4788C373.987 17.5854 373.807 17.6188 373.607 17.5788C373.42 17.5388 373.273 17.4388 373.167 17.2788C373.073 17.1188 373.047 16.9454 373.087 16.7588ZM399.135 11.2188C399.028 11.1654 398.935 11.0988 398.855 11.0188C398.348 10.4188 397.841 9.96543 397.335 9.65876C396.588 9.19209 395.888 9.12543 395.235 9.45876C394.595 9.79209 394.108 10.3921 393.775 11.2588C393.575 11.8454 393.475 12.4121 393.475 12.9588C393.488 13.5054 393.648 14.0121 393.955 14.4788C394.275 14.9321 394.715 15.2588 395.275 15.4588C395.941 15.6988 396.575 15.6788 397.175 15.3988C397.668 15.1721 398.308 14.6721 399.095 13.8988C399.081 13.2588 399.095 12.3654 399.135 11.2188ZM400.575 8.07876C400.588 8.75876 400.575 9.81876 400.535 11.2588C400.495 12.6454 400.488 13.6788 400.515 14.3588C400.528 14.5854 400.561 14.9454 400.615 15.4388C400.655 15.9588 400.681 16.3588 400.695 16.6388C400.695 16.8388 400.628 17.0054 400.495 17.1388C400.361 17.2854 400.195 17.3588 399.995 17.3588C399.808 17.3588 399.641 17.2921 399.495 17.1588C399.361 17.0254 399.295 16.8654 399.295 16.6788C399.295 16.4254 399.268 16.0988 399.215 15.6988C398.695 16.1521 398.215 16.4788 397.775 16.6788C396.815 17.1188 395.821 17.1521 394.795 16.7788C394.128 16.5388 393.575 16.1854 393.135 15.7188C392.708 15.2388 392.421 14.7188 392.275 14.1588C392.128 13.5988 392.068 13.0254 392.095 12.4388C392.135 11.8521 392.255 11.2921 392.455 10.7588C392.921 9.55876 393.635 8.71209 394.595 8.21876C395.728 7.63209 396.895 7.71209 398.095 8.45876C398.468 8.69876 398.828 8.98543 399.175 9.31876C399.188 8.89209 399.188 8.49209 399.175 8.11876C399.175 7.91876 399.241 7.75209 399.375 7.61876C399.508 7.47209 399.668 7.39876 399.855 7.39876C400.055 7.39876 400.221 7.46543 400.355 7.59876C400.501 7.73209 400.575 7.89209 400.575 8.07876ZM408.433 9.69876C407.82 9.35209 407.293 9.22543 406.853 9.31876C406.507 9.39876 406.193 9.64543 405.913 10.0588C405.66 10.4188 405.46 10.8788 405.313 11.4388C405.3 11.5188 405.293 11.5921 405.293 11.6588C405.253 12.2721 405.213 12.6588 405.173 12.8188V13.7188V13.9788V14.5388C405.173 14.7788 405.18 14.9921 405.193 15.1788V16.1188C405.193 16.2521 405.187 16.3588 405.173 16.4388V16.5588V16.6388C405.16 16.6788 405.153 16.7121 405.153 16.7388C405.127 16.8721 405.04 16.9921 404.893 17.0988C404.707 17.2454 404.5 17.2921 404.273 17.2388C404.033 17.1988 403.86 17.0654 403.753 16.8388C403.687 16.7188 403.647 16.5588 403.633 16.3588V16.0588V15.8988C403.607 15.5654 403.6 14.7654 403.613 13.4988C403.627 12.7121 403.727 11.9521 403.913 11.2188C403.94 10.7121 403.953 9.73209 403.953 8.27876C403.953 8.09209 404.02 7.93209 404.153 7.79876C404.3 7.65209 404.467 7.57876 404.653 7.57876C404.84 7.57876 405 7.65209 405.133 7.79876C405.28 7.93209 405.353 8.09209 405.353 8.27876V8.57876C405.713 8.27209 406.113 8.06543 406.553 7.95876C407.34 7.78543 408.193 7.96543 409.113 8.49876C409.287 8.59209 409.4 8.73209 409.453 8.91876C409.507 9.10543 409.48 9.28543 409.373 9.45876C409.28 9.61876 409.14 9.72543 408.953 9.77876C408.767 9.83209 408.593 9.80543 408.433 9.69876ZM419.222 10.1988C418.676 9.81209 418.069 9.58543 417.402 9.51876C416.216 9.38543 415.296 9.58543 414.642 10.1188C413.976 10.6521 413.602 11.5121 413.522 12.6988C413.509 12.9521 413.509 13.2388 413.522 13.5588C413.536 13.9054 413.569 14.1388 413.622 14.2588C413.822 14.7388 414.149 15.1588 414.602 15.5188C415.056 15.8788 415.562 16.1321 416.122 16.2788C416.642 16.4254 417.136 16.4321 417.602 16.2988C418.082 16.1521 418.462 15.8654 418.742 15.4388C418.836 15.2788 418.976 15.1788 419.162 15.1388C419.362 15.0988 419.542 15.1321 419.702 15.2388C419.862 15.3321 419.962 15.4788 420.002 15.6788C420.042 15.8654 420.009 16.0388 419.902 16.1988C419.449 16.9188 418.842 17.3854 418.082 17.5988C417.336 17.8254 416.562 17.8388 415.762 17.6388C415.016 17.4521 414.329 17.1054 413.702 16.5988C413.076 16.0921 412.622 15.4988 412.342 14.8188C412.222 14.5388 412.149 14.1454 412.122 13.6388C412.096 13.2788 412.096 12.9388 412.122 12.6188C412.229 11.0188 412.776 9.81876 413.762 9.01876C414.722 8.24543 415.989 7.94543 417.562 8.11876C418.442 8.22543 419.262 8.53209 420.022 9.03876C420.182 9.14543 420.276 9.29876 420.302 9.49876C420.342 9.68543 420.309 9.85876 420.202 10.0188C420.096 10.1788 419.942 10.2788 419.742 10.3188C419.556 10.3454 419.382 10.3054 419.222 10.1988ZM424.762 8.33876C424.802 8.63209 424.822 8.93876 424.822 9.25876C424.822 9.57876 424.816 9.84543 424.802 10.0588L424.722 10.9188C424.682 11.2654 424.656 11.5188 424.642 11.6788C424.616 12.3854 424.602 12.8854 424.602 13.1788C424.602 13.4588 424.616 13.9654 424.642 14.6988C424.682 15.4188 424.709 15.9388 424.722 16.2588C424.722 16.4588 424.656 16.6321 424.522 16.7788C424.389 16.9121 424.222 16.9788 424.022 16.9788C423.836 16.9788 423.669 16.9121 423.522 16.7788C423.389 16.6454 423.322 16.4854 423.322 16.2988C423.309 16.0321 423.282 15.5254 423.242 14.7788C423.216 14.0321 423.202 13.4988 423.202 13.1788C423.202 12.8588 423.216 12.3188 423.242 11.5588C423.256 11.3454 423.282 11.0721 423.322 10.7388C423.362 10.4054 423.389 10.1454 423.402 9.95876C423.416 9.77209 423.422 9.55209 423.422 9.29876C423.422 9.03209 423.402 8.77876 423.362 8.53876C423.336 8.35209 423.382 8.17876 423.502 8.01876C423.622 7.85876 423.776 7.76543 423.962 7.73876C424.149 7.71209 424.322 7.75876 424.482 7.87876C424.642 7.99876 424.736 8.15209 424.762 8.33876ZM423.662 4.55876L423.542 4.01876C423.516 3.95209 423.502 3.89876 423.502 3.85876C423.489 3.80543 423.482 3.75876 423.482 3.71876C423.482 3.65209 423.489 3.59209 423.502 3.53876C423.556 3.27209 423.709 3.09876 423.962 3.01876C424.189 2.93876 424.402 2.97209 424.602 3.11876C424.656 3.15876 424.696 3.19876 424.722 3.23876C424.749 3.26543 424.776 3.29876 424.802 3.33876C424.829 3.36543 424.862 3.41876 424.902 3.49876L425.162 3.95876C425.256 4.13209 425.276 4.31209 425.222 4.49876C425.182 4.68543 425.082 4.82543 424.922 4.91876C424.842 4.95876 424.762 4.98543 424.682 4.99876C424.629 5.03876 424.569 5.06543 424.502 5.07876C424.302 5.11876 424.122 5.09209 423.962 4.99876C423.802 4.89209 423.702 4.74543 423.662 4.55876ZM428.484 16.7188C428.484 13.3854 428.577 10.6188 428.764 8.41876C428.777 8.23209 428.857 8.07876 429.004 7.95876C429.164 7.82543 429.337 7.76543 429.524 7.77876C429.71 7.79209 429.864 7.87876 429.984 8.03876C430.117 8.18543 430.177 8.35209 430.164 8.53876L430.124 9.09876C430.657 8.57876 431.23 8.21876 431.844 8.01876C432.284 7.88543 432.71 7.83209 433.124 7.85876C433.55 7.88543 433.964 8.03876 434.364 8.31876C434.764 8.58543 435.117 8.96543 435.424 9.45876C435.97 10.3521 436.27 11.5588 436.324 13.0788C436.337 13.4921 436.33 14.1054 436.304 14.9188C436.277 15.7988 436.264 16.3454 436.264 16.5588C436.264 16.7454 436.19 16.9054 436.044 17.0388C435.91 17.1854 435.75 17.2588 435.564 17.2588C435.377 17.2588 435.21 17.1854 435.064 17.0388C434.93 16.9054 434.864 16.7454 434.864 16.5588C434.864 16.3188 434.877 15.7521 434.904 14.8588C434.93 14.0588 434.937 13.4854 434.924 13.1388C434.87 11.8454 434.637 10.8588 434.224 10.1788C433.717 9.35209 433.07 9.07209 432.284 9.33876C431.91 9.45876 431.544 9.68543 431.184 10.0188C430.824 10.3521 430.53 10.7321 430.304 11.1588C430.224 11.2921 430.117 11.3921 429.984 11.4588C429.917 12.9121 429.884 14.6654 429.884 16.7188C429.884 16.9054 429.81 17.0654 429.664 17.1988C429.53 17.3454 429.37 17.4188 429.184 17.4188C428.997 17.4188 428.83 17.3454 428.684 17.1988C428.55 17.0654 428.484 16.9054 428.484 16.7188ZM445.778 11.4988C445.765 11.4454 445.752 11.3788 445.738 11.2988C445.645 10.9388 445.445 10.5721 445.138 10.1988C444.792 9.77209 444.405 9.46543 443.978 9.27876C443.552 9.09209 443.132 9.06543 442.718 9.19876C442.278 9.34543 441.892 9.61876 441.558 10.0188C441.238 10.4054 440.992 10.8721 440.818 11.4188C442.645 11.2454 443.925 11.1854 444.658 11.2388C444.725 11.2521 445.052 11.3321 445.638 11.4788C445.692 11.4788 445.738 11.4854 445.778 11.4988ZM439.358 11.5388C439.545 10.6854 439.878 9.92543 440.358 9.25876C440.852 8.59209 441.492 8.13209 442.278 7.87876C443.038 7.62543 443.765 7.65209 444.458 7.95876C445.152 8.26543 445.738 8.71209 446.218 9.29876C446.658 9.84543 446.952 10.3988 447.098 10.9588C447.298 11.7454 447.145 12.3188 446.638 12.6788C446.292 12.9188 445.838 12.9721 445.278 12.8388C445.172 12.7988 445.065 12.7654 444.958 12.7388C444.852 12.6988 444.772 12.6721 444.718 12.6588C444.665 12.6454 444.605 12.6388 444.538 12.6388C444.338 12.5988 444.012 12.5921 443.558 12.6188C443.105 12.6321 442.785 12.6454 442.598 12.6588C442.412 12.6721 442.085 12.7054 441.618 12.7588C441.152 12.7988 440.812 12.8321 440.598 12.8588V13.2588C440.652 14.1921 440.892 14.9254 441.318 15.4588C441.745 15.9788 442.298 16.1988 442.978 16.1188C443.552 16.0521 443.998 15.9121 444.318 15.6988C444.612 15.4988 444.918 15.1454 445.238 14.6388C445.345 14.4654 445.492 14.3588 445.678 14.3188C445.865 14.2788 446.038 14.3121 446.198 14.4188C446.372 14.5121 446.478 14.6521 446.518 14.8388C446.558 15.0254 446.532 15.1988 446.438 15.3588C446.025 16.0521 445.572 16.5654 445.078 16.8988C444.585 17.2188 443.938 17.4254 443.138 17.5188C442.512 17.5854 441.945 17.5054 441.438 17.2788C440.932 17.0654 440.525 16.7454 440.218 16.3188C439.912 15.8921 439.672 15.4254 439.498 14.9188C439.338 14.4121 439.245 13.8854 439.218 13.3388C439.205 13.1654 439.198 12.9921 439.198 12.8188C438.985 12.6854 438.872 12.4921 438.858 12.2388C438.858 12.0788 438.905 11.9388 438.998 11.8188C439.092 11.6854 439.212 11.5921 439.358 11.5388ZM451.638 0.938759C451.705 1.31209 451.752 1.73209 451.778 2.19876C451.805 2.66543 451.818 3.05876 451.818 3.37876C451.818 3.69876 451.805 4.12543 451.778 4.65876C451.765 5.17876 451.758 5.54543 451.758 5.75876C451.705 10.6654 451.572 14.3721 451.358 16.8788C451.345 17.0654 451.265 17.2188 451.118 17.3388C450.972 17.4721 450.798 17.5321 450.598 17.5188C450.412 17.5054 450.252 17.4254 450.118 17.2788C449.998 17.1321 449.945 16.9588 449.958 16.7588C450.172 14.2788 450.305 10.6121 450.358 5.75876C450.358 5.49209 450.365 5.10543 450.378 4.59876C450.405 4.07876 450.418 3.67209 450.418 3.37876C450.418 3.07209 450.405 2.71209 450.378 2.29876C450.365 1.88543 450.332 1.51209 450.278 1.17876C450.238 0.992093 450.272 0.818759 450.378 0.658759C450.498 0.498759 450.652 0.405425 450.838 0.378759C451.025 0.338759 451.198 0.378759 451.358 0.498759C451.518 0.605425 451.612 0.752092 451.638 0.938759ZM456.287 0.938759C456.353 1.31209 456.4 1.73209 456.427 2.19876C456.453 2.66543 456.467 3.05876 456.467 3.37876C456.467 3.69876 456.453 4.12543 456.427 4.65876C456.413 5.17876 456.407 5.54543 456.407 5.75876C456.353 10.6654 456.22 14.3721 456.007 16.8788C455.993 17.0654 455.913 17.2188 455.767 17.3388C455.62 17.4721 455.447 17.5321 455.247 17.5188C455.06 17.5054 454.9 17.4254 454.767 17.2788C454.647 17.1321 454.593 16.9588 454.607 16.7588C454.82 14.2788 454.953 10.6121 455.007 5.75876C455.007 5.49209 455.013 5.10543 455.027 4.59876C455.053 4.07876 455.067 3.67209 455.067 3.37876C455.067 3.07209 455.053 2.71209 455.027 2.29876C455.013 1.88543 454.98 1.51209 454.927 1.17876C454.887 0.992093 454.92 0.818759 455.027 0.658759C455.147 0.498759 455.3 0.405425 455.487 0.378759C455.673 0.338759 455.847 0.378759 456.007 0.498759C456.167 0.605425 456.26 0.752092 456.287 0.938759ZM465.915 11.4988C465.902 11.4454 465.888 11.3788 465.875 11.2988C465.782 10.9388 465.582 10.5721 465.275 10.1988C464.928 9.77209 464.542 9.46543 464.115 9.27876C463.688 9.09209 463.268 9.06543 462.855 9.19876C462.415 9.34543 462.028 9.61876 461.695 10.0188C461.375 10.4054 461.128 10.8721 460.955 11.4188C462.782 11.2454 464.062 11.1854 464.795 11.2388C464.862 11.2521 465.188 11.3321 465.775 11.4788C465.828 11.4788 465.875 11.4854 465.915 11.4988ZM459.495 11.5388C459.682 10.6854 460.015 9.92543 460.495 9.25876C460.988 8.59209 461.628 8.13209 462.415 7.87876C463.175 7.62543 463.902 7.65209 464.595 7.95876C465.288 8.26543 465.875 8.71209 466.355 9.29876C466.795 9.84543 467.088 10.3988 467.235 10.9588C467.435 11.7454 467.282 12.3188 466.775 12.6788C466.428 12.9188 465.975 12.9721 465.415 12.8388C465.308 12.7988 465.202 12.7654 465.095 12.7388C464.988 12.6988 464.908 12.6721 464.855 12.6588C464.802 12.6454 464.742 12.6388 464.675 12.6388C464.475 12.5988 464.148 12.5921 463.695 12.6188C463.242 12.6321 462.922 12.6454 462.735 12.6588C462.548 12.6721 462.222 12.7054 461.755 12.7588C461.288 12.7988 460.948 12.8321 460.735 12.8588V13.2588C460.788 14.1921 461.028 14.9254 461.455 15.4588C461.882 15.9788 462.435 16.1988 463.115 16.1188C463.688 16.0521 464.135 15.9121 464.455 15.6988C464.748 15.4988 465.055 15.1454 465.375 14.6388C465.482 14.4654 465.628 14.3588 465.815 14.3188C466.002 14.2788 466.175 14.3121 466.335 14.4188C466.508 14.5121 466.615 14.6521 466.655 14.8388C466.695 15.0254 466.668 15.1988 466.575 15.3588C466.162 16.0521 465.708 16.5654 465.215 16.8988C464.722 17.2188 464.075 17.4254 463.275 17.5188C462.648 17.5854 462.082 17.5054 461.575 17.2788C461.068 17.0654 460.662 16.7454 460.355 16.3188C460.048 15.8921 459.808 15.4254 459.635 14.9188C459.475 14.4121 459.382 13.8854 459.355 13.3388C459.342 13.1654 459.335 12.9921 459.335 12.8188C459.122 12.6854 459.008 12.4921 458.995 12.2388C458.995 12.0788 459.042 11.9388 459.135 11.8188C459.228 11.6854 459.348 11.5921 459.495 11.5388ZM473.635 2.99876C473.342 3.33209 473.068 3.73876 472.815 4.21876C472.562 4.68543 472.362 5.09876 472.215 5.45876C472.082 5.77876 471.895 6.27876 471.655 6.95876C471.588 7.14543 471.468 7.27876 471.295 7.35876C471.122 7.43876 470.942 7.44543 470.755 7.37876C470.568 7.31209 470.435 7.19209 470.355 7.01876C470.275 6.84543 470.268 6.66543 470.335 6.47876C470.575 5.81209 470.768 5.29876 470.915 4.93876C471.062 4.57876 471.288 4.11209 471.595 3.53876C471.902 2.96543 472.222 2.47876 472.555 2.07876C472.688 1.93209 472.848 1.85209 473.035 1.83876C473.235 1.82543 473.408 1.88543 473.555 2.01876C473.702 2.13876 473.782 2.29876 473.795 2.49876C473.808 2.68543 473.755 2.85209 473.635 2.99876ZM477.535 2.63876C477.455 2.82543 477.228 3.30543 476.855 4.07876L475.935 5.95876C475.695 6.43876 475.442 6.89876 475.175 7.33876C475.068 7.51209 474.922 7.61876 474.735 7.65876C474.548 7.69876 474.368 7.67209 474.195 7.57876C474.035 7.47209 473.935 7.32543 473.895 7.13876C473.855 6.95209 473.882 6.77876 473.975 6.61876C474.242 6.17876 474.495 5.72543 474.735 5.25876L475.615 3.45876L476.295 2.03876C476.375 1.86543 476.502 1.74543 476.675 1.67876C476.862 1.61209 477.042 1.62543 477.215 1.71876C477.388 1.79876 477.508 1.93209 477.575 2.11876C477.642 2.29209 477.628 2.46543 477.535 2.63876Z" fill="black"/>
</svg>
