<svg width="300" height="52" viewBox="0 0 300 52" fill="none" xmlns="http://www.w3.org/2000/svg">
<path d="M7.03165 0.759766C7.42748 0.759766 8.30248 0.884766 9.65665 1.13477L10.2816 1.00977C12.2816 1.2181 13.2816 1.8431 13.2816 2.88477C13.1983 7.17643 13.1566 9.67643 13.1566 10.3848C13.1566 11.5306 13.1983 15.7389 13.2816 23.0098C13.4483 24.0514 13.5316 24.7598 13.5316 25.1348C13.5316 26.6973 13.5733 30.6556 13.6566 37.0098L13.5316 38.2598C13.8858 38.5098 14.8441 38.6348 16.4066 38.6348H24.0316C24.865 38.6348 25.865 38.5931 27.0316 38.5098C28.1983 38.5098 29.1983 39.0931 30.0316 40.2598C30.115 40.4056 30.1566 40.6139 30.1566 40.8848V42.7598C30.1566 43.0306 30.24 43.6139 30.4066 44.5098C30.3233 45.3639 30.2816 45.8639 30.2816 46.0098C30.4483 46.3431 30.5316 46.6348 30.5316 46.8848C29.8441 49.3014 29.0941 50.5098 28.2816 50.5098C28.2816 50.9264 27.24 51.2181 25.1566 51.3848H20.9066C20.74 51.3848 20.3233 51.4681 19.6566 51.6348C19.49 51.6348 19.1983 51.5514 18.7816 51.3848C18.115 51.4473 17.7816 51.5306 17.7816 51.6348C16.5316 51.5514 15.615 51.5098 15.0316 51.5098H5.28165C2.61498 51.5098 1.28165 50.4264 1.28165 48.2598C1.19831 47.3639 0.98998 46.1556 0.656647 44.6348L0.906647 43.6348C0.73998 43.2806 0.656647 42.6139 0.656647 41.6348V32.8848C0.656647 30.8223 0.61498 27.9473 0.531647 24.2598C0.448313 24.0931 0.406647 23.9681 0.406647 23.8848L0.531647 23.1348L0.406647 21.3848C0.406647 21.1139 0.448313 20.9056 0.531647 20.7598C0.448313 19.8431 0.406647 19.0514 0.406647 18.3848V15.2598C0.406647 14.4264 0.36498 13.4264 0.281647 12.2598L0.406647 12.0098L0.281647 10.8848C0.281647 6.55143 0.656647 4.38477 1.40665 4.38477C2.17748 1.9681 4.05248 0.759766 7.03165 0.759766ZM4.40665 3.25977L4.53165 3.50977V3.63477C4.53165 4.2181 4.48998 4.50977 4.40665 4.50977L4.53165 6.00977V27.3848C4.53165 28.1556 4.57331 29.2389 4.65665 30.6348L4.53165 30.8848C4.61498 31.5931 4.65665 32.1764 4.65665 32.6348V34.8848C4.65665 35.0098 4.73998 36.0098 4.90665 37.8848V42.8848C4.90665 43.5514 4.86498 44.4264 4.78165 45.5098C5.05248 46.5514 5.42748 47.2181 5.90665 47.5098C8.01081 47.4264 9.67748 47.3848 10.9066 47.3848H24.6566C27.24 47.3848 28.5316 47.0931 28.5316 46.5098C28.6983 46.2389 28.7816 45.9889 28.7816 45.7598V44.7598C28.7816 42.0931 28.5316 40.7598 28.0316 40.7598C27.4691 40.5098 27.0108 40.3848 26.6566 40.3848H18.9066C18.4275 40.3848 17.7608 40.4264 16.9066 40.5098C16.4691 40.3431 15.5941 40.2598 14.2816 40.2598H13.4066C12.4066 40.2598 11.9066 39.5514 11.9066 38.1348C12.0733 37.0931 12.1566 36.2181 12.1566 35.5098V34.1348C11.99 32.2598 11.9066 31.2598 11.9066 31.1348V30.8848C11.49 20.6764 11.2816 14.4681 11.2816 12.2598C11.2816 10.1973 11.365 7.2806 11.5316 3.50977C11.365 3.00977 11.0316 2.75977 10.5316 2.75977H4.90665L4.40665 3.25977ZM1.90665 7.50977L2.03165 8.13477H2.28165C2.48998 8.13477 2.65665 7.80143 2.78165 7.13477V6.25977L2.53165 5.88477C2.11498 5.88477 1.90665 6.42643 1.90665 7.50977ZM1.90665 10.6348V11.0098L2.03165 11.6348H2.28165C2.69831 11.4264 2.90665 11.0931 2.90665 10.6348V9.88477C2.90665 9.7181 2.82331 9.63477 2.65665 9.63477C2.15665 9.80143 1.90665 10.1348 1.90665 10.6348ZM1.90665 14.1348V15.0098C1.92748 15.1764 2.01081 15.2598 2.15665 15.2598H2.28165C2.57331 15.2598 2.78165 14.8014 2.90665 13.8848V13.5098C2.90665 13.3431 2.82331 13.2598 2.65665 13.2598H2.40665C2.07331 13.3848 1.90665 13.6764 1.90665 14.1348ZM1.90665 17.7598V18.7598L2.03165 19.3848H2.53165C2.53165 19.3014 2.65665 19.0098 2.90665 18.5098C2.82331 17.5098 2.69831 17.0098 2.53165 17.0098H2.28165C2.03165 17.0931 1.90665 17.3431 1.90665 17.7598ZM1.90665 22.0098V23.0098C1.90665 23.1348 2.03165 23.2598 2.28165 23.3848H2.40665C2.65665 23.3014 2.78165 23.0514 2.78165 22.6348V21.3848C2.78165 21.2181 2.69831 21.1348 2.53165 21.1348C2.11498 21.2598 1.90665 21.5514 1.90665 22.0098ZM2.03165 26.0098V26.7598L2.15665 27.3848H2.40665C2.53165 27.3848 2.73998 27.0931 3.03165 26.5098L2.90665 25.8848V25.1348H2.53165C2.19831 25.2598 2.03165 25.5514 2.03165 26.0098ZM2.28165 29.6348V30.7598C2.86498 30.7598 3.15665 30.4681 3.15665 29.8848V29.0098H2.90665C2.80248 29.0098 2.59415 29.2181 2.28165 29.6348ZM2.28165 33.5098L2.40665 34.3848H2.78165C2.90665 34.3848 3.03165 34.2598 3.15665 34.0098V32.3848H2.90665C2.48998 32.7181 2.28165 33.0931 2.28165 33.5098ZM2.40665 37.3848V37.6348C2.42748 37.8014 2.51081 37.8848 2.65665 37.8848C3.07331 37.7598 3.28165 37.4681 3.28165 37.0098V36.7598L3.15665 36.1348H2.90665C2.67748 36.1348 2.51081 36.5514 2.40665 37.3848ZM2.28165 41.1348C2.44831 41.2181 2.57331 41.2598 2.65665 41.2598C3.15665 41.0723 3.40665 40.7389 3.40665 40.2598C3.30248 39.7598 3.17748 39.5098 3.03165 39.5098C2.53165 39.9056 2.28165 40.4473 2.28165 41.1348ZM2.53165 44.1348V44.5098L2.65665 45.1348H3.15665C3.32331 44.5514 3.40665 44.0514 3.40665 43.6348C3.32331 43.1348 3.19831 42.8848 3.03165 42.8848C2.80248 42.8848 2.63581 43.3014 2.53165 44.1348ZM2.78165 47.6348V47.8848C2.78165 48.0098 2.90665 48.1348 3.15665 48.2598H3.28165C3.44831 48.2598 3.57331 48.0098 3.65665 47.5098C3.48998 47.1348 3.32331 46.9264 3.15665 46.8848C2.90665 46.9681 2.78165 47.2181 2.78165 47.6348ZM22.9066 49.6348L23.2816 49.8848H23.5316C23.9691 49.8848 24.2191 49.7598 24.2816 49.5098V49.2598C24.2816 49.1973 24.1566 49.0723 23.9066 48.8848C23.24 49.1348 22.9066 49.3848 22.9066 49.6348ZM16.2816 49.3848V49.7598C16.3025 49.9264 16.3858 50.0098 16.5316 50.0098H17.6566C17.7816 50.0098 17.9483 49.8431 18.1566 49.5098C18.115 49.3431 17.9066 49.1764 17.5316 49.0098C16.74 49.2598 16.3233 49.3848 16.2816 49.3848ZM19.7816 49.5098V49.8848C19.865 49.8848 19.99 49.9264 20.1566 50.0098C20.99 49.7806 21.4066 49.5306 21.4066 49.2598C21.4066 49.0931 21.2816 49.0098 21.0316 49.0098C20.1983 49.1139 19.7816 49.2806 19.7816 49.5098ZM25.7816 49.3848V49.7598C25.8233 49.7598 25.99 49.8014 26.2816 49.8848C26.6983 49.3848 26.9066 49.0931 26.9066 49.0098H26.5316C26.0316 49.0514 25.7816 49.1764 25.7816 49.3848ZM4.53165 49.5098V49.6348C4.53165 49.7598 4.65665 49.8848 4.90665 50.0098C5.40665 49.9264 5.65665 49.8014 5.65665 49.6348V49.2598L5.03165 49.1348C4.69831 49.2598 4.53165 49.3848 4.53165 49.5098ZM9.90665 49.5098C10.0316 49.8431 10.1566 50.0098 10.2816 50.0098H10.6566L11.5316 49.7598V49.2598L10.9066 49.1348C10.5941 49.1348 10.2608 49.2598 9.90665 49.5098ZM13.1566 49.6348C13.1566 49.7598 13.2816 49.8848 13.5316 50.0098H14.2816C14.4066 50.0098 14.5316 49.8848 14.6566 49.6348V49.2598L14.0316 49.1348C13.4483 49.2389 13.1566 49.4056 13.1566 49.6348ZM7.28165 49.6348V49.7598C7.30248 49.9264 7.38581 50.0098 7.53165 50.0098H8.03165C8.15665 50.0098 8.28165 49.8848 8.40665 49.6348C8.40665 49.4681 8.32331 49.3848 8.15665 49.3848H7.53165C7.36498 49.4056 7.28165 49.4889 7.28165 49.6348ZM46.7816 1.13477C49.0316 1.13477 52.1983 1.17643 56.2816 1.25977C57.1358 1.25977 57.6358 2.5931 57.7816 5.25977V6.13477C57.3858 10.8014 56.3025 13.2181 54.5316 13.3848C54.5316 13.5514 53.6566 13.6764 51.9066 13.7598L43.5316 13.5098C43.365 13.8431 43.2816 14.0931 43.2816 14.2598C43.365 15.9264 43.4066 17.3848 43.4066 18.6348C43.5733 19.2181 43.9066 19.5098 44.4066 19.5098H45.4066C49.5733 19.5098 51.6566 19.7598 51.6566 20.2598C52.49 21.0723 52.9066 21.7389 52.9066 22.2598C52.9066 23.1348 52.865 23.8431 52.7816 24.3848C52.865 25.0306 52.9066 25.7389 52.9066 26.5098C52.9066 29.1764 52.1983 31.0931 50.7816 32.2598L50.1566 32.3848H49.6566C48.74 32.3848 47.9483 32.4681 47.2816 32.6348C46.49 32.5514 45.74 32.5098 45.0316 32.5098H44.1566C43.5733 32.5098 43.2816 32.8014 43.2816 33.3848V37.5098C43.2816 38.0723 43.6983 38.5306 44.5316 38.8848L45.4066 38.7598H51.0316C51.6983 38.7598 52.5733 38.8014 53.6566 38.8848C53.8233 38.8014 53.9483 38.7598 54.0316 38.7598C56.4483 38.7598 57.6566 39.4681 57.6566 40.8848C57.8233 41.4264 57.9066 41.8014 57.9066 42.0098C57.9066 42.5306 57.9483 43.9056 58.0316 46.1348C57.49 48.3848 56.6566 49.8848 55.5316 50.6348C51.865 51.3014 48.115 51.6348 44.2816 51.6348C36.365 51.5098 32.4066 51.2598 32.4066 50.8848C31.1566 50.2181 30.5316 49.0931 30.5316 47.5098V45.8848C30.5316 45.5098 30.5733 45.2598 30.6566 45.1348C30.5733 44.6764 30.5316 44.3014 30.5316 44.0098V43.3848C30.5316 42.0098 30.365 38.0098 30.0316 31.3848V29.0098C30.0316 25.6764 30.1566 22.8848 30.4066 20.6348V15.1348C30.24 13.2598 30.1566 12.2598 30.1566 12.1348C30.4691 8.13477 30.8858 6.13477 31.4066 6.13477C31.8858 4.86393 33.5525 3.48893 36.4066 2.00977C38.9483 1.42643 41.115 1.13477 42.9066 1.13477H46.7816ZM34.4066 8.50977C34.49 13.5098 34.6566 16.8848 34.9066 18.6348L34.7816 19.2598C34.865 19.8014 34.9066 20.3431 34.9066 20.8848C34.9066 21.2806 34.865 21.6973 34.7816 22.1348C34.865 22.5723 34.9066 22.9889 34.9066 23.3848C34.8233 24.2389 34.7816 24.7389 34.7816 24.8848C34.9483 25.2181 35.0316 25.4681 35.0316 25.6348L34.7816 27.2598L34.9066 27.8848C34.8233 28.6764 34.7816 29.4264 34.7816 30.1348C34.7816 30.7389 34.8233 31.1973 34.9066 31.5098L34.7816 32.7598C34.7816 34.0931 35.0316 38.4264 35.5316 45.7598C36.0108 46.4264 36.3441 46.7598 36.5316 46.7598C37.2191 46.7598 37.5941 46.7181 37.6566 46.6348C40.5316 46.7181 42.7816 46.7598 44.4066 46.7598H53.9066C54.9066 46.7598 55.6566 46.5098 56.1566 46.0098C56.0733 44.6348 56.0316 43.5931 56.0316 42.8848V41.2598C56.0316 40.5931 54.0316 40.2598 50.0316 40.2598H47.0316C46.2608 40.2598 45.1775 40.3014 43.7816 40.3848C42.4483 40.0098 41.7816 38.9264 41.7816 37.1348C41.6983 36.5514 41.6566 35.7181 41.6566 34.6348V33.1348C41.8233 30.5514 42.365 29.2598 43.2816 29.2598C43.4483 28.9264 44.0316 28.6348 45.0316 28.3848C45.24 28.3848 45.5733 28.4264 46.0316 28.5098L47.1566 28.3848C47.99 28.4681 48.615 28.5098 49.0316 28.5098C50.365 28.5098 51.0316 28.0514 51.0316 27.1348L51.1566 26.5098C50.99 25.5931 50.9066 24.9681 50.9066 24.6348C50.9066 24.4473 50.99 23.8223 51.1566 22.7598C51.1566 21.5931 49.74 21.0098 46.9066 21.0098H43.4066C42.4066 20.9473 41.9066 20.4889 41.9066 19.6348C41.9066 18.5098 41.865 16.5514 41.7816 13.7598C41.7816 10.9264 42.24 9.50977 43.1566 9.50977C43.49 9.44727 43.6566 9.36393 43.6566 9.25977L44.2816 9.38477C44.615 9.38477 46.5733 9.42643 50.1566 9.50977L50.4066 9.38477C50.5733 9.4681 50.6983 9.50977 50.7816 9.50977C53.8858 9.50977 55.5941 9.0931 55.9066 8.25977C55.99 6.5931 56.0316 5.3431 56.0316 4.50977V3.88477C56.0316 3.2181 55.2816 2.88477 53.7816 2.88477C52.5733 2.80143 49.74 2.7181 45.2816 2.63477C39.115 2.98893 36.0316 3.5306 36.0316 4.25977C34.9483 5.48893 34.4066 6.9056 34.4066 8.50977ZM32.6566 7.00977V7.88477H33.0316L33.1566 7.25977C33.1566 7.0931 33.0733 7.00977 32.9066 7.00977H32.6566ZM31.9066 11.0098V12.6348C31.9275 12.8014 32.0108 12.8848 32.1566 12.8848C32.74 12.6764 33.0316 12.1764 33.0316 11.3848V10.7598C33.0316 10.5306 32.9483 10.2806 32.7816 10.0098C32.1983 10.2181 31.9066 10.5514 31.9066 11.0098ZM45.1566 11.5098C45.24 11.7598 45.49 11.8848 45.9066 11.8848C46.0316 11.8848 46.1566 11.7598 46.2816 11.5098C46.2816 11.3848 46.1566 11.2598 45.9066 11.1348C45.4066 11.1764 45.1566 11.3014 45.1566 11.5098ZM51.2816 11.5098V11.7598L51.9066 11.8848H52.0316C52.1566 11.8848 52.2816 11.7598 52.4066 11.5098V11.3848C52.4066 11.2181 52.3233 11.1348 52.1566 11.1348H52.0316C51.5316 11.1764 51.2816 11.3014 51.2816 11.5098ZM48.0316 11.2598V11.7598L48.6566 11.8848H49.0316L49.6566 11.7598V11.2598H48.0316ZM54.0316 11.2598V11.6348H54.1566C54.3233 11.6348 54.4066 11.5514 54.4066 11.3848L54.1566 11.2598H54.0316ZM31.9066 15.3848V16.6348C31.9691 17.1348 32.0941 17.3848 32.2816 17.3848H32.5316C32.9483 16.2806 33.1566 15.6973 33.1566 15.6348V14.3848C33.1566 14.2598 33.0316 14.1348 32.7816 14.0098H32.6566C32.4066 14.0098 32.1566 14.4681 31.9066 15.3848ZM32.6566 17.8848L31.9066 19.7598V20.8848C31.9066 21.0098 32.0316 21.1348 32.2816 21.2598H32.4066L33.1566 19.6348C33.1566 19.4264 33.1983 19.0931 33.2816 18.6348C33.115 18.1764 32.9066 17.9264 32.6566 17.8848ZM32.5316 21.7598C32.115 22.5931 31.9066 23.2598 31.9066 23.7598C31.8233 23.8639 31.7816 24.1556 31.7816 24.6348C31.9483 25.0723 32.1566 25.3223 32.4066 25.3848C32.99 24.1973 33.2816 23.1139 33.2816 22.1348L32.7816 21.7598H32.5316ZM31.7816 27.7598V28.8848C31.7816 29.0514 31.99 29.1348 32.4066 29.1348C32.99 27.7806 33.2816 26.9473 33.2816 26.6348C33.115 26.1348 32.9483 25.8848 32.7816 25.8848C32.115 26.7389 31.7816 27.3639 31.7816 27.7598ZM31.7816 32.7598C31.7816 33.0723 31.99 33.4473 32.4066 33.8848V34.5098L31.9066 35.2598V37.1348C31.9066 37.2598 32.0316 37.3848 32.2816 37.5098C32.9483 37.0931 33.2816 36.2598 33.2816 35.0098C33.2816 34.6556 33.0316 34.1973 32.5316 33.6348V33.2598C32.9483 32.2389 33.1566 31.6139 33.1566 31.3848V30.5098C33.1566 30.4264 33.1983 30.3848 33.2816 30.3848C33.115 29.8848 32.9483 29.6348 32.7816 29.6348C32.115 30.3431 31.7816 31.3848 31.7816 32.7598ZM46.4066 30.6348V30.7598C46.4275 30.9264 46.5108 31.0098 46.6566 31.0098H46.7816C47.24 31.0098 47.5733 30.8014 47.7816 30.3848V30.1348C47.7816 29.9681 47.6983 29.8848 47.5316 29.8848C47.0941 29.8848 46.7191 30.1348 46.4066 30.6348ZM49.2816 30.7598L49.5316 30.8848C49.6566 30.8848 49.8233 30.7181 50.0316 30.3848V30.2598H49.7816C49.6566 30.2598 49.49 30.4264 49.2816 30.7598ZM44.1566 30.7598V30.8848H44.6566V30.5098H44.4066C44.24 30.5306 44.1566 30.6139 44.1566 30.7598ZM32.0316 39.6348V41.3848H32.4066C33.0733 40.8848 33.4066 40.3431 33.4066 39.7598C33.2816 38.8431 33.115 38.3848 32.9066 38.3848H32.7816C32.2816 38.7181 32.0316 39.1348 32.0316 39.6348ZM32.1566 43.6348C32.1566 44.8014 32.4483 45.3848 33.0316 45.3848C33.3441 45.3848 33.6358 44.9681 33.9066 44.1348C33.74 42.8014 33.5316 42.1348 33.2816 42.1348H33.0316C32.4483 42.6973 32.1566 43.1973 32.1566 43.6348ZM32.4066 48.0098C32.5108 48.3848 32.6775 48.5931 32.9066 48.6348C33.74 48.1764 34.1566 47.6764 34.1566 47.1348V47.0098C34.1566 46.5723 34.0316 46.3223 33.7816 46.2598C32.865 46.4889 32.4066 47.0723 32.4066 48.0098ZM40.5316 49.1348V49.2598C40.6983 49.5514 40.9483 49.7598 41.2816 49.8848C41.365 49.8848 41.7816 49.6348 42.5316 49.1348H43.1566C43.5525 49.5514 44.0108 49.7598 44.5316 49.7598H44.6566C45.0941 49.7598 45.5941 49.3848 46.1566 48.6348C46.1566 48.5098 46.0316 48.3848 45.7816 48.2598C45.7191 48.2598 45.1775 48.4681 44.1566 48.8848H43.9066C43.6775 48.8848 43.1775 48.6348 42.4066 48.1348C41.1566 48.6973 40.5316 49.0306 40.5316 49.1348ZM50.4066 49.2598V49.3848C50.4066 49.5098 50.5733 49.6348 50.9066 49.7598C51.99 49.3639 52.5316 49.0723 52.5316 48.8848V48.3848L51.9066 48.2598C51.49 48.2806 50.99 48.6139 50.4066 49.2598ZM53.9066 48.8848V49.1348C53.9066 49.3014 54.0316 49.3848 54.2816 49.3848C54.9483 49.0931 55.2816 48.7598 55.2816 48.3848L55.0316 48.2598H54.6566C54.1566 48.5723 53.9066 48.7806 53.9066 48.8848ZM34.7816 49.2598V49.3848C34.8025 49.5514 34.8858 49.6348 35.0316 49.6348H35.4066C36.1358 49.0723 36.5108 48.6973 36.5316 48.5098L36.2816 48.3848C35.8441 48.3848 35.3441 48.6764 34.7816 49.2598ZM37.2816 49.2598V49.3848C37.2816 49.5098 37.4483 49.6348 37.7816 49.7598C38.5941 49.7598 39.3441 49.3848 40.0316 48.6348C40.0316 48.4681 39.9483 48.3848 39.7816 48.3848H38.7816C38.3025 48.3848 37.8025 48.6764 37.2816 49.2598ZM46.9066 49.2598V49.3848C46.9066 49.5723 47.115 49.6973 47.5316 49.7598C48.365 49.7598 49.0316 49.3848 49.5316 48.6348C49.5316 48.4681 49.4483 48.3848 49.2816 48.3848H48.4066C47.9691 48.3848 47.4691 48.6764 46.9066 49.2598ZM90.7816 1.00977H93.5316C97.1358 1.50977 99.5108 2.25977 100.657 3.25977C101.865 4.11393 102.907 5.4056 103.782 7.13477L104.657 10.0098L105.157 13.5098C104.073 16.5098 103.24 18.0098 102.657 18.0098C102.657 18.4264 101.365 18.8848 98.7816 19.3848H98.5316C95.7816 18.9056 94.4066 18.4056 94.4066 17.8848C93.8858 17.8848 93.3858 16.4681 92.9066 13.6348C92.6358 13.4681 92.3858 13.3848 92.1566 13.3848H91.9066C91.1358 13.3848 90.1358 14.0514 88.9066 15.3848C88.9066 15.6139 88.615 16.9473 88.0316 19.3848C87.9483 20.6764 87.9066 22.0098 87.9066 23.3848V28.2598C87.9066 31.0098 88.24 33.3014 88.9066 35.1348C89.8233 38.1348 91.0733 39.6348 92.6566 39.6348C93.4275 39.6348 94.0941 39.2181 94.6566 38.3848V38.0098C94.6566 37.7598 94.615 37.6348 94.5316 37.6348C94.5316 35.8431 94.9483 34.6348 95.7816 34.0098C96.6775 32.9264 98.3025 32.3848 100.657 32.3848C100.782 32.3223 101.365 32.1556 102.407 31.8848H102.907C105.407 31.8848 106.657 33.0098 106.657 35.2598C106.49 36.2598 106.407 37.0514 106.407 37.6348V38.2598C105.469 41.3639 104.302 43.6556 102.907 45.1348C101.407 47.8014 98.9483 49.8014 95.5316 51.1348C94.5108 51.2181 93.4275 51.3848 92.2816 51.6348C89.115 51.6348 86.6983 51.2181 85.0316 50.3848C84.865 50.3848 83.8233 49.7598 81.9066 48.5098C79.6566 46.3223 78.1983 44.0306 77.5316 41.6348C77.24 41.4264 76.7816 39.9264 76.1566 37.1348C76.1566 35.5514 75.9066 33.8848 75.4066 32.1348C75.3233 29.6556 75.2816 27.5723 75.2816 25.8848C75.2816 25.6348 75.3233 25.3431 75.4066 25.0098C75.3233 24.5723 75.2816 24.1556 75.2816 23.7598V23.0098C75.2816 22.2181 75.3233 21.2598 75.4066 20.1348L75.2816 19.3848C75.9483 15.3223 76.2816 12.9473 76.2816 12.2598C76.5108 11.9264 76.9691 10.8431 77.6566 9.00977C79.365 6.5306 81.1983 4.7806 83.1566 3.75977C84.8233 2.44727 87.365 1.5306 90.7816 1.00977ZM92.2816 2.88477H90.0316C88.9483 2.88477 87.2816 3.38477 85.0316 4.38477C83.2816 5.7806 82.4066 6.7806 82.4066 7.38477C81.3233 9.0306 80.7816 10.9473 80.7816 13.1348C80.2816 13.6973 80.0316 17.2389 80.0316 23.7598V28.1348C80.0316 29.7389 80.3233 32.3223 80.9066 35.8848C80.9066 37.0514 81.5316 39.2181 82.7816 42.3848C84.8858 45.8848 88.3858 47.6348 93.2816 47.6348H93.5316C94.6775 47.6348 96.2191 47.3014 98.1566 46.6348C99.1983 46.2389 100.615 45.0723 102.407 43.1348C103.948 40.7181 104.823 38.2598 105.032 35.7598V35.3848C105.032 34.2181 104.573 33.6348 103.657 33.6348H103.282C100.844 33.6348 99.4691 34.1764 99.1566 35.2598C99.0108 35.2598 98.9275 35.4681 98.9066 35.8848L99.1566 36.7598C98.5941 38.5514 97.6775 39.8431 96.4066 40.6348C95.0941 41.2181 94.3441 41.5098 94.1566 41.5098C91.24 41.5098 89.1983 40.1764 88.0316 37.5098C87.8441 37.5098 87.3858 36.3014 86.6566 33.8848C86.24 28.0723 86.0316 24.9889 86.0316 24.6348C86.4483 18.0514 86.9483 14.7598 87.5316 14.7598C87.5316 13.2598 88.6983 11.5098 91.0316 9.50977C92.0316 9.17643 92.74 9.00977 93.1566 9.00977C95.6566 9.75977 96.9066 10.5514 96.9066 11.3848C97.2608 11.3848 97.5108 12.5098 97.6566 14.7598C98.2816 15.1764 98.74 15.3848 99.0316 15.3848H99.4066C99.5941 15.3848 99.7608 15.3431 99.9066 15.2598C100.094 15.3431 100.469 15.4264 101.032 15.5098C102.698 14.9264 103.532 14.1764 103.532 13.2598C103.365 11.7181 102.99 9.92643 102.407 7.88477C101.407 6.00977 100.282 4.80143 99.0316 4.25977C97.9275 3.5931 95.9691 3.0931 93.1566 2.75977L92.2816 2.88477ZM93.2816 10.8848V11.2598C93.3025 11.4264 93.3858 11.5098 93.5316 11.5098H94.0316V11.3848C93.9066 11.0514 93.7816 10.8848 93.6566 10.8848H93.2816ZM78.1566 12.8848V13.0098H78.5316C79.0316 12.6764 79.2816 12.2598 79.2816 11.7598V11.3848H79.0316C78.4483 11.6348 78.1566 12.1348 78.1566 12.8848ZM94.1566 11.6348C94.3025 12.4681 94.4691 12.8848 94.6566 12.8848H94.9066C95.0316 12.8848 95.1983 12.7181 95.4066 12.3848V11.8848C95.4066 11.7181 95.3233 11.6348 95.1566 11.6348H94.1566ZM94.9066 14.7598L95.1566 15.2598C95.3858 15.2389 95.5941 15.0306 95.7816 14.6348C95.6775 14.2181 95.5525 14.0098 95.4066 14.0098H95.2816C95.0316 14.0931 94.9066 14.3431 94.9066 14.7598ZM77.4066 16.1348C77.4691 16.5514 77.5941 16.7598 77.7816 16.7598H77.9066C78.49 16.0931 78.7816 15.5514 78.7816 15.1348V14.7598C78.7816 14.5931 78.6983 14.5098 78.5316 14.5098H78.4066C77.74 15.1764 77.4066 15.7181 77.4066 16.1348ZM95.6566 16.3848C95.6566 16.5098 95.8233 16.6764 96.1566 16.8848H96.4066C96.5733 16.8848 96.6566 16.8014 96.6566 16.6348V16.5098C96.6566 16.3848 96.49 16.2181 96.1566 16.0098H96.0316C95.9066 16.0098 95.7816 16.1348 95.6566 16.3848ZM97.6566 17.1348C97.74 17.4681 97.99 17.6348 98.4066 17.6348C98.5733 17.5514 98.6983 17.5098 98.7816 17.5098V17.2598C98.7816 17.0931 98.6983 17.0098 98.5316 17.0098H97.9066L97.6566 17.1348ZM77.1566 19.6348C77.1566 19.7598 77.2816 19.8848 77.5316 20.0098H77.6566C78.4066 19.3223 78.7816 18.8223 78.7816 18.5098C78.7816 18.3848 78.6983 18.0098 78.5316 17.3848H78.2816C77.5316 18.0098 77.1566 18.7598 77.1566 19.6348ZM77.1566 22.2598V22.5098C77.1775 22.6764 77.2608 22.7598 77.4066 22.7598H77.6566C77.9066 22.7598 78.1983 22.2181 78.5316 21.1348V20.8848H78.2816C77.5316 21.3639 77.1566 21.8223 77.1566 22.2598ZM77.1566 25.7598V25.8848C77.1775 26.0514 77.2608 26.1348 77.4066 26.1348H77.6566C78.24 25.6139 78.5316 25.0306 78.5316 24.3848C78.4483 24.0514 78.2816 23.8848 78.0316 23.8848C77.5108 23.8848 77.2191 24.5098 77.1566 25.7598ZM77.2816 28.0098V28.8848C77.3025 29.0514 77.3858 29.1348 77.5316 29.1348H77.7816C78.2816 28.8639 78.5316 28.4056 78.5316 27.7598V27.1348C78.0733 27.1348 77.6566 27.4264 77.2816 28.0098ZM77.2816 31.5098C77.4066 31.8431 77.615 32.0931 77.9066 32.2598C78.4066 31.4056 78.6566 30.8639 78.6566 30.6348C78.6566 30.3014 78.49 30.0931 78.1566 30.0098C77.5733 30.1973 77.2816 30.6973 77.2816 31.5098ZM77.4066 34.2598V34.6348C77.4066 34.7598 77.5733 34.9264 77.9066 35.1348H78.0316C78.5316 34.2389 78.7816 33.6973 78.7816 33.5098V33.1348C78.7816 33.0306 78.5733 32.8223 78.1566 32.5098C78.0108 32.5098 77.7608 33.0931 77.4066 34.2598ZM96.7816 35.1348C96.7816 35.1764 96.74 35.3431 96.6566 35.6348L96.9066 35.7598C97.0733 35.7598 97.1566 35.6764 97.1566 35.5098V35.1348H96.7816ZM78.2816 35.5098C78.2816 35.8431 78.115 36.2598 77.7816 36.7598C77.7816 37.1973 78.0316 37.5723 78.5316 37.8848H78.7816C79.1983 37.6764 79.4066 37.2598 79.4066 36.6348C79.4066 36.1973 79.1566 35.8223 78.6566 35.5098H78.2816ZM96.4066 37.8848L96.6566 38.0098H96.7816C96.9691 38.0098 97.0941 37.8014 97.1566 37.3848L96.9066 37.2598C96.74 37.3014 96.5733 37.5098 96.4066 37.8848ZM78.5316 39.6348C78.5316 40.0723 78.9066 40.6139 79.6566 41.2598C79.7191 42.9264 79.9691 43.7598 80.4066 43.7598H80.5316C80.6566 43.7598 80.9066 43.5098 81.2816 43.0098V42.7598L79.9066 40.8848V40.0098C79.8441 39.1764 79.5941 38.7598 79.1566 38.7598C78.74 38.8848 78.5316 39.1764 78.5316 39.6348ZM81.0316 44.6348C81.0316 45.2181 81.4066 45.7181 82.1566 46.1348C82.6983 45.9264 82.99 45.7181 83.0316 45.5098C82.615 44.7181 82.1983 44.2598 81.7816 44.1348C81.2816 44.3014 81.0316 44.4681 81.0316 44.6348ZM83.6566 46.2598C83.3233 46.6348 83.1566 46.8431 83.1566 46.8848C83.1566 47.3639 83.4483 47.7389 84.0316 48.0098H84.2816C84.7816 48.0098 85.0316 47.8014 85.0316 47.3848C84.5525 46.6348 84.0941 46.2598 83.6566 46.2598ZM85.6566 48.6348V48.7598C85.8441 49.1764 86.4691 49.3848 87.5316 49.3848L87.9066 48.8848C87.7191 48.5723 87.3858 48.2806 86.9066 48.0098H86.6566C86.1983 48.0098 85.865 48.2181 85.6566 48.6348ZM88.9066 49.6348V49.7598C88.9066 49.8431 89.0733 49.9681 89.4066 50.1348C89.9483 50.1348 90.2816 49.7598 90.4066 49.0098L90.1566 48.8848C89.7191 48.8848 89.3025 49.1348 88.9066 49.6348ZM91.9066 49.7598V50.0098L92.4066 50.1348C92.74 50.0098 92.9066 49.8848 92.9066 49.7598V49.5098C92.615 49.4264 92.4483 49.3848 92.4066 49.3848C92.0733 49.5098 91.9066 49.6348 91.9066 49.7598ZM120.907 0.884766C126.011 0.884766 128.927 1.17643 129.657 1.75977C131.011 1.75977 132.761 2.92643 134.907 5.25977C136.261 7.44727 137.052 9.23893 137.282 10.6348C137.698 11.6348 137.907 13.0098 137.907 14.7598V16.3848C137.907 20.4681 137.657 22.5098 137.157 22.5098C137.157 23.9889 135.865 25.8223 133.282 28.0098C132.823 28.3431 131.698 28.7598 129.907 29.2598L129.657 29.6348V29.7598C129.657 30.1139 131.49 32.9056 135.157 38.1348C137.907 42.0931 139.74 44.9681 140.657 46.7598C141.073 47.3014 141.282 47.7181 141.282 48.0098V48.3848C141.282 49.2181 140.407 50.2181 138.657 51.3848C138.511 51.4681 138.302 51.5098 138.032 51.5098C136.99 51.5098 134.157 51.5514 129.532 51.6348C128.552 51.6348 127.261 50.0098 125.657 46.7598C123.698 43.4264 122.573 41.6348 122.282 41.3848C122.115 41.3848 122.032 41.5098 122.032 41.7598C122.032 42.3639 122.115 43.4473 122.282 45.0098C122.198 45.4473 122.157 45.6973 122.157 45.7598C122.157 45.8223 122.198 46.0723 122.282 46.5098C122.282 49.0723 121.365 50.7806 119.532 51.6348C119.24 51.6348 118.865 51.5931 118.407 51.5098C117.094 51.5931 116.136 51.6348 115.532 51.6348C115.115 51.6348 114.615 51.5931 114.032 51.5098C113.552 51.5931 112.886 51.6348 112.032 51.6348H111.532L110.782 51.5098C110.657 51.5931 110.407 51.6348 110.032 51.6348C109.219 51.6348 108.761 49.7181 108.657 45.8848C108.657 45.3431 108.698 44.8014 108.782 44.2598C108.698 43.3848 108.657 42.4264 108.657 41.3848V39.7598C108.657 39.4056 108.615 38.9473 108.532 38.3848C108.532 38.3014 108.573 38.2598 108.657 38.2598C108.657 37.8848 108.615 37.6348 108.532 37.5098C108.448 33.0098 108.407 29.6348 108.407 27.3848V16.3848C108.407 15.9264 108.365 15.3431 108.282 14.6348C108.365 14.6139 108.407 14.1973 108.407 13.3848V12.8848C108.407 11.9889 108.365 11.2806 108.282 10.7598C108.365 10.1556 108.407 9.4056 108.407 8.50977V7.13477C108.448 5.6556 109.282 4.0306 110.907 2.25977C112.24 1.3431 115.115 0.884766 119.532 0.884766H120.907ZM112.407 3.75977V5.00977C112.407 5.67643 112.448 6.4681 112.532 7.38477C112.532 7.4681 112.49 7.50977 112.407 7.50977L112.532 9.00977V11.7598C112.532 12.4056 112.573 12.9889 112.657 13.5098C112.573 13.9056 112.532 14.4473 112.532 15.1348C112.532 15.9681 112.573 17.0098 112.657 18.2598C112.573 18.9681 112.532 19.5098 112.532 19.8848C112.615 20.9681 112.657 21.8431 112.657 22.5098C112.657 22.5723 112.615 22.8223 112.532 23.2598L112.782 25.3848L112.657 26.2598C112.74 27.1764 112.782 28.0098 112.782 28.7598H112.657C112.761 28.8848 112.844 29.3014 112.907 30.0098C112.907 30.2181 112.865 30.5514 112.782 31.0098C112.865 31.6556 112.907 32.3639 112.907 33.1348C112.907 33.2181 112.865 33.2598 112.782 33.2598L112.907 33.5098V37.3848C113.073 39.2598 113.157 40.2598 113.157 40.3848V44.0098C112.99 45.8848 112.907 46.8848 112.907 47.0098V47.2598C112.99 47.5098 113.24 47.6348 113.657 47.6348H120.282C120.407 47.6348 120.532 47.5098 120.657 47.2598C120.657 46.2181 120.573 41.8431 120.407 34.1348C120.532 33.5514 120.698 33.2598 120.907 33.2598H121.532C122.177 33.7181 123.136 34.8431 124.407 36.6348C126.823 40.3014 128.99 43.8431 130.907 47.2598C131.073 47.4056 131.782 47.5306 133.032 47.6348C133.49 47.5514 133.823 47.5098 134.032 47.5098C134.407 47.5098 134.948 47.5514 135.657 47.6348C136.302 47.5514 136.969 47.5098 137.657 47.5098L138.782 47.6348L138.907 47.3848V47.1348C137.386 44.2806 134.219 39.4889 129.407 32.7598L127.032 29.0098V28.7598C127.032 27.9264 127.99 27.5098 129.907 27.5098C130.907 27.5098 132.282 26.7598 134.032 25.2598C135.698 22.7598 136.532 20.2598 136.532 17.7598C136.615 17.7598 136.657 17.3848 136.657 16.6348C136.657 14.3014 135.948 11.3848 134.532 7.88477C133.282 5.73893 132.24 4.5306 131.407 4.25977C130.157 3.3431 128.407 2.88477 126.157 2.88477C126.011 2.63477 124.511 2.4681 121.657 2.38477H118.907C114.865 2.63477 112.698 3.0931 112.407 3.75977ZM110.657 5.63477C110.24 6.67643 110.032 7.25977 110.032 7.38477H110.157C110.74 7.2181 111.032 6.88477 111.032 6.38477V5.88477C111.032 5.7181 110.948 5.63477 110.782 5.63477H110.657ZM109.782 10.1348V11.1348C109.802 11.3014 109.886 11.3848 110.032 11.3848C110.698 10.9056 111.032 10.4056 111.032 9.88477V9.00977C111.032 8.8431 110.948 8.75977 110.782 8.75977H110.657C110.073 9.25977 109.782 9.7181 109.782 10.1348ZM123.532 9.00977C125.282 9.00977 126.823 9.75977 128.157 11.2598C128.74 12.1973 129.198 13.6556 129.532 15.6348C129.615 15.6348 129.657 15.7181 129.657 15.8848C129.24 18.5514 128.782 19.8848 128.282 19.8848C127.573 21.2181 126.115 21.8848 123.907 21.8848C123.844 21.9681 123.469 22.0098 122.782 22.0098C120.782 22.0098 119.782 21.6348 119.782 20.8848C119.782 19.9681 119.74 19.5098 119.657 19.5098L119.782 18.0098V11.0098C119.782 10.0098 120.407 9.50977 121.657 9.50977C121.657 9.2806 122.282 9.11393 123.532 9.00977ZM123.907 11.0098L123.782 11.2598C123.802 11.4264 123.886 11.5098 124.032 11.5098L124.157 11.2598C124.157 11.0931 124.073 11.0098 123.907 11.0098ZM125.407 11.7598V12.1348C125.407 12.3848 125.657 12.5098 126.157 12.5098C126.115 11.7598 125.99 11.3848 125.782 11.3848C125.657 11.3848 125.532 11.5098 125.407 11.7598ZM109.782 14.7598L110.032 14.8848H110.157C110.74 14.4681 111.032 14.0098 111.032 13.5098V13.0098C111.032 12.7806 110.948 12.5306 110.782 12.2598C110.115 12.6139 109.782 13.4473 109.782 14.7598ZM126.407 12.8848V13.5098L126.532 14.1348H127.032L127.157 13.5098V13.2598C127.073 13.0098 126.823 12.8848 126.407 12.8848ZM121.282 14.2598V19.5098C121.282 20.0931 121.782 20.3848 122.782 20.3848H123.907C124.74 20.3848 125.157 19.8431 125.157 18.7598C125.157 18.3848 125.198 17.8431 125.282 17.1348C125.282 14.9056 124.782 13.6556 123.782 13.3848C123.782 13.1973 123.407 13.0723 122.657 13.0098C121.74 13.0723 121.282 13.4889 121.282 14.2598ZM127.282 15.2598L127.157 15.8848V16.0098C127.177 16.1764 127.261 16.2598 127.407 16.2598H127.532C127.698 16.2598 127.782 16.1764 127.782 16.0098V15.5098C127.782 15.3431 127.698 15.2598 127.532 15.2598H127.282ZM109.907 18.7598L110.032 19.0098C110.698 18.7389 111.032 18.3639 111.032 17.8848V16.7598L110.907 16.1348H110.657C110.198 16.1348 109.948 17.0098 109.907 18.7598ZM110.657 20.2598C110.24 20.8431 110.032 21.3848 110.032 21.8848V23.0098C110.052 23.1764 110.136 23.2598 110.282 23.2598C110.782 23.0514 111.032 22.7181 111.032 22.2598V20.6348C111.032 20.5098 110.907 20.3848 110.657 20.2598ZM110.532 24.5098C110.302 25.2598 110.136 25.6348 110.032 25.6348L110.157 26.2598C110.157 26.4473 110.115 26.6139 110.032 26.7598C110.157 27.0931 110.282 27.2598 110.407 27.2598H110.657C110.927 27.2598 111.094 26.5098 111.157 25.0098C111.032 24.6764 110.907 24.5098 110.782 24.5098H110.532ZM110.157 30.6348L110.532 30.8848H110.657C110.99 30.7806 111.157 30.4056 111.157 29.7598V29.5098C111.157 29.0723 111.032 28.8223 110.782 28.7598H110.657C110.448 28.7598 110.282 29.3848 110.157 30.6348ZM110.157 33.3848C110.261 33.9473 110.427 34.3223 110.657 34.5098C110.99 34.4264 111.157 34.1764 111.157 33.7598V33.0098L111.032 32.3848H110.657C110.49 32.3848 110.323 32.7181 110.157 33.3848ZM110.407 36.8848V37.6348C110.407 37.7598 110.532 37.8848 110.782 38.0098C110.907 38.0098 111.032 37.8848 111.157 37.6348V36.3848C111.157 36.2181 111.073 36.1348 110.907 36.1348H110.782C110.532 36.2181 110.407 36.4681 110.407 36.8848ZM122.282 36.6348L122.032 37.0098V37.6348C122.032 37.7598 122.157 37.8848 122.407 38.0098H122.532L122.657 36.8848L122.282 36.6348ZM122.782 38.3848V38.5098C122.948 39.4264 123.365 39.8848 124.032 39.8848C124.198 39.8848 124.282 39.7598 124.282 39.5098C124.282 38.9056 123.782 38.5306 122.782 38.3848ZM110.532 40.3848V41.3848C110.552 41.5514 110.636 41.6348 110.782 41.6348C111.115 41.6348 111.282 41.0514 111.282 39.8848C111.115 39.8848 111.032 39.8014 111.032 39.6348C110.698 39.7181 110.532 39.9681 110.532 40.3848ZM124.532 40.6348C124.532 40.8223 124.49 40.9889 124.407 41.1348C124.552 41.8848 124.719 42.2598 124.907 42.2598H125.282L125.407 41.6348V41.5098C125.407 41.0514 125.24 40.7598 124.907 40.6348H124.532ZM125.907 42.8848L125.657 43.2598C126.052 44.5098 126.427 45.1348 126.782 45.1348C126.948 45.1348 127.032 45.0514 127.032 44.8848V44.2598C127.032 43.3431 126.657 42.8848 125.907 42.8848ZM110.907 43.2598C110.657 43.5723 110.532 43.8639 110.532 44.1348V45.3848C110.552 45.5514 110.636 45.6348 110.782 45.6348C111.011 45.6348 111.177 45.2181 111.282 44.3848V43.3848C111.198 43.3848 111.073 43.3431 110.907 43.2598ZM127.282 45.3848V46.3848C127.282 46.5098 127.448 46.6764 127.782 46.8848H127.907C128.24 46.7181 128.407 46.5098 128.407 46.2598C128.115 45.6764 127.74 45.3848 127.282 45.3848ZM110.532 47.6348V48.1348C110.552 48.3014 110.636 48.3848 110.782 48.3848C110.907 48.3848 111.032 48.2598 111.157 48.0098L111.032 47.3848H110.782C110.615 47.4056 110.532 47.4889 110.532 47.6348ZM128.532 48.1348V48.3848C128.552 48.5514 128.636 48.6348 128.782 48.6348H129.157C129.282 48.6348 129.407 48.5098 129.532 48.2598V48.0098C129.532 47.8431 129.448 47.7598 129.282 47.7598H128.907C128.782 47.7598 128.657 47.8848 128.532 48.1348ZM112.032 50.0098H112.532C113.073 50.0098 113.448 49.8431 113.657 49.5098C113.573 49.1764 113.323 49.0098 112.907 49.0098C112.386 49.0098 112.094 49.3431 112.032 50.0098ZM132.907 49.5098V49.7598C132.927 49.9264 133.011 50.0098 133.157 50.0098C133.615 50.0098 133.948 49.8014 134.157 49.3848C134.157 49.2598 134.032 49.1348 133.782 49.0098C133.344 49.0098 133.052 49.1764 132.907 49.5098ZM135.907 49.3848V49.7598C136.532 49.7598 136.865 49.6348 136.907 49.3848V49.2598C136.907 49.0931 136.823 49.0098 136.657 49.0098C136.157 49.0514 135.907 49.1764 135.907 49.3848ZM115.282 49.6348V49.8848C115.302 50.0514 115.386 50.1348 115.532 50.1348H115.657C116.115 50.1348 116.448 49.9264 116.657 49.5098V49.2598L116.032 49.1348C115.698 49.1348 115.448 49.3014 115.282 49.6348ZM130.657 49.8848L130.907 50.0098C131.24 49.9264 131.407 49.6764 131.407 49.2598L131.157 49.1348H131.032C130.782 49.2181 130.657 49.4681 130.657 49.8848ZM118.782 49.2598V49.7598H119.157C119.323 49.7598 119.407 49.6764 119.407 49.5098V49.2598H118.782ZM158.719 1.00977C160.219 1.00977 162.177 1.30143 164.594 1.88477C166.344 2.19727 168.052 3.44727 169.719 5.63477C171.136 8.36393 171.844 10.7389 171.844 12.7598C172.094 12.7598 172.344 14.5098 172.594 18.0098V28.5098C172.427 32.4264 172.094 36.4681 171.594 40.6348C171.136 41.5723 170.719 42.6139 170.344 43.7598C169.74 44.7806 169.073 45.7389 168.344 46.6348C167.677 48.3014 166.094 49.6764 163.594 50.7598C161.948 51.3431 160.573 51.6348 159.469 51.6348H157.969L156.469 51.5098C156.032 51.5931 155.782 51.6348 155.719 51.6348C154.365 51.5514 153.032 51.5098 151.719 51.5098H151.469C147.969 50.8639 146.219 50.3223 146.219 49.8848C145.49 49.8848 144.407 49.0098 142.969 47.2598C142.552 46.8014 142.177 45.8848 141.844 44.5098C141.511 44.5098 141.219 42.8014 140.969 39.3848C140.719 37.4056 140.594 36.1139 140.594 35.5098V31.5098C140.594 31.3848 140.677 30.3848 140.844 28.5098V28.3848C140.594 22.9056 140.469 18.5306 140.469 15.2598C140.469 15.0306 140.511 14.1973 140.594 12.7598C140.511 12.5931 140.469 12.4681 140.469 12.3848C141.032 10.7389 141.407 9.4056 141.594 8.38477C142.261 6.9056 143.511 5.32227 145.344 3.63477L147.969 2.38477C148.657 2.07227 150.532 1.82227 153.594 1.63477C153.594 1.32227 155.302 1.11393 158.719 1.00977ZM144.969 15.7598L145.219 20.3848C145.136 20.9681 145.094 21.4681 145.094 21.8848L145.219 26.1348L145.094 27.0098C145.177 27.5306 145.219 28.1139 145.219 28.7598V29.2598C145.219 30.0723 145.177 30.4889 145.094 30.5098C145.177 31.2181 145.219 31.8014 145.219 32.2598V38.7598C145.219 39.6139 145.594 41.1973 146.344 43.5098C147.177 44.9681 148.261 46.0514 149.594 46.7598C152.011 47.3431 153.427 47.6348 153.844 47.6348H161.469C163.177 47.6348 165.011 46.9264 166.969 45.5098C168.802 43.4681 169.719 41.5514 169.719 39.7598C170.177 39.7598 170.427 37.5931 170.469 33.2598C170.469 33.0931 170.677 30.8014 171.094 26.3848V19.7598C170.594 14.4681 169.969 10.5931 169.219 8.13477C169.157 8.13477 168.782 7.4681 168.094 6.13477C166.719 4.55143 165.552 3.75977 164.594 3.75977C164.594 3.30143 162.802 3.05143 159.219 3.00977C154.052 3.00977 151.469 3.25977 151.469 3.75977C150.261 3.75977 148.761 4.88477 146.969 7.13477C146.427 8.05143 145.969 9.13477 145.594 10.3848C145.302 10.3848 145.094 12.1764 144.969 15.7598ZM143.469 8.50977V8.63477H143.844C144.511 8.19727 144.844 7.82227 144.844 7.50977L144.594 7.38477C143.844 7.48893 143.469 7.86393 143.469 8.50977ZM142.594 11.3848L142.969 11.6348C143.552 11.3848 143.844 10.9681 143.844 10.3848C143.677 10.3848 143.594 10.3014 143.594 10.1348C142.927 10.4889 142.594 10.9056 142.594 11.3848ZM158.719 11.0098C161.302 11.0098 162.594 12.0931 162.594 14.2598C162.594 15.2389 162.636 16.7806 162.719 18.8848C162.719 18.9681 162.677 19.0098 162.594 19.0098L162.719 19.8848V36.2598C162.24 38.5098 161.448 39.6348 160.344 39.6348C160.344 39.8014 160.011 39.9264 159.344 40.0098L158.094 39.8848L156.844 40.0098C154.677 39.6348 153.594 38.8431 153.594 37.6348C153.427 37.6348 153.261 31.9681 153.094 20.6348V17.2598C153.094 16.4264 153.052 15.4264 152.969 14.2598C152.969 12.1764 153.802 11.1348 155.469 11.1348H156.344C157.136 11.1348 157.927 11.0931 158.719 11.0098ZM156.719 13.2598C156.802 13.5098 157.052 13.6348 157.469 13.6348C157.657 13.6348 157.907 13.5098 158.219 13.2598C158.136 12.9264 157.886 12.7598 157.469 12.7598C157.136 12.7598 156.886 12.9264 156.719 13.2598ZM154.969 13.0098V13.3848H155.219C155.386 13.3848 155.469 13.3014 155.469 13.1348L155.219 13.0098H154.969ZM159.094 13.7598C159.282 14.2598 159.573 14.5098 159.969 14.5098C160.302 13.8014 160.469 13.3431 160.469 13.1348L160.219 13.0098H159.969C159.386 13.0098 159.094 13.2598 159.094 13.7598ZM142.469 14.1348V15.1348H142.844C143.115 15.1348 143.282 14.5098 143.344 13.2598L143.094 13.1348H142.844C142.594 13.1764 142.469 13.5098 142.469 14.1348ZM160.219 15.1348L160.094 15.7598L160.219 16.3848H160.469C160.657 16.3848 160.782 16.1764 160.844 15.7598C160.677 15.4889 160.594 15.2806 160.594 15.1348H160.219ZM154.844 16.2598V22.1348C154.844 25.1348 154.886 28.5514 154.969 32.3848C154.886 32.9889 154.844 33.7389 154.844 34.6348C155.073 36.8848 155.615 38.0098 156.469 38.0098H156.719C157.782 38.0098 158.448 36.8848 158.719 34.6348C158.636 33.3014 158.552 32.5931 158.469 32.5098C158.552 31.0306 158.594 29.8223 158.594 28.8848V25.6348C158.594 18.9681 158.386 15.6348 157.969 15.6348L157.594 15.3848H155.719C155.136 15.3848 154.844 15.6764 154.844 16.2598ZM142.094 18.6348C142.219 19.2181 142.386 19.5098 142.594 19.5098H142.719C143.052 19.4056 143.219 19.0306 143.219 18.3848V17.0098C143.219 16.8431 143.136 16.7598 142.969 16.7598H142.844C142.427 16.7598 142.177 17.3848 142.094 18.6348ZM160.094 18.7598C160.177 18.9264 160.219 19.0514 160.219 19.1348H160.469C160.719 19.0514 160.844 18.8014 160.844 18.3848V18.2598C160.844 18.0931 160.761 18.0098 160.594 18.0098H160.469C160.219 18.0931 160.094 18.3431 160.094 18.7598ZM160.094 21.3848C160.219 21.7181 160.344 21.8848 160.469 21.8848C160.677 21.8848 160.886 21.5098 161.094 20.7598L160.844 20.6348H160.594C160.427 20.6348 160.261 20.8848 160.094 21.3848ZM142.469 21.5098V22.7598L142.719 23.1348C143.073 23.1348 143.323 22.5098 143.469 21.2598C143.386 21.1139 143.344 20.9473 143.344 20.7598H142.844C142.594 20.8431 142.469 21.0931 142.469 21.5098ZM160.094 24.1348C160.219 24.4681 160.344 24.6348 160.469 24.6348C160.698 24.6348 160.907 24.2598 161.094 23.5098L160.844 23.3848H160.594C160.261 23.5514 160.094 23.8014 160.094 24.1348ZM142.969 24.3848C142.636 24.6973 142.469 25.2389 142.469 26.0098V26.8848C142.49 27.0514 142.573 27.1348 142.719 27.1348H143.094L143.594 25.6348V25.2598C143.594 24.8014 143.386 24.5098 142.969 24.3848ZM160.094 27.1348L160.469 27.3848C160.698 27.3848 160.907 27.0098 161.094 26.2598C160.927 26.1764 160.802 26.1348 160.719 26.1348C160.302 26.2181 160.094 26.5514 160.094 27.1348ZM142.344 30.2598C142.469 30.5931 142.594 30.7598 142.719 30.7598H142.844C143.344 30.3848 143.594 29.8431 143.594 29.1348V28.3848H143.344C142.677 28.6556 142.344 29.2806 142.344 30.2598ZM160.219 29.3848V29.7598C160.24 29.9264 160.323 30.0098 160.469 30.0098H160.719C160.719 29.8639 160.802 29.6556 160.969 29.3848C160.886 29.2181 160.844 29.0931 160.844 29.0098H160.594C160.469 29.0098 160.344 29.1348 160.219 29.3848ZM160.094 32.3848C160.177 32.5514 160.219 32.6764 160.219 32.7598H160.469C160.657 32.7598 160.782 32.5514 160.844 32.1348C160.761 31.9681 160.719 31.8431 160.719 31.7598H160.469C160.282 31.7598 160.157 31.9681 160.094 32.3848ZM142.344 33.8848C142.344 34.0098 142.511 34.1764 142.844 34.3848C143.427 33.8223 143.719 33.3223 143.719 32.8848V32.2598C143.719 32.0931 143.594 32.0098 143.344 32.0098C142.74 32.0098 142.407 32.6348 142.344 33.8848ZM160.094 35.2598C160.219 35.5931 160.344 35.7598 160.469 35.7598C160.657 35.7598 160.782 35.5514 160.844 35.1348C160.761 34.9681 160.719 34.8431 160.719 34.7598H160.469C160.386 34.7598 160.261 34.9264 160.094 35.2598ZM142.469 36.6348V37.5098C142.469 37.6348 142.594 37.7598 142.844 37.8848H143.094C143.511 37.0306 143.719 36.5306 143.719 36.3848V35.5098C143.719 35.3431 143.636 35.2598 143.469 35.2598C142.802 35.5931 142.469 36.0514 142.469 36.6348ZM160.094 37.7598L160.344 37.8848C160.511 37.8848 160.594 37.8014 160.594 37.6348L160.344 37.5098C160.177 37.5306 160.094 37.6139 160.094 37.7598ZM142.594 40.0098V41.1348C142.594 41.2598 142.719 41.3848 142.969 41.5098H143.094C143.594 40.5931 143.844 40.0514 143.844 39.8848V38.8848C143.844 38.7598 143.719 38.6348 143.469 38.5098C142.886 39.0514 142.594 39.5514 142.594 40.0098ZM143.344 42.0098C143.344 42.2389 143.261 42.6973 143.094 43.3848C143.094 43.5931 143.469 44.1348 144.219 45.0098C144.219 46.2598 144.594 46.8848 145.344 46.8848C145.698 46.9889 146.073 47.4889 146.469 48.3848L147.094 48.5098H147.344C147.469 48.5098 147.594 48.3848 147.719 48.1348V47.6348C147.719 47.3848 147.136 47.1348 145.969 46.8848C145.969 46.0306 145.427 45.1556 144.344 44.2598C144.344 42.7598 144.011 42.0098 143.344 42.0098ZM148.594 48.8848V49.0098C148.594 49.1348 148.761 49.3014 149.094 49.5098H149.594C149.865 49.5098 150.157 49.3848 150.469 49.1348C150.469 48.8014 150.094 48.5514 149.344 48.3848C148.844 48.5514 148.594 48.7181 148.594 48.8848ZM151.719 49.3848V49.5098C151.719 49.6348 151.886 49.7598 152.219 49.8848C152.969 49.6973 153.344 49.4889 153.344 49.2598V49.1348L152.719 49.0098H152.469C151.969 49.0514 151.719 49.1764 151.719 49.3848ZM157.844 49.8848V50.0098C157.865 50.1764 157.948 50.2598 158.094 50.2598C158.698 50.2598 159.198 50.0098 159.594 49.5098V49.3848C159.594 49.2598 159.469 49.1348 159.219 49.0098C158.823 49.0098 158.365 49.3014 157.844 49.8848ZM161.469 49.1348V49.5098H162.094V49.2598C162.094 49.0931 162.011 49.0098 161.844 49.0098C161.677 49.0931 161.552 49.1348 161.469 49.1348ZM154.969 49.5098V49.8848C154.99 50.0514 155.073 50.1348 155.219 50.1348H155.719C156.136 49.8848 156.344 49.5931 156.344 49.2598L156.094 49.1348H155.969C155.365 49.1348 155.032 49.2598 154.969 49.5098ZM189.219 1.00977H191.969C195.573 1.50977 197.948 2.25977 199.094 3.25977C200.302 4.11393 201.344 5.4056 202.219 7.13477L203.094 10.0098L203.594 13.5098C202.511 16.5098 201.677 18.0098 201.094 18.0098C201.094 18.4264 199.802 18.8848 197.219 19.3848H196.969C194.219 18.9056 192.844 18.4056 192.844 17.8848C192.323 17.8848 191.823 16.4681 191.344 13.6348C191.073 13.4681 190.823 13.3848 190.594 13.3848H190.344C189.573 13.3848 188.573 14.0514 187.344 15.3848C187.344 15.6139 187.052 16.9473 186.469 19.3848C186.386 20.6764 186.344 22.0098 186.344 23.3848V28.2598C186.344 31.0098 186.677 33.3014 187.344 35.1348C188.261 38.1348 189.511 39.6348 191.094 39.6348C191.865 39.6348 192.532 39.2181 193.094 38.3848V38.0098C193.094 37.7598 193.052 37.6348 192.969 37.6348C192.969 35.8431 193.386 34.6348 194.219 34.0098C195.115 32.9264 196.74 32.3848 199.094 32.3848C199.219 32.3223 199.802 32.1556 200.844 31.8848H201.344C203.844 31.8848 205.094 33.0098 205.094 35.2598C204.927 36.2598 204.844 37.0514 204.844 37.6348V38.2598C203.907 41.3639 202.74 43.6556 201.344 45.1348C199.844 47.8014 197.386 49.8014 193.969 51.1348C192.948 51.2181 191.865 51.3848 190.719 51.6348C187.552 51.6348 185.136 51.2181 183.469 50.3848C183.302 50.3848 182.261 49.7598 180.344 48.5098C178.094 46.3223 176.636 44.0306 175.969 41.6348C175.677 41.4264 175.219 39.9264 174.594 37.1348C174.594 35.5514 174.344 33.8848 173.844 32.1348C173.761 29.6556 173.719 27.5723 173.719 25.8848C173.719 25.6348 173.761 25.3431 173.844 25.0098C173.761 24.5723 173.719 24.1556 173.719 23.7598V23.0098C173.719 22.2181 173.761 21.2598 173.844 20.1348L173.719 19.3848C174.386 15.3223 174.719 12.9473 174.719 12.2598C174.948 11.9264 175.407 10.8431 176.094 9.00977C177.802 6.5306 179.636 4.7806 181.594 3.75977C183.261 2.44727 185.802 1.5306 189.219 1.00977ZM190.719 2.88477H188.469C187.386 2.88477 185.719 3.38477 183.469 4.38477C181.719 5.7806 180.844 6.7806 180.844 7.38477C179.761 9.0306 179.219 10.9473 179.219 13.1348C178.719 13.6973 178.469 17.2389 178.469 23.7598V28.1348C178.469 29.7389 178.761 32.3223 179.344 35.8848C179.344 37.0514 179.969 39.2181 181.219 42.3848C183.323 45.8848 186.823 47.6348 191.719 47.6348H191.969C193.115 47.6348 194.657 47.3014 196.594 46.6348C197.636 46.2389 199.052 45.0723 200.844 43.1348C202.386 40.7181 203.261 38.2598 203.469 35.7598V35.3848C203.469 34.2181 203.011 33.6348 202.094 33.6348H201.719C199.282 33.6348 197.907 34.1764 197.594 35.2598C197.448 35.2598 197.365 35.4681 197.344 35.8848L197.594 36.7598C197.032 38.5514 196.115 39.8431 194.844 40.6348C193.532 41.2181 192.782 41.5098 192.594 41.5098C189.677 41.5098 187.636 40.1764 186.469 37.5098C186.282 37.5098 185.823 36.3014 185.094 33.8848C184.677 28.0723 184.469 24.9889 184.469 24.6348C184.886 18.0514 185.386 14.7598 185.969 14.7598C185.969 13.2598 187.136 11.5098 189.469 9.50977C190.469 9.17643 191.177 9.00977 191.594 9.00977C194.094 9.75977 195.344 10.5514 195.344 11.3848C195.698 11.3848 195.948 12.5098 196.094 14.7598C196.719 15.1764 197.177 15.3848 197.469 15.3848H197.844C198.032 15.3848 198.198 15.3431 198.344 15.2598C198.532 15.3431 198.907 15.4264 199.469 15.5098C201.136 14.9264 201.969 14.1764 201.969 13.2598C201.802 11.7181 201.427 9.92643 200.844 7.88477C199.844 6.00977 198.719 4.80143 197.469 4.25977C196.365 3.5931 194.407 3.0931 191.594 2.75977L190.719 2.88477ZM191.719 10.8848V11.2598C191.74 11.4264 191.823 11.5098 191.969 11.5098H192.469V11.3848C192.344 11.0514 192.219 10.8848 192.094 10.8848H191.719ZM176.594 12.8848V13.0098H176.969C177.469 12.6764 177.719 12.2598 177.719 11.7598V11.3848H177.469C176.886 11.6348 176.594 12.1348 176.594 12.8848ZM192.594 11.6348C192.74 12.4681 192.907 12.8848 193.094 12.8848H193.344C193.469 12.8848 193.636 12.7181 193.844 12.3848V11.8848C193.844 11.7181 193.761 11.6348 193.594 11.6348H192.594ZM193.344 14.7598L193.594 15.2598C193.823 15.2389 194.032 15.0306 194.219 14.6348C194.115 14.2181 193.99 14.0098 193.844 14.0098H193.719C193.469 14.0931 193.344 14.3431 193.344 14.7598ZM175.844 16.1348C175.907 16.5514 176.032 16.7598 176.219 16.7598H176.344C176.927 16.0931 177.219 15.5514 177.219 15.1348V14.7598C177.219 14.5931 177.136 14.5098 176.969 14.5098H176.844C176.177 15.1764 175.844 15.7181 175.844 16.1348ZM194.094 16.3848C194.094 16.5098 194.261 16.6764 194.594 16.8848H194.844C195.011 16.8848 195.094 16.8014 195.094 16.6348V16.5098C195.094 16.3848 194.927 16.2181 194.594 16.0098H194.469C194.344 16.0098 194.219 16.1348 194.094 16.3848ZM196.094 17.1348C196.177 17.4681 196.427 17.6348 196.844 17.6348C197.011 17.5514 197.136 17.5098 197.219 17.5098V17.2598C197.219 17.0931 197.136 17.0098 196.969 17.0098H196.344L196.094 17.1348ZM175.594 19.6348C175.594 19.7598 175.719 19.8848 175.969 20.0098H176.094C176.844 19.3223 177.219 18.8223 177.219 18.5098C177.219 18.3848 177.136 18.0098 176.969 17.3848H176.719C175.969 18.0098 175.594 18.7598 175.594 19.6348ZM175.594 22.2598V22.5098C175.615 22.6764 175.698 22.7598 175.844 22.7598H176.094C176.344 22.7598 176.636 22.2181 176.969 21.1348V20.8848H176.719C175.969 21.3639 175.594 21.8223 175.594 22.2598ZM175.594 25.7598V25.8848C175.615 26.0514 175.698 26.1348 175.844 26.1348H176.094C176.677 25.6139 176.969 25.0306 176.969 24.3848C176.886 24.0514 176.719 23.8848 176.469 23.8848C175.948 23.8848 175.657 24.5098 175.594 25.7598ZM175.719 28.0098V28.8848C175.74 29.0514 175.823 29.1348 175.969 29.1348H176.219C176.719 28.8639 176.969 28.4056 176.969 27.7598V27.1348C176.511 27.1348 176.094 27.4264 175.719 28.0098ZM175.719 31.5098C175.844 31.8431 176.052 32.0931 176.344 32.2598C176.844 31.4056 177.094 30.8639 177.094 30.6348C177.094 30.3014 176.927 30.0931 176.594 30.0098C176.011 30.1973 175.719 30.6973 175.719 31.5098ZM175.844 34.2598V34.6348C175.844 34.7598 176.011 34.9264 176.344 35.1348H176.469C176.969 34.2389 177.219 33.6973 177.219 33.5098V33.1348C177.219 33.0306 177.011 32.8223 176.594 32.5098C176.448 32.5098 176.198 33.0931 175.844 34.2598ZM195.219 35.1348C195.219 35.1764 195.177 35.3431 195.094 35.6348L195.344 35.7598C195.511 35.7598 195.594 35.6764 195.594 35.5098V35.1348H195.219ZM176.719 35.5098C176.719 35.8431 176.552 36.2598 176.219 36.7598C176.219 37.1973 176.469 37.5723 176.969 37.8848H177.219C177.636 37.6764 177.844 37.2598 177.844 36.6348C177.844 36.1973 177.594 35.8223 177.094 35.5098H176.719ZM194.844 37.8848L195.094 38.0098H195.219C195.407 38.0098 195.532 37.8014 195.594 37.3848L195.344 37.2598C195.177 37.3014 195.011 37.5098 194.844 37.8848ZM176.969 39.6348C176.969 40.0723 177.344 40.6139 178.094 41.2598C178.157 42.9264 178.407 43.7598 178.844 43.7598H178.969C179.094 43.7598 179.344 43.5098 179.719 43.0098V42.7598L178.344 40.8848V40.0098C178.282 39.1764 178.032 38.7598 177.594 38.7598C177.177 38.8848 176.969 39.1764 176.969 39.6348ZM179.469 44.6348C179.469 45.2181 179.844 45.7181 180.594 46.1348C181.136 45.9264 181.427 45.7181 181.469 45.5098C181.052 44.7181 180.636 44.2598 180.219 44.1348C179.719 44.3014 179.469 44.4681 179.469 44.6348ZM182.094 46.2598C181.761 46.6348 181.594 46.8431 181.594 46.8848C181.594 47.3639 181.886 47.7389 182.469 48.0098H182.719C183.219 48.0098 183.469 47.8014 183.469 47.3848C182.99 46.6348 182.532 46.2598 182.094 46.2598ZM184.094 48.6348V48.7598C184.282 49.1764 184.907 49.3848 185.969 49.3848L186.344 48.8848C186.157 48.5723 185.823 48.2806 185.344 48.0098H185.094C184.636 48.0098 184.302 48.2181 184.094 48.6348ZM187.344 49.6348V49.7598C187.344 49.8431 187.511 49.9681 187.844 50.1348C188.386 50.1348 188.719 49.7598 188.844 49.0098L188.594 48.8848C188.157 48.8848 187.74 49.1348 187.344 49.6348ZM190.344 49.7598V50.0098L190.844 50.1348C191.177 50.0098 191.344 49.8848 191.344 49.7598V49.5098C191.052 49.4264 190.886 49.3848 190.844 49.3848C190.511 49.5098 190.344 49.6348 190.344 49.7598ZM217.657 0.759766H218.407C220.407 0.947266 221.407 1.73893 221.407 3.13477C221.407 3.4056 221.365 3.61393 221.282 3.75977C221.448 4.86393 221.532 6.6556 221.532 9.13477V13.3848C221.532 14.8848 221.448 16.1348 221.282 17.1348C221.386 18.9681 221.636 19.8848 222.032 19.8848H224.282C224.615 19.7806 224.782 19.4056 224.782 18.7598V17.6348C224.782 17.5514 224.823 17.5098 224.907 17.5098L224.782 17.2598V15.5098C224.782 15.0098 224.823 14.7598 224.907 14.7598L224.782 13.5098V4.88477C225.198 3.55143 226.24 2.38477 227.907 1.38477L229.407 1.13477C230.573 1.2181 231.573 1.25977 232.407 1.25977C232.677 1.25977 233.594 1.13477 235.157 0.884766C237.073 0.884766 238.032 1.7181 238.032 3.38477C237.698 9.88477 237.532 14.3848 237.532 16.8848C237.532 18.0723 237.657 22.1139 237.907 29.0098C237.657 36.5723 237.532 42.6556 237.532 47.2598C237.532 47.8014 237.073 48.8014 236.157 50.2598C236.032 50.2598 235.74 50.5098 235.282 51.0098L233.282 51.5098C230.448 51.2598 228.198 51.1348 226.532 51.1348C225.511 51.1348 224.927 50.5098 224.782 49.2598V39.6348L224.282 35.3848C224.448 35.0723 224.532 34.6973 224.532 34.2598C224.532 33.9264 224.157 33.6348 223.407 33.3848C223.24 33.4681 223.115 33.5098 223.032 33.5098C222.823 33.5098 222.198 33.4681 221.157 33.3848C220.657 33.5931 220.407 33.8431 220.407 34.1348C220.407 35.3223 220.365 36.5723 220.282 37.8848C220.282 38.0514 220.407 40.0931 220.657 44.0098C220.657 45.7598 220.365 47.2598 219.782 48.5098C219.094 50.4264 218.136 51.3848 216.907 51.3848C216.907 51.5514 215.99 51.6348 214.157 51.6348C210.073 51.3431 208.032 50.8848 208.032 50.2598C207.761 50.2598 207.511 49.1348 207.282 46.8848C207.365 46.5514 207.407 46.2181 207.407 45.8848C207.24 45.3431 207.157 44.9681 207.157 44.7598V41.8848C207.157 41.1764 207.115 40.4264 207.032 39.6348C207.115 39.3431 207.157 38.9264 207.157 38.3848L207.032 37.1348C207.115 36.6764 207.157 36.3431 207.157 36.1348L207.032 35.5098L207.157 34.8848C207.073 33.8431 207.032 33.2181 207.032 33.0098C207.032 32.5098 207.073 31.5098 207.157 30.0098C207.157 29.6556 207.115 29.3223 207.032 29.0098C207.115 27.5306 207.157 26.2806 207.157 25.2598V19.3848C207.157 17.2806 207.24 15.0306 207.407 12.6348C207.323 12.4681 207.282 12.3431 207.282 12.2598C207.615 11.0514 207.865 8.30143 208.032 4.00977C209.115 2.25977 209.865 1.38477 210.282 1.38477L212.282 0.884766C213.115 1.05143 213.865 1.13477 214.532 1.13477H215.532C216.615 0.884766 217.323 0.759766 217.657 0.759766ZM212.282 2.63477L211.907 3.13477V5.00977C211.907 5.2806 211.865 5.48893 211.782 5.63477L211.907 6.38477V8.25977C211.907 8.82227 211.865 9.32227 211.782 9.75977C211.865 10.1556 211.907 10.6973 211.907 11.3848C211.907 12.1556 211.865 13.2389 211.782 14.6348C211.782 14.8014 211.823 14.8848 211.907 14.8848L211.782 16.1348V20.7598C211.782 21.9056 211.74 23.4056 211.657 25.2598L211.782 25.5098C211.698 26.0723 211.657 26.5306 211.657 26.8848V28.3848C211.657 28.9681 211.698 29.3014 211.782 29.3848C211.698 29.9473 211.657 30.4056 211.657 30.7598V34.3848C211.657 35.3639 211.615 36.3639 211.532 37.3848L211.782 40.0098C211.698 40.3223 211.657 40.6556 211.657 41.0098V41.2598C211.657 41.6139 211.698 42.0723 211.782 42.6348C211.615 42.9473 211.532 43.2806 211.532 43.6348C211.532 44.0514 211.615 44.2598 211.782 44.2598L211.657 45.1348V46.1348C211.657 46.8848 212.24 47.3431 213.407 47.5098C213.657 47.5098 214.698 47.6348 216.532 47.8848H217.282C218.282 47.8848 218.782 46.7598 218.782 44.5098V44.0098C218.615 42.1348 218.532 41.1348 218.532 41.0098V32.3848C218.532 30.4681 219.115 29.5098 220.282 29.5098C220.594 29.4264 220.969 29.3848 221.407 29.3848H223.157C223.282 29.3848 223.948 29.3014 225.157 29.1348H225.532C227.615 29.1348 228.657 29.9681 228.657 31.6348V34.2598C228.657 35.5931 228.615 36.8848 228.532 38.1348C228.615 40.3431 228.782 41.8431 229.032 42.6348C228.948 43.8848 228.907 44.8014 228.907 45.3848C228.907 46.4473 229.323 47.1139 230.157 47.3848L231.907 47.2598C232.657 47.4264 233.073 47.5098 233.157 47.5098C235.073 47.5098 236.032 47.0931 236.032 46.2598C236.115 42.6139 236.157 39.8223 236.157 37.8848V29.0098C236.157 24.6139 236.032 21.1139 235.782 18.5098V17.2598C236.032 15.2806 236.198 10.5723 236.282 3.13477L235.782 2.75977H229.157C228.948 2.75977 228.823 2.92643 228.782 3.25977C228.782 3.7181 228.948 4.50977 229.282 5.63477C229.032 8.5931 228.907 11.4681 228.907 14.2598V19.5098C228.823 20.6764 228.282 21.2598 227.282 21.2598C227.282 21.3431 226.24 21.5514 224.157 21.8848C221.323 21.6348 219.907 21.0931 219.907 20.2598C219.802 20.2598 219.636 19.2181 219.407 17.1348C219.573 16.3014 219.657 15.5514 219.657 14.8848V6.25977C219.49 4.38477 219.407 3.38477 219.407 3.25977V3.13477C219.407 3.00977 219.24 2.8431 218.907 2.63477C216.74 2.7181 215.032 2.75977 213.782 2.75977L212.282 2.63477ZM226.407 5.75977C226.573 5.8431 226.698 5.88477 226.782 5.88477C227.198 5.7806 227.407 5.44727 227.407 4.88477C227.323 4.73893 227.282 4.57227 227.282 4.38477H227.032C226.782 4.38477 226.573 4.8431 226.407 5.75977ZM209.532 5.38477V5.63477H209.657C209.782 5.63477 209.907 5.50977 210.032 5.25977V5.00977H209.907C209.782 5.00977 209.657 5.13477 209.532 5.38477ZM226.907 7.25977C226.573 8.0931 226.407 8.5931 226.407 8.75977V9.00977H226.782C227.052 9.00977 227.302 8.5931 227.532 7.75977C227.407 7.42643 227.282 7.25977 227.157 7.25977H226.907ZM209.157 9.00977C209.24 9.50977 209.365 9.75977 209.532 9.75977C209.782 9.75977 210.073 9.13477 210.407 7.88477C210.323 7.7181 210.282 7.5931 210.282 7.50977H209.907C209.407 7.80143 209.157 8.30143 209.157 9.00977ZM226.407 12.1348C226.532 12.4681 226.657 12.6348 226.782 12.6348H227.032C227.282 12.5723 227.407 12.2389 227.407 11.6348V11.3848C227.407 10.9473 227.282 10.6973 227.032 10.6348C226.615 10.9889 226.407 11.4889 226.407 12.1348ZM209.157 12.1348V13.5098C209.177 13.6764 209.261 13.7598 209.407 13.7598H209.657C209.886 13.7598 210.052 13.3431 210.157 12.5098V11.8848L210.032 11.2598C209.448 11.2598 209.157 11.5514 209.157 12.1348ZM226.907 14.3848C226.573 15.3014 226.407 15.8014 226.407 15.8848L226.657 16.0098H226.782C227.198 15.7806 227.407 15.4056 227.407 14.8848C227.282 14.5514 227.157 14.3848 227.032 14.3848H226.907ZM209.032 18.0098L209.282 18.1348H209.532C209.74 18.1348 209.907 17.7598 210.032 17.0098C209.948 16.0098 209.865 15.4681 209.782 15.3848C209.282 15.3848 209.032 16.2598 209.032 18.0098ZM226.407 18.7598C226.49 19.1764 226.698 19.3848 227.032 19.3848C227.282 19.0306 227.407 18.6973 227.407 18.3848C227.407 18.2389 227.323 17.9889 227.157 17.6348C226.907 17.6348 226.657 18.0098 226.407 18.7598ZM208.907 21.1348V22.1348C208.927 22.3014 209.011 22.3848 209.157 22.3848H209.407C209.636 22.3848 209.802 21.9681 209.907 21.1348V19.8848C209.907 19.7598 209.782 19.6348 209.532 19.5098C209.282 19.5098 209.073 20.0514 208.907 21.1348ZM209.282 23.7598C208.948 24.5306 208.782 24.9889 208.782 25.1348V25.3848H209.282C209.615 25.2389 209.782 24.9473 209.782 24.5098V24.0098C209.782 23.8431 209.698 23.7598 209.532 23.7598H209.282ZM209.407 26.7598C208.907 27.4473 208.657 28.1139 208.657 28.7598L209.032 29.2598C209.532 29.0514 209.782 28.6764 209.782 28.1348V27.1348C209.782 27.0098 209.657 26.8848 209.407 26.7598ZM209.407 30.6348C208.907 31.2598 208.657 31.7598 208.657 32.1348V32.6348C208.677 32.8014 208.761 32.8848 208.907 32.8848C209.323 32.8848 209.615 32.6764 209.782 32.2598V31.0098C209.782 30.8848 209.657 30.7598 209.407 30.6348ZM222.532 31.2598V31.6348H222.907C223.344 31.6348 223.594 31.5098 223.657 31.2598V31.1348C223.657 31.0098 223.49 30.8848 223.157 30.7598C222.782 30.9264 222.573 31.0931 222.532 31.2598ZM224.907 31.8848L225.282 32.1348H225.407C226.073 31.6139 226.407 31.3223 226.407 31.2598V30.8848L225.782 30.7598C225.198 31.0098 224.907 31.3848 224.907 31.8848ZM220.782 31.0098L220.657 31.2598V31.3848H221.032V31.2598C221.032 31.0931 220.948 31.0098 220.782 31.0098ZM226.032 34.0098C226.115 34.1764 226.157 34.3014 226.157 34.3848H226.407C227.073 33.9473 227.407 33.4473 227.407 32.8848C227.323 32.5514 227.157 32.3848 226.907 32.3848C226.386 32.3848 226.094 32.9264 226.032 34.0098ZM208.782 36.6348V36.8848C209.532 36.8848 209.907 36.3014 209.907 35.1348C209.823 34.6348 209.698 34.3848 209.532 34.3848H209.407C209.073 34.3848 208.865 35.1348 208.782 36.6348ZM226.032 36.6348V37.0098C226.052 37.1764 226.136 37.2598 226.282 37.2598H226.407C226.532 37.2598 226.782 36.9264 227.157 36.2598V35.6348H226.907C226.802 35.6348 226.511 35.9681 226.032 36.6348ZM208.657 39.6348C208.823 40.5514 209.032 41.0098 209.282 41.0098H209.407C209.532 41.0098 209.657 40.8848 209.782 40.6348V39.8848L209.907 38.3848C209.698 38.2181 209.573 38.1348 209.532 38.1348C209.344 38.1348 209.052 38.6348 208.657 39.6348ZM226.407 38.8848C226.407 38.9681 226.365 39.0931 226.282 39.2598C226.448 39.5931 226.532 39.8431 226.532 40.0098C226.448 40.1764 226.407 40.3014 226.407 40.3848H226.657C226.99 40.2389 227.157 39.9473 227.157 39.5098V39.2598C227.157 39.1348 227.032 39.0098 226.782 38.8848H226.407ZM226.282 43.2598L226.532 43.3848C226.657 43.3848 226.907 43.1348 227.282 42.6348V42.2598C227.282 42.0931 227.198 42.0098 227.032 42.0098C226.802 42.0098 226.552 42.4264 226.282 43.2598ZM209.032 43.3848V44.2598C209.032 44.3848 209.157 44.5098 209.407 44.6348C209.532 44.6348 209.657 44.5098 209.782 44.2598V43.5098L209.907 42.7598C209.823 42.5931 209.782 42.4681 209.782 42.3848H209.407C209.157 42.4264 209.032 42.7598 209.032 43.3848ZM226.907 44.6348C226.407 45.2598 226.157 45.7598 226.157 46.1348L226.407 46.2598H226.532C227.032 45.9681 227.282 45.5931 227.282 45.1348V45.0098C227.282 44.8848 227.157 44.7598 226.907 44.6348ZM209.157 47.1348V47.2598C209.157 47.6764 209.323 47.9264 209.657 48.0098C209.823 47.8014 209.907 47.6764 209.907 47.6348V47.5098C209.907 46.5931 209.782 46.1348 209.532 46.1348C209.282 46.1764 209.157 46.5098 209.157 47.1348ZM226.907 47.5098L226.282 48.3848V48.5098H226.532C226.636 48.5098 226.844 48.3014 227.157 47.8848V47.7598C227.157 47.5931 227.073 47.5098 226.907 47.5098ZM210.657 49.3848V49.5098C210.657 49.6764 210.782 49.7598 211.032 49.7598C211.365 49.6348 211.532 49.5098 211.532 49.3848V49.0098H211.032C210.907 49.0098 210.782 49.1348 210.657 49.3848ZM213.157 49.6348L213.532 49.8848H214.282C214.407 49.8848 214.532 49.7598 214.657 49.5098C214.386 49.3431 214.136 49.2598 213.907 49.2598H213.532C213.407 49.2598 213.282 49.3848 213.157 49.6348ZM230.532 49.2598L230.407 49.5098V49.6348H230.782V49.5098C230.782 49.3431 230.698 49.2598 230.532 49.2598ZM232.282 49.5098V49.7598L232.782 49.8848C232.948 49.8014 233.073 49.7598 233.157 49.7598V49.5098C233.157 49.3431 233.073 49.2598 232.907 49.2598H232.532C232.365 49.2806 232.282 49.3639 232.282 49.5098ZM216.532 49.6348L216.782 49.7598C216.948 49.7598 217.032 49.6764 217.032 49.5098V49.3848H216.782C216.615 49.4056 216.532 49.4889 216.532 49.6348ZM258.094 1.13477C260.344 1.13477 263.511 1.17643 267.594 1.25977C268.448 1.25977 268.948 2.5931 269.094 5.25977V6.13477C268.698 10.8014 267.615 13.2181 265.844 13.3848C265.844 13.5514 264.969 13.6764 263.219 13.7598L254.844 13.5098C254.677 13.8431 254.594 14.0931 254.594 14.2598C254.677 15.9264 254.719 17.3848 254.719 18.6348C254.886 19.2181 255.219 19.5098 255.719 19.5098H256.719C260.886 19.5098 262.969 19.7598 262.969 20.2598C263.802 21.0723 264.219 21.7389 264.219 22.2598C264.219 23.1348 264.177 23.8431 264.094 24.3848C264.177 25.0306 264.219 25.7389 264.219 26.5098C264.219 29.1764 263.511 31.0931 262.094 32.2598L261.469 32.3848H260.969C260.052 32.3848 259.261 32.4681 258.594 32.6348C257.802 32.5514 257.052 32.5098 256.344 32.5098H255.469C254.886 32.5098 254.594 32.8014 254.594 33.3848V37.5098C254.594 38.0723 255.011 38.5306 255.844 38.8848L256.719 38.7598H262.344C263.011 38.7598 263.886 38.8014 264.969 38.8848C265.136 38.8014 265.261 38.7598 265.344 38.7598C267.761 38.7598 268.969 39.4681 268.969 40.8848C269.136 41.4264 269.219 41.8014 269.219 42.0098C269.219 42.5306 269.261 43.9056 269.344 46.1348C268.802 48.3848 267.969 49.8848 266.844 50.6348C263.177 51.3014 259.427 51.6348 255.594 51.6348C247.677 51.5098 243.719 51.2598 243.719 50.8848C242.469 50.2181 241.844 49.0931 241.844 47.5098V45.8848C241.844 45.5098 241.886 45.2598 241.969 45.1348C241.886 44.6764 241.844 44.3014 241.844 44.0098V43.3848C241.844 42.0098 241.677 38.0098 241.344 31.3848V29.0098C241.344 25.6764 241.469 22.8848 241.719 20.6348V15.1348C241.552 13.2598 241.469 12.2598 241.469 12.1348C241.782 8.13477 242.198 6.13477 242.719 6.13477C243.198 4.86393 244.865 3.48893 247.719 2.00977C250.261 1.42643 252.427 1.13477 254.219 1.13477H258.094ZM245.719 8.50977C245.802 13.5098 245.969 16.8848 246.219 18.6348L246.094 19.2598C246.177 19.8014 246.219 20.3431 246.219 20.8848C246.219 21.2806 246.177 21.6973 246.094 22.1348C246.177 22.5723 246.219 22.9889 246.219 23.3848C246.136 24.2389 246.094 24.7389 246.094 24.8848C246.261 25.2181 246.344 25.4681 246.344 25.6348L246.094 27.2598L246.219 27.8848C246.136 28.6764 246.094 29.4264 246.094 30.1348C246.094 30.7389 246.136 31.1973 246.219 31.5098L246.094 32.7598C246.094 34.0931 246.344 38.4264 246.844 45.7598C247.323 46.4264 247.657 46.7598 247.844 46.7598C248.532 46.7598 248.907 46.7181 248.969 46.6348C251.844 46.7181 254.094 46.7598 255.719 46.7598H265.219C266.219 46.7598 266.969 46.5098 267.469 46.0098C267.386 44.6348 267.344 43.5931 267.344 42.8848V41.2598C267.344 40.5931 265.344 40.2598 261.344 40.2598H258.344C257.573 40.2598 256.49 40.3014 255.094 40.3848C253.761 40.0098 253.094 38.9264 253.094 37.1348C253.011 36.5514 252.969 35.7181 252.969 34.6348V33.1348C253.136 30.5514 253.677 29.2598 254.594 29.2598C254.761 28.9264 255.344 28.6348 256.344 28.3848C256.552 28.3848 256.886 28.4264 257.344 28.5098L258.469 28.3848C259.302 28.4681 259.927 28.5098 260.344 28.5098C261.677 28.5098 262.344 28.0514 262.344 27.1348L262.469 26.5098C262.302 25.5931 262.219 24.9681 262.219 24.6348C262.219 24.4473 262.302 23.8223 262.469 22.7598C262.469 21.5931 261.052 21.0098 258.219 21.0098H254.719C253.719 20.9473 253.219 20.4889 253.219 19.6348C253.219 18.5098 253.177 16.5514 253.094 13.7598C253.094 10.9264 253.552 9.50977 254.469 9.50977C254.802 9.44727 254.969 9.36393 254.969 9.25977L255.594 9.38477C255.927 9.38477 257.886 9.42643 261.469 9.50977L261.719 9.38477C261.886 9.4681 262.011 9.50977 262.094 9.50977C265.198 9.50977 266.907 9.0931 267.219 8.25977C267.302 6.5931 267.344 5.3431 267.344 4.50977V3.88477C267.344 3.2181 266.594 2.88477 265.094 2.88477C263.886 2.80143 261.052 2.7181 256.594 2.63477C250.427 2.98893 247.344 3.5306 247.344 4.25977C246.261 5.48893 245.719 6.9056 245.719 8.50977ZM243.969 7.00977V7.88477H244.344L244.469 7.25977C244.469 7.0931 244.386 7.00977 244.219 7.00977H243.969ZM243.219 11.0098V12.6348C243.24 12.8014 243.323 12.8848 243.469 12.8848C244.052 12.6764 244.344 12.1764 244.344 11.3848V10.7598C244.344 10.5306 244.261 10.2806 244.094 10.0098C243.511 10.2181 243.219 10.5514 243.219 11.0098ZM256.469 11.5098C256.552 11.7598 256.802 11.8848 257.219 11.8848C257.344 11.8848 257.469 11.7598 257.594 11.5098C257.594 11.3848 257.469 11.2598 257.219 11.1348C256.719 11.1764 256.469 11.3014 256.469 11.5098ZM262.594 11.5098V11.7598L263.219 11.8848H263.344C263.469 11.8848 263.594 11.7598 263.719 11.5098V11.3848C263.719 11.2181 263.636 11.1348 263.469 11.1348H263.344C262.844 11.1764 262.594 11.3014 262.594 11.5098ZM259.344 11.2598V11.7598L259.969 11.8848H260.344L260.969 11.7598V11.2598H259.344ZM265.344 11.2598V11.6348H265.469C265.636 11.6348 265.719 11.5514 265.719 11.3848L265.469 11.2598H265.344ZM243.219 15.3848V16.6348C243.282 17.1348 243.407 17.3848 243.594 17.3848H243.844C244.261 16.2806 244.469 15.6973 244.469 15.6348V14.3848C244.469 14.2598 244.344 14.1348 244.094 14.0098H243.969C243.719 14.0098 243.469 14.4681 243.219 15.3848ZM243.969 17.8848L243.219 19.7598V20.8848C243.219 21.0098 243.344 21.1348 243.594 21.2598H243.719L244.469 19.6348C244.469 19.4264 244.511 19.0931 244.594 18.6348C244.427 18.1764 244.219 17.9264 243.969 17.8848ZM243.844 21.7598C243.427 22.5931 243.219 23.2598 243.219 23.7598C243.136 23.8639 243.094 24.1556 243.094 24.6348C243.261 25.0723 243.469 25.3223 243.719 25.3848C244.302 24.1973 244.594 23.1139 244.594 22.1348L244.094 21.7598H243.844ZM243.094 27.7598V28.8848C243.094 29.0514 243.302 29.1348 243.719 29.1348C244.302 27.7806 244.594 26.9473 244.594 26.6348C244.427 26.1348 244.261 25.8848 244.094 25.8848C243.427 26.7389 243.094 27.3639 243.094 27.7598ZM243.094 32.7598C243.094 33.0723 243.302 33.4473 243.719 33.8848V34.5098L243.219 35.2598V37.1348C243.219 37.2598 243.344 37.3848 243.594 37.5098C244.261 37.0931 244.594 36.2598 244.594 35.0098C244.594 34.6556 244.344 34.1973 243.844 33.6348V33.2598C244.261 32.2389 244.469 31.6139 244.469 31.3848V30.5098C244.469 30.4264 244.511 30.3848 244.594 30.3848C244.427 29.8848 244.261 29.6348 244.094 29.6348C243.427 30.3431 243.094 31.3848 243.094 32.7598ZM257.719 30.6348V30.7598C257.74 30.9264 257.823 31.0098 257.969 31.0098H258.094C258.552 31.0098 258.886 30.8014 259.094 30.3848V30.1348C259.094 29.9681 259.011 29.8848 258.844 29.8848C258.407 29.8848 258.032 30.1348 257.719 30.6348ZM260.594 30.7598L260.844 30.8848C260.969 30.8848 261.136 30.7181 261.344 30.3848V30.2598H261.094C260.969 30.2598 260.802 30.4264 260.594 30.7598ZM255.469 30.7598V30.8848H255.969V30.5098H255.719C255.552 30.5306 255.469 30.6139 255.469 30.7598ZM243.344 39.6348V41.3848H243.719C244.386 40.8848 244.719 40.3431 244.719 39.7598C244.594 38.8431 244.427 38.3848 244.219 38.3848H244.094C243.594 38.7181 243.344 39.1348 243.344 39.6348ZM243.469 43.6348C243.469 44.8014 243.761 45.3848 244.344 45.3848C244.657 45.3848 244.948 44.9681 245.219 44.1348C245.052 42.8014 244.844 42.1348 244.594 42.1348H244.344C243.761 42.6973 243.469 43.1973 243.469 43.6348ZM243.719 48.0098C243.823 48.3848 243.99 48.5931 244.219 48.6348C245.052 48.1764 245.469 47.6764 245.469 47.1348V47.0098C245.469 46.5723 245.344 46.3223 245.094 46.2598C244.177 46.4889 243.719 47.0723 243.719 48.0098ZM251.844 49.1348V49.2598C252.011 49.5514 252.261 49.7598 252.594 49.8848C252.677 49.8848 253.094 49.6348 253.844 49.1348H254.469C254.865 49.5514 255.323 49.7598 255.844 49.7598H255.969C256.407 49.7598 256.907 49.3848 257.469 48.6348C257.469 48.5098 257.344 48.3848 257.094 48.2598C257.032 48.2598 256.49 48.4681 255.469 48.8848H255.219C254.99 48.8848 254.49 48.6348 253.719 48.1348C252.469 48.6973 251.844 49.0306 251.844 49.1348ZM261.719 49.2598V49.3848C261.719 49.5098 261.886 49.6348 262.219 49.7598C263.302 49.3639 263.844 49.0723 263.844 48.8848V48.3848L263.219 48.2598C262.802 48.2806 262.302 48.6139 261.719 49.2598ZM265.219 48.8848V49.1348C265.219 49.3014 265.344 49.3848 265.594 49.3848C266.261 49.0931 266.594 48.7598 266.594 48.3848L266.344 48.2598H265.969C265.469 48.5723 265.219 48.7806 265.219 48.8848ZM246.094 49.2598V49.3848C246.115 49.5514 246.198 49.6348 246.344 49.6348H246.719C247.448 49.0723 247.823 48.6973 247.844 48.5098L247.594 48.3848C247.157 48.3848 246.657 48.6764 246.094 49.2598ZM248.594 49.2598V49.3848C248.594 49.5098 248.761 49.6348 249.094 49.7598C249.907 49.7598 250.657 49.3848 251.344 48.6348C251.344 48.4681 251.261 48.3848 251.094 48.3848H250.094C249.615 48.3848 249.115 48.6764 248.594 49.2598ZM258.219 49.2598V49.3848C258.219 49.5723 258.427 49.6973 258.844 49.7598C259.677 49.7598 260.344 49.3848 260.844 48.6348C260.844 48.4681 260.761 48.3848 260.594 48.3848H259.719C259.282 48.3848 258.782 48.6764 258.219 49.2598ZM273.657 1.63477C280.323 1.80143 288.157 1.88477 297.157 1.88477H298.532C299.282 1.88477 299.698 2.38477 299.782 3.38477V9.25977C299.782 11.8223 298.823 13.6139 296.907 14.6348H295.157C294.49 14.6348 293.615 14.6764 292.532 14.7598L292.282 14.6348C291.907 14.8014 291.698 14.9681 291.657 15.1348V15.7598C291.657 23.2181 291.615 33.9681 291.532 48.0098C290.615 50.4264 289.49 51.6348 288.157 51.6348C287.782 51.6348 287.24 51.5931 286.532 51.5098C286.469 51.5098 286.136 51.5514 285.532 51.6348L284.032 51.5098C283.782 51.5098 283.49 51.5514 283.157 51.6348C282.427 51.5514 281.802 51.5098 281.282 51.5098H280.907C280.552 51.5098 280.094 51.5514 279.532 51.6348C279.011 51.6348 278.636 51.0514 278.407 49.8848C278.49 49.3223 278.532 48.8639 278.532 48.5098C278.365 47.9681 278.282 47.6348 278.282 47.5098C278.282 47.0931 278.365 46.8848 278.532 46.8848C278.448 45.9056 278.407 45.1973 278.407 44.7598V42.2598C278.573 41.0514 278.657 40.4264 278.657 40.3848C278.657 39.8014 278.573 39.5098 278.407 39.5098L278.782 36.8848C278.615 35.8848 278.532 35.0931 278.532 34.5098V29.6348C278.532 29.4473 278.49 29.2806 278.407 29.1348L278.532 28.8848L278.282 22.5098C278.365 21.5723 278.407 20.6973 278.407 19.8848C278.323 19.4473 278.282 19.1973 278.282 19.1348C278.365 18.8014 278.407 18.5098 278.407 18.2598L278.282 17.3848L278.407 16.7598C278.323 16.4681 278.282 16.3014 278.282 16.2598C278.365 15.8223 278.407 15.4056 278.407 15.0098C278.073 14.6348 277.907 14.4264 277.907 14.3848C277.636 14.3848 277.427 14.4264 277.282 14.5098C276.365 14.4264 275.573 14.3848 274.907 14.3848H273.532C273.24 14.3848 272.865 14.3431 272.407 14.2598C272.282 14.3431 272.032 14.3848 271.657 14.3848C270.657 14.1556 270.157 13.6973 270.157 13.0098V11.3848C270.157 10.6348 270.032 9.63477 269.782 8.38477C269.886 5.2181 270.261 3.63477 270.907 3.63477C271.323 2.7181 272.198 2.05143 273.532 1.63477H273.657ZM273.907 4.38477V8.25977C273.907 8.61393 273.865 9.07227 273.782 9.63477C274.032 10.2181 274.323 10.5098 274.657 10.5098C275.698 10.5098 276.99 10.5514 278.532 10.6348C279.552 10.5514 280.552 10.5098 281.532 10.5098C282.365 10.5098 282.782 11.7598 282.782 14.2598C282.782 15.3223 282.74 16.0306 282.657 16.3848C282.74 17.4056 282.782 18.4056 282.782 19.3848V24.2598C282.782 24.6556 282.823 25.0723 282.907 25.5098C282.823 25.8223 282.782 26.1973 282.782 26.6348V26.8848C282.782 27.6348 282.823 28.1348 282.907 28.3848C282.823 29.1139 282.782 29.7389 282.782 30.2598V32.5098C282.782 32.8431 282.823 33.1764 282.907 33.5098C282.823 33.8223 282.782 34.1556 282.782 34.5098V36.2598C282.782 36.5931 282.823 36.9264 282.907 37.2598C282.823 37.5723 282.782 37.9056 282.782 38.2598V39.2598C282.782 39.4473 282.823 39.6139 282.907 39.7598C282.823 39.9056 282.782 40.0723 282.782 40.2598C282.782 40.8431 282.823 41.1764 282.907 41.2598C282.823 41.8223 282.782 42.2806 282.782 42.6348V44.1348C282.782 44.3223 282.823 44.4889 282.907 44.6348C282.823 44.7806 282.782 44.9473 282.782 45.1348V47.2598C282.927 47.5931 283.219 47.7598 283.657 47.7598H284.782C285.552 47.7598 286.261 47.8014 286.907 47.8848C287.261 47.8014 287.886 47.7598 288.782 47.7598H288.907C289.407 47.7598 289.657 47.5514 289.657 47.1348C289.74 31.8848 289.782 20.1764 289.782 12.0098C289.782 10.8431 290.698 10.2598 292.532 10.2598H297.282C297.74 10.2598 298.073 10.0514 298.282 9.63477V4.38477C298.282 3.7181 297.948 3.38477 297.282 3.38477H291.282C287.011 3.38477 281.427 3.3431 274.532 3.25977C274.115 3.25977 273.907 3.63477 273.907 4.38477ZM271.532 5.50977V6.13477H271.907L272.032 5.50977C272.032 5.3431 271.948 5.25977 271.782 5.25977C271.615 5.2806 271.532 5.36393 271.532 5.50977ZM271.407 8.25977V8.63477C271.427 8.80143 271.511 8.88477 271.657 8.88477H271.907L272.032 8.25977V8.13477C272.032 7.9681 271.948 7.88477 271.782 7.88477C271.657 7.88477 271.532 8.00977 271.407 8.25977ZM271.532 10.7598V11.3848H271.907C271.907 11.2181 271.948 11.1348 272.032 11.1348C271.948 10.9681 271.907 10.8431 271.907 10.7598H271.532ZM273.407 12.3848C273.427 12.5514 273.511 12.6348 273.657 12.6348H274.157C274.323 12.6348 274.407 12.5514 274.407 12.3848C274.407 12.2598 274.282 12.1348 274.032 12.0098H273.782C273.657 12.0098 273.532 12.1348 273.407 12.3848ZM276.032 12.1348V12.3848C276.052 12.5514 276.136 12.6348 276.282 12.6348H276.782C276.948 12.6348 277.032 12.5514 277.032 12.3848C277.032 12.1973 276.823 12.0723 276.407 12.0098C276.24 12.0931 276.115 12.1348 276.032 12.1348ZM293.282 13.0098H293.407C294.24 12.9056 294.657 12.7389 294.657 12.5098V12.1348L294.032 12.0098H293.907C293.49 12.2181 293.282 12.5514 293.282 13.0098ZM296.032 12.3848V12.5098C296.032 12.6348 296.157 12.7598 296.407 12.8848C296.782 12.7181 296.99 12.5514 297.032 12.3848C297.032 12.1764 296.865 12.0514 296.532 12.0098C296.198 12.1348 296.032 12.2598 296.032 12.3848ZM278.657 12.5098L278.907 12.6348H279.407V12.1348H279.032C278.907 12.1348 278.782 12.2598 278.657 12.5098ZM280.032 14.6348C280.115 14.7598 280.157 15.0098 280.157 15.3848H280.532C280.782 15.3014 280.907 15.0514 280.907 14.6348V14.5098L280.782 13.8848H280.407C280.302 13.8848 280.177 14.1348 280.032 14.6348ZM280.032 18.6348C280.115 19.2181 280.24 19.5098 280.407 19.5098C280.74 19.3639 280.907 19.0723 280.907 18.6348V17.6348C280.907 17.4681 280.823 17.3848 280.657 17.3848H280.407C280.198 17.3848 280.073 17.8014 280.032 18.6348ZM280.032 22.5098L280.282 23.5098H280.407C280.74 23.3639 280.907 23.0723 280.907 22.6348V21.3848C280.907 21.2598 280.782 21.1348 280.532 21.0098C280.282 21.0098 280.115 21.5098 280.032 22.5098ZM280.032 26.3848C280.115 27.0514 280.24 27.3848 280.407 27.3848H280.782C280.948 26.6973 281.032 25.9473 281.032 25.1348L280.782 25.0098H280.657C280.344 25.0098 280.136 25.4681 280.032 26.3848ZM280.282 29.0098V30.7598C280.302 30.9264 280.386 31.0098 280.532 31.0098C280.865 31.0098 281.032 30.3848 281.032 29.1348L280.657 28.8848C280.49 28.9681 280.365 29.0098 280.282 29.0098ZM280.157 34.2598C280.24 34.4264 280.282 34.5514 280.282 34.6348H280.532C280.74 34.6348 280.907 34.3014 281.032 33.6348V32.8848C281.032 32.7598 280.907 32.6348 280.657 32.5098H280.532C280.344 32.5098 280.219 33.0931 280.157 34.2598ZM280.282 36.6348V37.7598C280.302 37.9264 280.386 38.0098 280.532 38.0098C280.802 38.0098 280.969 37.4681 281.032 36.3848L280.782 36.2598H280.657C280.532 36.2598 280.407 36.3848 280.282 36.6348ZM280.157 41.2598C280.198 41.2598 280.323 41.3431 280.532 41.5098C280.823 41.5098 280.99 40.9681 281.032 39.8848L280.657 39.6348H280.532C280.323 39.6348 280.198 40.1764 280.157 41.2598ZM280.282 43.1348L280.157 43.7598V44.8848C280.177 45.0514 280.261 45.1348 280.407 45.1348H280.532C280.657 45.1348 280.782 45.0098 280.907 44.7598V43.3848C280.907 43.2181 280.823 43.1348 280.657 43.1348H280.282ZM280.157 47.2598V48.2598C280.157 48.3848 280.282 48.5098 280.532 48.6348C280.782 48.5514 280.907 48.3014 280.907 47.8848V47.5098L280.782 46.8848H280.532C280.407 46.8848 280.282 47.0098 280.157 47.2598ZM282.282 49.1348V49.3848C282.302 49.5514 282.386 49.6348 282.532 49.6348H282.907C283.073 49.6348 283.157 49.5514 283.157 49.3848C283.157 49.1764 282.99 49.0514 282.657 49.0098C282.49 49.0931 282.365 49.1348 282.282 49.1348ZM285.032 49.3848C285.052 49.5514 285.136 49.6348 285.282 49.6348H285.657V49.3848C285.657 49.2181 285.573 49.1348 285.407 49.1348H285.282C285.115 49.1556 285.032 49.2389 285.032 49.3848Z" fill="black"/>
</svg>
